<svg xmlns="http://www.w3.org/2000/svg" viewBox="0 0 113 29.556"><defs><style>.a{fill:#c03b4b;}.b{fill:#fff;}</style></defs><g transform="translate(0.1 -0.1)"><rect class="a" width="113" height="29.556" transform="translate(-0.1 0.1)"/><g transform="translate(10.665 9.272)"><path class="b" d="M26.482,18.475a3.918,3.918,0,0,1-.828.064c-.191-.892-.573-1.465-1.338-1.465L22.66,17.01v5.1l.064,2.293c0,.318.064.446.318.51l1.274.255a4.512,4.512,0,0,1-.064.892h-5.16a4.205,4.205,0,0,1-.064-.892l.955-.255c.318-.064.573-.637.573-1.019l.064-1.784v-5.1l-1.784.064c-.7,0-1.019.637-1.21,1.465a1.9,1.9,0,0,1-.828-.064V15.8h9.682Z" transform="translate(-16.8 -14.972)"/><path class="b" d="M33.038,23.368c.127,1.911,1.147,2.357,2.484,2.357a12.614,12.614,0,0,0,2.484-.255,2.386,2.386,0,0,0,.064.51c.064.318.127.573.127.573a7.19,7.19,0,0,1-2.994.764c-2.612,0-4.2-.637-4.2-3.886A4.1,4.1,0,0,1,34.949,19.1c2.421,0,3.312,1.465,3.312,3.631v.637Zm1.784-3.121c-1.147,0-1.784.892-1.784,2.166H36.16c0-1.4-.446-2.166-1.338-2.166" transform="translate(-21.955 -16.17)"/><path class="b" d="M49.388,27.281c-1.083,0-1.338-.446-1.4-1.274a3.6,3.6,0,0,1-2.548,1.274c-1.21,0-2.038-.573-2.038-1.847,0-1.72,1.529-2.357,2.994-2.548.637-.127,1.274-.127,1.529-.191V21.675c0-.828-.318-1.083-1.656-1.083a6.645,6.645,0,0,0-2.038.318l-.318-1.4a7.478,7.478,0,0,1,2.8-.51c1.21,0,3.249.064,3.249,2.229V23.14l.127,2.612H51.3l.127.637a3.794,3.794,0,0,1-2.038.892m-1.465-3.567a7.123,7.123,0,0,0-1.21.191c-.828.191-1.4.51-1.4,1.147,0,.446.255.764.892.764a4.027,4.027,0,0,0,1.656-.446V23.714Z" transform="translate(-26.456 -16.134)"/><path class="b" d="M61.924,21.712c-.446-.573-1.274-1.338-1.911-1.338-1.274,0-1.975.7-1.975,2.866a2.249,2.249,0,0,0,2.421,2.548A10.223,10.223,0,0,0,62.37,25.6l.318,1.083a5.211,5.211,0,0,1-2.8.7c-2.866,0-3.886-1.21-3.886-4.2A4.057,4.057,0,0,1,60.077,19.1c1.147,0,2.675.255,2.675,1.21,0,.892-.255,1.21-.828,1.4" transform="translate(-31.03 -16.17)"/><path class="b" d="M76.646,25.62H72.7a3.365,3.365,0,0,1-.064-.828l.573-.255a.705.705,0,0,0,.318-.637V20.715c0-1.019-.064-1.72-1.274-1.72a5.517,5.517,0,0,0-2.038.382v4.586c0,.318.064.51.255.573l.828.255a3.114,3.114,0,0,1-.064.828h-4.14a3.1,3.1,0,0,1-.064-.764l.7-.255a.675.675,0,0,0,.382-.7l.064-2.229V15.81H66.9v-.892a12.706,12.706,0,0,1,2.612-.318c.446,0,.573.127.573.51v3.5a4.356,4.356,0,0,1,2.739-1.019c2.484,0,2.612,1.083,2.612,2.612v1.529l.064,2.484c0,.255.064.382.255.382l.892.191a1.818,1.818,0,0,1,0,.828" transform="translate(-34.987 -14.536)"/><path class="b" d="M94.034,18.184a1.261,1.261,0,0,0-1.274-1.21l-2.484-.064v3.631l4.013-.064v1.338l-4.013-.064v.255l.064,2.166c0,.318,0,.51.318.573l1.592.318a4.206,4.206,0,0,1-.064.892H86.964a3.632,3.632,0,0,1-.064-.828l.828-.255a.768.768,0,0,0,.51-.764l.064-2.229v-4.4a.689.689,0,0,0-.446-.7l-.892-.255a3.918,3.918,0,0,1,.064-.828H94.99v2.421a2.5,2.5,0,0,1-.955.064" transform="translate(-42.248 -14.936)"/><path class="b" d="M103.722,27.353c-2.421,0-3.822-1.21-3.822-3.949a4.241,4.241,0,0,1,3.949-4.2c2.612,0,3.886,1.338,3.886,4.077a4.133,4.133,0,0,1-4.013,4.077m-.064-6.943c-1.529,0-1.72,1.656-1.72,2.866,0,1.465.382,2.8,1.975,2.8,1.4,0,1.656-1.338,1.656-2.8,0-1.338-.255-2.866-1.911-2.866" transform="translate(-46.967 -16.206)"/><path class="b" d="M119.115,21.2a2.369,2.369,0,0,0-1.274-.318,2.871,2.871,0,0,0-1.592.382V23.24l.064,2.357c0,.255.064.318.191.382l1.72.382a1.889,1.889,0,0,1-.127.892h-5.032a4.57,4.57,0,0,1-.064-.828l.637-.255a.79.79,0,0,0,.573-.828l.064-2.1V20.374H113v-.955a16.385,16.385,0,0,1,2.548-.318c.318,0,.637.127.637.573v.637a2.592,2.592,0,0,1,2.1-1.147,2.677,2.677,0,0,1,1.4.318Z" transform="translate(-51.723 -16.17)"/><path class="b" d="M137.128,25.946H132.8a3.228,3.228,0,0,1-.127-.828l.892-.255a.689.689,0,0,0,.446-.7,1.084,1.084,0,0,0-.064-.446L133.37,22h-3.376l-.637,1.72a1.084,1.084,0,0,0-.064.446c0,.446.255.637.637.764l.955.255a3.632,3.632,0,0,1-.064.828h-3.758a3.1,3.1,0,0,1-.064-.764,2.557,2.557,0,0,0,.828-1.019l3.567-8.281,1.911-.446,3.249,8.6a2.556,2.556,0,0,0,.828,1.019,2.076,2.076,0,0,0-.255.828m-4.968-7.58-.318-1.21h-.127l-.382,1.147-.955,2.548h2.612Z" transform="translate(-56.805 -14.863)"/><path class="b" d="M148.223,25.583h-4.459a3.1,3.1,0,0,1-.064-.764l.828-.255c.318-.064.382-.318.382-.637l.064-2.293v-5.86H143.7v-.955a17.219,17.219,0,0,1,2.612-.318c.446,0,.7.127.7.637v6.5l.064,2.357c0,.255,0,.446.191.51l1.083.255c-.064.255-.064.573-.127.828" transform="translate(-62.867 -14.5)"/><path class="b" d="M156.123,25.583h-4.459a3.1,3.1,0,0,1-.064-.764l.828-.255c.318-.064.382-.318.382-.637l.064-2.293v-5.86H151.6v-.955a17.219,17.219,0,0,1,2.612-.318c.446,0,.7.127.7.637v6.5l.064,2.357c0,.255,0,.446.191.51l1.083.255" transform="translate(-65.735 -14.5)"/></g></g></svg>