<svg xmlns="http://www.w3.org/2000/svg" viewBox="0 0 84.043 83.447"><defs><style>.a{fill:#000206;}.a,.b,.c,.d,.e,.f,.g,.h,.i,.j,.k,.l,.m,.n,.o,.p,.q,.r,.s{fill-rule:evenodd;}.b{fill:#56c02b;}.c{fill:#dda63a;}.d{fill:#c5192d;}.e{fill:#4c9f38;}.f{fill:#3f7e44;}.g{fill:#fcc30b;}.h{fill:#ff3a21;}.i{fill:#fd9d24;}.j{fill:#0a97d9;}.k{fill:#a21942;}.l{fill:#26bde2;}.m{fill:#fd6925;}.n{fill:#e5243b;}.o{fill:#dd1367;}.p{fill:#19486a;}.q{fill:#bf8b2e;}.r{fill:#00689d;}.s{fill:#161617;}</style></defs><g transform="translate(0 -0.247)"><path class="a" d="M103.6,345.426h2.623v5.854H104.9v-1.2a1.666,1.666,0,0,1-1.767,1.325c-1.586,0-2.314-1.26-2.314-2.957v-5.3c0-1.713.825-2.959,2.769-2.959,2.039,0,2.638,1.132,2.638,2.75v.969h-1.684V342.79c0-.679-.26-1.066-.924-1.066s-.952.469-.952,1.132v5.884c0,.663.274,1.131.906,1.131.6,0,.905-.339.905-1.05v-1.94H103.6v-1.457" transform="translate(-82.071 -276.727)"/><path class="a" d="M134.687,340.9h1.846v9.458h2.2v1.5h-4.047V340.9" transform="translate(-109.642 -277.304)"/><path class="a" d="M163.41,348.754V342.87c0-.663-.292-1.133-.958-1.133-.647,0-.939.47-.939,1.133v5.884c0,.663.292,1.133.939,1.133.666,0,.958-.47.958-1.133m-3.743-.29v-5.3c0-1.713.843-2.956,2.785-2.956,1.959,0,2.8,1.243,2.8,2.956v5.3c0,1.7-.842,2.957-2.8,2.957-1.942,0-2.785-1.26-2.785-2.957m8.322-2.1v3.429h.81a.794.794,0,0,0,.907-.89v-1.648c0-.581-.275-.89-.923-.89Zm0-1.407h.648a.777.777,0,0,0,.876-.889v-1.342a.775.775,0,0,0-.891-.888h-.633Zm-1.845-4.622h2.671c1.847,0,2.462.856,2.462,2.407v1.116a1.6,1.6,0,0,1-1.1,1.747,1.664,1.664,0,0,1,1.376,1.827v1.455c0,1.553-.7,2.409-2.541,2.409h-2.866V340.332Zm8.111,7.484h1.473l-.727-4.4h-.017Zm-2.315,3.477,2.072-10.961h2.106l2.088,10.961h-1.9l-.341-2h-1.958l-.323,2Z" transform="translate(-129.976 -276.74)"/><path class="a" d="M262.593,340.9h1.846v9.458h2.2v1.5h-4.046V340.9" transform="translate(-213.763 -277.304)"/><path class="a" d="M299.066,345.426h2.622v5.854h-1.327v-1.2a1.664,1.664,0,0,1-1.765,1.325c-1.587,0-2.315-1.26-2.315-2.957v-5.3c0-1.713.825-2.959,2.768-2.959,2.04,0,2.64,1.132,2.64,2.75v.969h-1.683V342.79c0-.679-.261-1.066-.925-1.066s-.954.469-.954,1.132v5.884c0,.663.275,1.131.908,1.131.6,0,.906-.339.906-1.05v-1.94h-.873v-1.457m7.253,3.315v-5.884c0-.663-.294-1.133-.955-1.133s-.942.47-.942,1.133v5.884c0,.663.292,1.133.942,1.133s.955-.47.955-1.133m-3.741-.29v-5.3c0-1.713.841-2.956,2.785-2.956s2.8,1.243,2.8,2.956v5.3c0,1.7-.841,2.957-2.8,2.957s-2.785-1.26-2.785-2.957m8.257-.648h1.473l-.729-4.4h-.016Zm-2.316,3.477,2.072-10.961H312.7l2.089,10.961h-1.9l-.34-2h-1.959l-.325,2Z" transform="translate(-241.187 -276.727)"/><path class="a" d="M399.014,340.9h1.845v9.458h2.2v1.5h-4.049V340.9" transform="translate(-324.816 -277.304)"/><g transform="translate(0 63.46)"><path class="a" d="M423.484,8.922V7.449H425.2v1.5c0,.615.277.97.908.97.582,0,.841-.388.841-.97V8.533a1.977,1.977,0,0,0-.826-1.552L425.037,5.9c-1.051-1.035-1.536-1.666-1.536-2.926V2.6a2.289,2.289,0,0,1,2.59-2.41c1.846,0,2.575.908,2.575,2.491v.891h-1.684V2.616c0-.631-.291-.939-.873-.939a.81.81,0,0,0-.876.906v.225c0,.616.341.97.876,1.488l1.182,1.164c1,1.019,1.489,1.635,1.489,2.847V8.84a2.375,2.375,0,0,1-2.688,2.57,2.283,2.283,0,0,1-2.606-2.489" transform="translate(-344.736 -0.189)"/><path class="a" d="M0,.9H4.9V2.4H3.382v9.458H1.521V2.4H0V.9" transform="translate(0 -0.765)"/></g><path class="a" d="M33.748,347.024h-1.78v4.833H30.123V340.9h1.845v4.64h1.78V340.9H35.61v10.961H33.748v-4.833" transform="translate(-24.522 -277.304)"/><path class="a" d="M64.421,340.9h4.4v1.5H66.268v3.136H68.1v1.488H66.268v3.33h2.557v1.5h-4.4V340.9" transform="translate(-52.442 -277.304)"/><path class="b" d="M102,54.259a15.942,15.942,0,0,1,2.512-3.232l-8.238-9.034a28.194,28.194,0,0,0-5.23,6.808L102,54.259" transform="translate(-74.117 -33.983)"/><path class="c" d="M258.577,23.626a15.727,15.727,0,0,1,3.455,2.164l8.262-9.02a28.127,28.127,0,0,0-7.322-4.568l-4.395,11.424" transform="translate(-210.494 -9.732)"/><path class="d" d="M312.389,88.242,301.439,93.7a15.677,15.677,0,0,1,1.1,3.869l12.181-1.15a27.789,27.789,0,0,0-2.327-8.178" transform="translate(-245.385 -71.632)"/><path class="e" d="M286.578,55.457,297.527,50a28.154,28.154,0,0,0-5.116-6.793l-8.262,9.018a15.868,15.868,0,0,1,2.43,3.233" transform="translate(-231.311 -34.971)"/><path class="f" d="M84.744,142.929c0-.246.008-.492.019-.737L72.58,141.1c-.038.6-.062,1.214-.062,1.828a28.058,28.058,0,0,0,.83,6.777l11.767-3.376a15.809,15.809,0,0,1-.37-3.4" transform="translate(-59.033 -114.662)"/><path class="g" d="M275.96,204.783a15.991,15.991,0,0,1-2.971,2.8l6.433,10.415a28.255,28.255,0,0,0,6.3-5.85l-9.761-7.36" transform="translate(-222.226 -166.502)"/><path class="h" d="M306.665,143.4a15.652,15.652,0,0,1-.362,3.362l11.765,3.38a27.945,27.945,0,0,0,.823-6.742q0-.866-.055-1.72l-12.182,1.15c.007.191.011.38.011.57" transform="translate(-249.345 -115.133)"/><path class="i" d="M115.98,206.035l-9.738,7.4A28.248,28.248,0,0,0,112.6,219.2l6.432-10.4a15.938,15.938,0,0,1-3.053-2.758" transform="translate(-86.486 -167.521)"/><path class="j" d="M85.944,96.458a15.625,15.625,0,0,1,1.167-3.925L76.166,87.08a27.832,27.832,0,0,0-2.416,8.285l12.194,1.094" transform="translate(-60.036 -70.686)"/><path class="k" d="M255.005,235.356l-6.423-10.4a15.743,15.743,0,0,1-3.749,1.523L247.1,238.51a27.817,27.817,0,0,0,7.905-3.154" transform="translate(-199.305 -182.923)"/><path class="l" d="M296.3,178.172a15.818,15.818,0,0,1-1.71,3.521l9.769,7.368a27.9,27.9,0,0,0,3.7-7.511L296.3,178.172" transform="translate(-239.807 -144.839)"/><path class="m" d="M207.565,235.035a15.664,15.664,0,0,1-4.119.057l-2.266,12.032a28.149,28.149,0,0,0,8.65-.068l-2.265-12.022" transform="translate(-163.77 -191.128)"/><path class="n" d="M228.692,12.537a15.69,15.69,0,0,1,3.911.755L237,1.872A27.84,27.84,0,0,0,228.692.3V12.537" transform="translate(-186.166 -0.043)"/><path class="o" d="M158.841,227.3a15.711,15.711,0,0,1-3.88-1.467l-6.436,10.409a27.894,27.894,0,0,0,8.052,3.078l2.263-12.019" transform="translate(-120.907 -183.638)"/><path class="p" d="M178.347,13.193a15.651,15.651,0,0,1,3.993-.71V.247a27.908,27.908,0,0,0-8.417,1.533l4.424,11.412" transform="translate(-141.581 0)"/><path class="q" d="M93.209,182.114a15.722,15.722,0,0,1-1.865-3.737l-11.759,3.374a27.915,27.915,0,0,0,3.884,7.764l9.739-7.4" transform="translate(-64.787 -145.006)"/><path class="r" d="M134.508,25.353A15.829,15.829,0,0,1,137.9,23.3L133.476,11.9a28.022,28.022,0,0,0-7.212,4.417l8.244,9.041" transform="translate(-102.785 -9.482)"/><path class="s" d="M9.147,415.168H6.962V417.6H6.5v-5.089H9.385v.427H6.962v1.8H9.147v.427" transform="translate(-5.292 -335.605)"/><path class="s" d="M26.568,414.267c-.9,0-.95.576-.95,1.343s.054,1.344.95,1.344.95-.577.95-1.344S27.45,414.267,26.568,414.267Zm0,3.107c-1.161,0-1.425-.725-1.425-1.764s.264-1.764,1.425-1.764,1.425.726,1.425,1.764-.258,1.764-1.425,1.764Zm4.1-3.053a1.28,1.28,0,0,0-.407-.055,1.839,1.839,0,0,0-.984.216v2.823h-.475v-3.393h.265l.1.284a1.848,1.848,0,0,1,1.093-.352,2.461,2.461,0,0,1,.407.035v.441m2.143-.748c0,.727.42.794,1.221.9,1,.13,1.615.373,1.615,1.37,0,.693-.366,1.534-1.88,1.534a4.193,4.193,0,0,1-1.425-.271v-.441a3.831,3.831,0,0,0,1.432.284c1.058,0,1.377-.494,1.377-1.106,0-.726-.3-.868-1.147-.976-1.2-.15-1.662-.428-1.662-1.3,0-.59.285-1.418,1.71-1.418a3.155,3.155,0,0,1,1.323.237v.455a3.09,3.09,0,0,0-1.33-.265c-1,0-1.235.462-1.235,1m4.084,2.8c0,.441.257.577.679.577a1.626,1.626,0,0,0,.915-.218v-2.822h.475v3.393H38.7l-.1-.285a1.691,1.691,0,0,1-1.024.353c-.809,0-1.154-.367-1.154-1.018v-2.443H36.9v2.463m4.084-1.018c.963.087,1.2.414,1.2.97,0,.522-.333,1.045-1.365,1.045a3.332,3.332,0,0,1-1.011-.17V416.8a2.974,2.974,0,0,0,1.018.156c.706,0,.9-.3.9-.618s-.095-.529-.767-.583c-.984-.089-1.188-.434-1.188-.9s.313-1,1.27-1a2.537,2.537,0,0,1,.976.17v.408a2.793,2.793,0,0,0-.984-.156c-.671,0-.815.25-.815.583,0,.3.122.455.774.509m3.752,1.988a1.5,1.5,0,0,1-.305.027c-.563,0-1.086-.258-1.086-.922v-2.165h-.678v-.21l.678-.2v-.917l.475-.136v1.086H44.87v.373H43.818V416.4c0,.414.224.584.652.584.088,0,.176-.007.264-.014v.38m1.852-1.757c-.483.047-.693.3-.693.691,0,.306.075.672.719.672a1.64,1.64,0,0,0,.9-.271V415.5Zm.121-1.323a2.982,2.982,0,0,0-1.017.169v-.407a2.733,2.733,0,0,1,1.017-.183c1.018,0,1.283.461,1.283,1.14v2.32h-.264l-.1-.271a1.781,1.781,0,0,1-1.025.339,1.032,1.032,0,0,1-1.187-1.093c0-.576.318-1,1.207-1.058l.9-.055v-.19c0-.495-.176-.711-.807-.711Zm2.273,2.361v-2.714h.461v2.768c0,.237.074.306.285.306v.386C49.238,417.375,48.98,417.171,48.98,416.628Zm.231-4.07a.339.339,0,1,1-.34.339.335.335,0,0,1,.34-.339Zm3.358,2.286c0-.441-.258-.576-.678-.576a1.634,1.634,0,0,0-.917.216v2.823H50.5v-3.393h.265l.1.284a1.7,1.7,0,0,1,1.025-.352c.807,0,1.153.367,1.153,1.018v2.442H52.57v-2.463m2.394.747c-.482.047-.692.3-.692.691,0,.306.075.672.719.672a1.643,1.643,0,0,0,.9-.271V415.5Zm.122-1.323a2.983,2.983,0,0,0-1.018.169v-.407a2.738,2.738,0,0,1,1.018-.183c1.018,0,1.282.461,1.282,1.14v2.32H56.1l-.1-.271a1.779,1.779,0,0,1-1.025.339,1.032,1.032,0,0,1-1.187-1.093c0-.576.318-1,1.207-1.058l.9-.055v-.19c0-.495-.176-.711-.807-.711Zm2.638.216v2.252a1.789,1.789,0,0,0,.95.218c.814,0,.916-.672.916-1.344s-.1-1.343-.916-1.343A1.793,1.793,0,0,0,57.724,414.484Zm2.341,1.126c0,.978-.3,1.764-1.391,1.764a1.944,1.944,0,0,1-1.059-.346l-.1.278H57.25v-5.089h.474v1.907a1.769,1.769,0,0,1,.95-.279c1.092,0,1.391.788,1.391,1.764Zm.922,1.018v-4.41h.462v4.465c0,.237.075.306.284.306v.386c-.488,0-.746-.2-.746-.746m1.926-1.187h1.764c0-.6-.034-1.174-.813-1.174S62.934,414.83,62.914,415.441Zm.951-1.6c1.153,0,1.288.788,1.288,1.764v.218H62.914c.028.59.183,1.126.951,1.126a2.592,2.592,0,0,0,1.119-.19v.407a2.749,2.749,0,0,1-1.119.2c-1.147,0-1.425-.787-1.425-1.764s.278-1.764,1.425-1.764Zm3.784,3.033h.95c1.221,0,1.629-.9,1.629-2.116s-.408-2.117-1.629-2.117h-.95Zm-.46.428v-5.089h1.383c1.663,0,2.144,1.1,2.144,2.545s-.481,2.544-2.144,2.544Zm4.782-1.865h1.764c0-.6-.034-1.174-.814-1.174S71.99,414.83,71.97,415.441Zm.95-1.6c1.153,0,1.289.788,1.289,1.764v.218H71.97c.027.59.184,1.126.95,1.126a2.6,2.6,0,0,0,1.12-.19v.407a2.757,2.757,0,0,1-1.12.2c-1.147,0-1.425-.787-1.425-1.764s.277-1.764,1.425-1.764Z" transform="translate(-20.468 -335.308)"/><path class="s" d="M291.9,421.637l.97,2.782.97-2.782h.522l-1.323,3.46H292.7l-1.323-3.46h.522" transform="translate(-237.194 -343.031)"/><path class="s" d="M309.908,415.738h1.764c0-.6-.033-1.174-.814-1.174S309.929,415.127,309.908,415.738Zm.95-1.6c1.154,0,1.289.788,1.289,1.764v.218h-2.239c.027.59.184,1.126.95,1.126a2.6,2.6,0,0,0,1.12-.19v.407a2.752,2.752,0,0,1-1.12.2c-1.147,0-1.425-.787-1.425-1.764s.278-1.764,1.425-1.764Zm2.212,2.782v-4.41h.461v4.465c0,.237.075.306.285.306v.386c-.488,0-.746-.2-.746-.746" transform="translate(-251.893 -335.605)"/><g transform="translate(62.628 78.538)"><path class="s" d="M2.219.692c-.9,0-.95.576-.95,1.343s.054,1.344.95,1.344.949-.577.949-1.344S3.1.692,2.219.692Zm0,3.107C1.059,3.8.794,3.074.794,2.035S1.059.271,2.219.271,3.644,1,3.644,2.035,3.386,3.8,2.219,3.8ZM6.8,2.035c0-.672-.1-1.343-.916-1.343a1.789,1.789,0,0,0-.95.216V3.161a1.785,1.785,0,0,0,.95.218C6.7,3.379,6.8,2.707,6.8,2.035ZM4.932,3.521V5.427H4.457V.339h.265l.1.278A1.947,1.947,0,0,1,5.882.271c1.092,0,1.391.788,1.391,1.764S6.974,3.8,5.882,3.8a1.773,1.773,0,0,1-.95-.278Z" transform="translate(-0.794 -0.271)"/></g><path class="s" d="M380.013,417.812c0-.441-.258-.576-.644-.576a1.752,1.752,0,0,0-.923.223,1.421,1.421,0,0,1,.041.353v2.463h-.475v-2.463c0-.441-.258-.576-.644-.576a1.711,1.711,0,0,0-.882.2v2.836h-.475v-3.393h.264l.1.278a1.709,1.709,0,0,1,.991-.346,1.071,1.071,0,0,1,.949.386,1.9,1.9,0,0,1,1.052-.386c.726,0,1.119.34,1.119,1.018v2.442h-.475v-2.463m1.729.6h1.764c0-.6-.033-1.174-.814-1.174S381.763,417.8,381.742,418.41Zm.95-1.6c1.153,0,1.289.787,1.289,1.764v.218h-2.239c.028.59.184,1.126.95,1.126a2.6,2.6,0,0,0,1.12-.19v.407a2.752,2.752,0,0,1-1.12.2c-1.147,0-1.425-.787-1.425-1.764s.278-1.764,1.425-1.764Zm4.171,1c0-.441-.258-.576-.678-.576a1.627,1.627,0,0,0-.915.216v2.823h-.476v-3.393h.265l.1.284a1.694,1.694,0,0,1,1.024-.352c.807,0,1.154.367,1.154,1.018v2.442h-.475v-2.463m3.087,2.5a1.5,1.5,0,0,1-.305.027c-.563,0-1.086-.258-1.086-.922v-2.165h-.678v-.21l.678-.2v-.917l.475-.136v1.086h1.052v.373h-1.052v2.111c0,.414.224.584.652.584.088,0,.176-.007.264-.014v.38" transform="translate(-306.091 -338.277)"/></g></svg>