<svg xmlns="http://www.w3.org/2000/svg" viewBox="0 0 111 30.209"><defs><style>.a{fill:#12466b;}.b{fill:#c84028;}</style></defs><g transform="translate(-14 -17.79)"><path class="a" d="M73.825,18.295v4.294h5.109V18.295H83.16V30.007H78.933V25.524H73.825v4.483H69.591V18.295Zm-12.156,9.47a3.662,3.662,0,0,0,2.369-.794,2.309,2.309,0,0,0,.848-1.164l4.039.411a4.981,4.981,0,0,1-.673,1.454c-1.387,2.147-4.039,2.746-6.63,2.746a11.14,11.14,0,0,1-3.365-.444,5.825,5.825,0,0,1-4.389-5.809c0-2.275,1.2-6.374,7.855-6.374,5.715,0,6.6,2.585,6.98,3.689l-3.884.673a2.565,2.565,0,0,0-1.01-1.144,3.816,3.816,0,0,0-2.019-.538,3.419,3.419,0,0,0-3.567,3.662,3.358,3.358,0,0,0,3.44,3.635m-15.4-2.241h2.692l-1.346-3.978Zm3.722-7.229,5.075,11.712H50.482l-.633-1.9H45.38l-.633,1.9H40.17l5.021-11.712Zm-10,2.618H31.837v1.925h7.545V25.49H31.837v1.864H40.17v2.652H27.637V18.295H39.981Zm-13.462,0H22.4v9.094H18.166V20.913H14V18.261H26.533Z"/><path class="b" d="M152.965,23.543c.613,0,1.656,0,1.656-1.01a.942.942,0,0,0-.31-.734,1.42,1.42,0,0,0-1.037-.337h-3.365v2.08Zm1.2-4.651a5.21,5.21,0,0,1,3.177.734,3.648,3.648,0,0,1,1.346,2.881,3.52,3.52,0,0,1-.734,2.167,3.217,3.217,0,0,1-1.9,1.043l2.847,4.557h-4.5l-2.322-4.133h-2.174v4.133H145.87V18.892Zm-16.646,9.242a3.709,3.709,0,0,0,1.622-.3,3.625,3.625,0,0,0,1.676-3.278,3.37,3.37,0,1,0-6.731,0,3.273,3.273,0,0,0,3.433,3.581m7.492-3.608a6.152,6.152,0,0,1-.821,3.09,4.961,4.961,0,0,1-1.346,1.528,8.332,8.332,0,0,1-5.452,1.528c-3.944,0-5.566-1.407-6.394-2.538a5.56,5.56,0,0,1-1.1-3.426,6.179,6.179,0,0,1,1.077-3.581c1.589-2.235,4.281-2.6,6.3-2.632a11.005,11.005,0,0,1,4.227.639,5.688,5.688,0,0,1,3.514,5.385M129.77,18.885v2.571H122.7V23.63h6.489v2.538H122.7v4.106H118.63V18.892Z" transform="translate(-34.204 -0.227)"/><path class="a" d="M115.218,50.028h3.143l-1.589-4.516Zm4.261-8.232L125.294,55.2h-5.237l-.72-2.2h-5.089l-.727,2.2h-5.27l5.775-13.395Zm-18.773,10.83a4.214,4.214,0,0,0,2.692-.9,2.632,2.632,0,0,0,.976-1.346l4.584.464a5.708,5.708,0,0,1-.747,1.669c-1.582,2.457-4.658,3.143-7.579,3.143a13.563,13.563,0,0,1-3.83-.5,6.655,6.655,0,0,1-5.055-6.643c0-2.6,1.346-7.3,8.993-7.3,6.536,0,7.545,2.962,7.976,4.22l-4.442.794a2.847,2.847,0,0,0-1.117-1.346,4.294,4.294,0,0,0-2.275-.613,3.917,3.917,0,0,0-4.113,4.207,3.835,3.835,0,0,0,3.938,4.153M90.623,55.2h-4.8V41.8h4.8ZM77.565,47.281c.727,0,1.952,0,1.952-1.225a1.238,1.238,0,0,0-.357-.868,1.831,1.831,0,0,0-1.232-.363H73.957v2.457ZM79.012,41.8a6.124,6.124,0,0,1,3.722.862,4.267,4.267,0,0,1,1.589,3.365,4.039,4.039,0,0,1-.868,2.524A3.911,3.911,0,0,1,81.2,49.819l3.365,5.344H79.248L76.508,50.29H73.944V55.2h-4.8V41.8Zm-11.544,3H58.126v2.2h8.6v3.036H58.086v2.134h9.538V55.2H53.334V41.8H67.469Zm-28.842-3,3.365,8.75,3.365-8.75h6.32V55.2H46.966V46.595L43.83,55.2H40.107L37,46.635V55.2H32.286V41.8Zm-16.76,8.232H25.01l-1.589-4.516ZM26.127,41.8,31.943,55.2H26.706l-.72-2.2h-5.1l-.72,2.2H14.9l5.775-13.395Z" transform="translate(-0.294 -7.656)"/></g></svg>