<svg xmlns="http://www.w3.org/2000/svg" viewBox="0 0 77.869 65.836"><defs><style>.a{fill:#cc2229;}.b{fill:#fff22d;}</style></defs><g transform="translate(-26.6 -36.7)"><path class="a" d="M424.7,330.72a21.3,21.3,0,1,1,21.292,20.92A21.108,21.108,0,0,1,424.7,330.72Z" transform="translate(-380.489 -261.018)"/><path d="M182.834,44.574c-1.27.717-2.752,1.278-4.083,2.123a27.489,27.489,0,0,0-10.98,12.741c-2.566.876-5.384,1.531-8.074,2.309C161.953,49.972,173.371,38.854,185,36.7c-.526,2.566-1.424,5.251-2.168,7.874ZM225.4,62.062c-2.566-.624-5.353-1.469-8.043-2.185-2.292-6.53-8.414-12.555-14.758-15.054L200.282,36.8c11.816,2.216,22.8,13.364,25.119,25.265ZM167.616,79.425c2.354,6.339,8.414,12.71,14.785,14.992l2.225,8.118c-11.661-2.247-22.8-13.586-25.026-25.362l8.016,2.252ZM200,102.536l2.137-8.025c6.308-2.34,12.59-8.339,14.939-14.771l8.012-2.309C223.082,89.078,211.6,100.381,200,102.536Z" transform="translate(-127.116)"/><path class="b" d="M263.056,123.909a28.888,28.888,0,0,0-6.313,3.53l.155-7.339Zm26.048,3.685a30.056,30.056,0,0,0-6.216-3.53l6.158-3.747C289.413,122.533,288.98,125.033,289.1,127.594Zm-32.728,0v.155a25.443,25.443,0,0,0-4.981,4.871l-1.858-6.963C251.828,126.28,254.085,126.939,256.376,127.594Zm38.08,5.309a34.064,34.064,0,0,0-5.043-5.092c2.287-.717,4.641-1.248,6.99-1.876l-1.947,6.968Zm-43.34,0a35.524,35.524,0,0,0-3.588,6.308c-1.27-2.062-2.442-4.185-3.619-6.308l.217-.062Zm50.857.376-3.8,6.246a32.579,32.579,0,0,0-3.557-6.37c2.318.155,4.946-.031,7.361.124Zm-51.1,32.228c-2.384-.155-4.981.031-7.268-.124l3.866-6.246a27.672,27.672,0,0,0,3.4,6.37Zm50.733.159h-7.3a26.459,26.459,0,0,0,3.588-6.277c1.234,2.092,2.566,4.154,3.712,6.277Zm-45.535,5.185-6.8,1.876c.372-2.247,1.239-4.654,1.858-6.963A30.74,30.74,0,0,0,256.066,170.85Zm39.965,2.026c-2.349-.407-4.672-1.248-6.99-1.876a26.62,26.62,0,0,0,5.043-5.03Zm-33.347,1.783-6.313,3.747v-7.339A29.748,29.748,0,0,0,262.684,174.659Zm19.832.093a29.453,29.453,0,0,0,6.216-3.53l-.062,7.339Z" transform="translate(-207.4 -79.711)"/><path d="M69.157,665.2l-3.747-5.839,2.358-.964,2.592,4.105,1.646-4.105,2.384.743-4.256,9.9-2.606-.327Zm7.211,3.605v-10.17h5.747l.447,2.15H78.89v1.765h2.623v2.15H78.89v1.955h3.986l-.624,2.15ZM89.423,658.4,94.9,668.526l-2.561.518-1.035-2.181H87.441l-1.022,2.181-2.446-.518L89.392,658.4Zm-1.38,6.583h2.694l-1.349-2.491Zm8.37-6.344H99.27c2.371,0,4.105.832,4.105,3.141a2.757,2.757,0,0,1-1.646,2.579l2.738,3.871-2.548.814-2.964-4.8h-.031v4.45l-2.517.239,0-10.29Zm2.522,4.994c1.079.075,1.924-.283,1.924-1.482,0-1.217-.889-1.407-1.924-1.363ZM33.9,661.439a3.323,3.323,0,0,0-1.854-.726,3.009,3.009,0,0,0,0,6.016,3.5,3.5,0,0,0,1.911-.756l-.31,2.7a4.92,4.92,0,0,1-1.778.372,5.037,5.037,0,0,1-5.273-5.291,5.148,5.148,0,0,1,5.26-5.353,3.927,3.927,0,0,1,1.659.327l.385,2.712ZM39.31,658.4v10.29l-2.517.239v-10.29l2.517-.239Zm2.132,2.553.637-2.314h6.932v2.314H46.569v7.737l-2.517.239v-7.976ZM53.811,665.2l-3.747-5.839,2.353-.964,2.592,4.105,1.646-4.105,2.384.743-4.251,9.9-2.606-.327,1.628-3.513Z" transform="translate(0 -594.197)"/></g></svg>