<svg xmlns="http://www.w3.org/2000/svg" viewBox="0 0 105.874 24.24"><path d="M22.268,8.021V4.1H0V8.021H9.126V22.47H0v3.9H22.268v-3.9H13.142V8.021Z" transform="translate(0 -3.126)"/><path d="M255.434,8V4.1H233V26.368h22.434v-3.9H237.016V17.195h14.378V13.3H237.016V8Z" transform="translate(-177.627 -3.126)"/><path d="M129.284,4.2H118.4V26.468h10.671c6.916-.071,11.669-4.919,11.669-11.17C140.739,9.1,136.081,4.366,129.284,4.2Zm-.19,18.418h-6.44v-.024h-.238V8.026h0V8h6.726a7.033,7.033,0,0,1,7.248,7.32A7,7,0,0,1,129.094,22.618Z" transform="translate(-90.262 -3.202)"/><path d="M354.739,0A12.181,12.181,0,0,0,342.5,12.12a12.24,12.24,0,0,0,24.478,0A12.181,12.181,0,0,0,354.739,0Zm0,20.058a7.938,7.938,0,1,1,8.009-7.938A7.967,7.967,0,0,1,354.739,20.058Z" transform="translate(-261.104)"/></svg>