<?xml version="1.0" encoding="UTF-8" standalone="no"?>
<svg
   xmlns:dc="http://purl.org/dc/elements/1.1/"
   xmlns:cc="http://creativecommons.org/ns#"
   xmlns:rdf="http://www.w3.org/1999/02/22-rdf-syntax-ns#"
   xmlns:svg="http://www.w3.org/2000/svg"
   xmlns="http://www.w3.org/2000/svg"
   id="svg8"
   version="1.1"
   viewBox="0 0 31.75 27.781"
   height="27.781mm"
   width="31.75mm">
  <defs
     id="defs2" />
  <metadata
     id="metadata5">
    <rdf:RDF>
      <cc:Work
         rdf:about="">
        <dc:format>image/svg+xml</dc:format>
        <dc:type
           rdf:resource="http://purl.org/dc/dcmitype/StillImage" />
        <dc:title></dc:title>
      </cc:Work>
    </rdf:RDF>
  </metadata>
  <g
     transform="translate(0,-269.219)"
     id="layer1">
    <g
       transform="matrix(0.97979694,0,0,0.97979694,0.32072353,5.7196801)"
       id="text12"
       style="font-style:normal;font-variant:normal;font-weight:normal;font-stretch:normal;font-size:31.74999809px;line-height:1.25;font-family:Lato;-inkscape-font-specification:Lato;letter-spacing:0px;word-spacing:0px;fill:#f9b0c3;fill-opacity:1;stroke:none;stroke-width:0.79374993"
       aria-label="ï„">
      <path
         id="path80"
         style="font-style:normal;font-variant:normal;font-weight:normal;font-stretch:normal;font-family:'Font Awesome 5 Free';-inkscape-font-specification:'Font Awesome 5 Free';fill:#f9b0c3;fill-opacity:1;stroke-width:0.79374993"
         d="m 28.773436,283.10962 c 0.806152,0 1.488281,0.31006 2.108398,0.86816 0.558106,0.62012 0.868164,1.30225 0.868164,2.1084 v 7.9375 c 0,0.86817 -0.310058,1.55029 -0.868164,2.1084 -0.620117,0.62012 -1.302246,0.86816 -2.108398,0.86816 h -7.9375 c -0.868164,0 -1.550293,-0.24804 -2.108398,-0.86816 -0.620117,-0.55811 -0.868164,-1.24023 -0.868164,-2.1084 v -14.88281 c 0,-1.73633 0.434082,-3.41064 1.302246,-4.96094 0.868164,-1.48828 2.108398,-2.72851 3.658691,-3.59668 1.488281,-0.86816 3.162598,-1.36425 4.960937,-1.36425 h 0.496094 c 0.37207,0 0.744141,0.18603 1.054199,0.43408 0.248047,0.31006 0.434082,0.68213 0.434082,1.0542 v 2.97656 c 0,0.43408 -0.186035,0.80615 -0.434082,1.0542 -0.310058,0.31006 -0.682129,0.43408 -1.054199,0.43408 h -0.496094 c -1.116211,0 -2.046386,0.43408 -2.790527,1.17822 -0.806152,0.80616 -1.178222,1.73633 -1.178222,2.79053 v 3.96875 z m -17.859374,0 c 0.806152,0 1.488281,0.31006 2.108398,0.86816 0.558106,0.62012 0.868164,1.30225 0.868164,2.1084 v 7.9375 c 0,0.86817 -0.310058,1.55029 -0.868164,2.1084 -0.620117,0.62012 -1.302246,0.86816 -2.108398,0.86816 H 2.9765623 c -0.868164,0 -1.5502929,-0.24804 -2.10839829,-0.86816 C 0.24804686,295.57397 0,294.89185 0,294.02368 v -14.88281 c 0,-1.73633 0.43408201,-3.41064 1.302246,-4.96094 0.868164,-1.48828 2.1083983,-2.72851 3.6586912,-3.59668 1.4882812,-0.86816 3.1625975,-1.36425 4.9609372,-1.36425 h 0.4960936 c 0.37207,0 0.744141,0.18603 1.054199,0.43408 0.248047,0.31006 0.434082,0.68213 0.434082,1.0542 v 2.97656 c 0,0.43408 -0.186035,0.80615 -0.434082,1.0542 -0.310058,0.31006 -0.682129,0.43408 -1.054199,0.43408 H 9.9218744 c -1.1162109,0 -2.0463866,0.43408 -2.7905272,1.17822 -0.8061523,0.80616 -1.1782226,1.73633 -1.1782226,2.79053 v 3.96875 z" />
    </g>
  </g>
</svg>
