<svg xmlns="http://www.w3.org/2000/svg" xmlns:xlink="http://www.w3.org/1999/xlink" viewBox="0 0 472.87 161.762"><defs><style>.a{fill:#fff;}.b{fill:#ff9491;}.c{fill:#b7222b;}.d{fill:#ef3934;}.e{fill:#efe93f;}.f{fill:#ecc031;}.g{fill:#f89f2f;}.h{fill:#3c1a0a;}.i{fill:#fffdf9;}.j{fill:#1b0602;}.k{fill:#9ecd51;}.l{fill:#f7f6d1;}.m{fill:#ece83e;}.n{fill:#000a15;}.o{fill:#001113;}.p{fill:#7da43f;}.q{fill:#3a95d2;}.r{fill:#feffff;}.s{fill:#51c4cd;}.t{fill:#56c3cd;}.u{filter:url(#a);}</style><filter id="a" x="0" y="0" width="472.87" height="161.762" filterUnits="userSpaceOnUse"><feOffset dy="3" input="SourceAlpha"/><feGaussianBlur stdDeviation="3" result="b"/><feFlood flood-opacity="0.2"/><feComposite operator="in" in2="b"/><feComposite in="SourceGraphic"/></filter></defs><g transform="translate(-483.567 -307)"><g class="u" transform="matrix(1, 0, 0, 1, 483.57, 307)"><path class="a" d="M5194.467,21831a71.878,71.878,0,0,1-103.078-.029,71.878,71.878,0,0,1-104.031-.969,71.882,71.882,0,1,1,0-98.24,71.876,71.876,0,0,1,104.031-.971,71.878,71.878,0,0,1,103.078-.029,71.881,71.881,0,1,1,0,100.238Z" transform="translate(-4854 -21703)"/></g><g transform="translate(507.787 328.832)"><ellipse class="b" cx="57.353" cy="55.077" rx="57.353" ry="55.077" transform="translate(0)"/><g transform="translate(19.853 21.89)"><path class="c" d="M100.007,21.252c5.557,9.7,3.031,18.679-2.021,27.654C92.177,59.58,83.84,68.313,74.747,76.56A79.345,79.345,0,0,1,65.905,83.6H65.4V27.559a19.808,19.808,0,0,1,7.578-11.4,19.576,19.576,0,0,1,25.008,2.668c.505.485,1.01,1.213,1.768,1.941.253,0,.253.243.253.485Z" transform="translate(-27.684 -12.652)"/><path class="d" d="M88.185,27.662V83.7a5.307,5.307,0,0,1-1.516-.97C74.292,73.267,63.682,62.594,55.6,49.252c-3.537-6.065-5.557-12.372-5.052-19.407A19.082,19.082,0,0,1,87.68,25.964C87.933,26.691,87.68,27.419,88.185,27.662Z" transform="translate(-50.47 -12.755)"/></g></g><g transform="translate(612.276 328.832)"><ellipse class="e" cx="57.354" cy="55.077" rx="57.354" ry="55.077" transform="translate(0)"/><g transform="translate(32.353 17.908)"><g transform="translate(0 0)"><path class="f" d="M66.58,149.779c.505-5.337-2.526-9.218-5.81-13.1a20.071,20.071,0,0,1-4.294-11.644c-.253-4.852-.253-9.946,1.263-14.8,3.031-9.7,10.61-16.01,21.472-16.5.758,0,1.768-.243,2.526-.243v56.279Q74.158,149.415,66.58,149.779Z" transform="translate(-56.35 -93.5)"/><path class="g" d="M66.4,149.537V93.5c6.315,0,11.873,1.7,16.672,5.822.253.243.758.485,1.01.728.253,1.456,1.768,2.426,2.526,3.639a27.616,27.616,0,0,1,4.042,14.555,50.668,50.668,0,0,1-.505,8.733,26.948,26.948,0,0,1-5.052,10.431c-2.779,3.639-5.3,7.277-5.3,11.887C75.241,149.537,70.947,149.537,66.4,149.537Z" transform="translate(-41.014 -93.5)"/><path class="h" d="M60.438,116.807q7.578-.364,15.157,0v20.134a46.56,46.56,0,0,0-5.81.243c-3.284-2.426-6.063-5.579-9.094-8.248-.505-.485-.253-.97-.253-1.456Z" transform="translate(-50.209 -60.528)"/><path class="i" d="M64.1,125.143a46.547,46.547,0,0,0,5.81-.243c1.516.485,2.779,0,4.294.243-1.263,2.668-3.537,3.639-6.315,3.4A4.84,4.84,0,0,1,64.1,125.143Z" transform="translate(-44.524 -48.729)"/><path class="j" d="M70.594,137.22c-1.516-.243-2.779.242-4.294-.243V116.6H79.688a8.893,8.893,0,0,1,.253,3.639v7.035a2.244,2.244,0,0,1-.505,1.7C76.657,131.64,73.878,134.551,70.594,137.22Z" transform="translate(-41.166 -60.563)"/></g></g></g><g transform="translate(715.669 329.079)"><path class="k" d="M57.354,0c31.675,0,57.354,24.659,57.354,55.077s-25.678,55.077-57.354,55.077S0,85.5,0,55.077,25.678,0,57.354,0Z" transform="translate(0 0)"/><g transform="translate(10.819 19.736)"><path class="l" d="M96.611,182.792c.505,1.213,1.516,1.7,2.274,2.426,2.779,2.668,2.779,3.154,0,5.822a3.562,3.562,0,0,0-1.516,3.639,2.749,2.749,0,0,0,2.779,2.668h3.284c1.768,0,2.526.97,2.526,2.668v7.52c0,1.941-.758,2.911-3.031,2.911-2.021,0-3.537.243-4.8,1.941a2.563,2.563,0,0,0,0,3.639,14.947,14.947,0,0,0,2.021,1.941c1.01,1.213,1.01,2.426,0,3.4C98.38,223.3,96.359,225,94.591,226.7c-1.516,1.456-2.526,1.456-4.042,0a5.156,5.156,0,0,0-4.8-1.941,2.749,2.749,0,0,0-2.779,2.668v.728c0,4.366-.253,4.366-4.8,4.366h-5.3c-2.273,0-3.031-.728-3.031-3.154,0-1.455,0-3.154-1.263-4.367-1.768-1.455-2.779-1.7-4.547,0l-1.768,1.7a3.166,3.166,0,0,1-2.021.97,2.582,2.582,0,0,1-1.768-.97c-1.768-1.7-3.789-3.4-5.557-5.337-1.516-1.456-1.516-2.426,0-3.881,1.263-1.456,3.031-2.426,3.031-4.609,0-1.7-.505-2.426-2.273-2.426H49.879c-1.768,0-2.779-.728-2.779-2.426v-7.763c0-1.7,1.01-2.426,2.779-2.426h3.537a4.2,4.2,0,0,0,3.284-1.941c.505-1.213-.253-1.941-1.01-2.911a23.372,23.372,0,0,0-2.526-2.426c-1.263-1.213-1.263-2.183,0-3.4l6.063-5.822a2.508,2.508,0,0,1,3.537,0l2.526,2.426a3.686,3.686,0,0,0,4.042.97c1.263-.485,1.263-1.7,1.263-2.911v-3.4c0-1.7,1.01-2.426,2.779-2.426H81.2c1.768,0,2.779.728,2.779,2.668v2.911a3.8,3.8,0,0,0,2.273,3.4c1.263.728,2.273-.243,3.031-.97a14.958,14.958,0,0,0,2.021-1.941c1.516-1.456,2.526-1.456,4.294,0l1.01.97c.253,0,.253.243.505.243h0c-1.01-.728-.758-.243-.505-.485Zm-1.768,21.59c0-9.461-8.083-17.466-17.935-17.466-10.1,0-18.441,7.763-18.441,17.223s8.084,17.223,17.935,17.466C86.76,221.605,94.843,214.085,94.843,204.382Z" transform="translate(-47.1 -176)"/><path class="m" d="M100.1,197.552a4.392,4.392,0,0,0,2.526-.728c1.516-.485,2.274,0,2.779,1.213.505,1.456,1.01,2.669,1.516,4.124.505,1.213,0,1.941-1.263,2.426-.505.243-1.01.243-1.516.485a2.528,2.528,0,0,0-1.263,2.183,1.625,1.625,0,0,0,1.263,1.7,5.573,5.573,0,0,1,1.263.728,1.417,1.417,0,0,1,.758,2.183l-2.273,4.366c-.505,1.213-1.516,1.456-2.779.728a3.763,3.763,0,0,0-1.768-.485c-2.021,0-3.031,1.213-2.526,3.154.758,2.668.758,2.668-1.768,3.4-1.263.485-2.273.728-3.537,1.213a1.7,1.7,0,0,1-2.526-1.213,3.318,3.318,0,0,0-1.263-1.941c-1.516-.728-2.273-.728-3.284.728-1.516,2.426-1.516,2.426-4.042,1.213a27.926,27.926,0,0,1-2.779-1.456c-1.768-.728-1.768-1.213-1.01-2.911.253-.485.505-.728.505-1.213a2.632,2.632,0,0,0-.758-2.426,1.97,1.97,0,0,0-2.021-.243c-.505.243-1.01.243-1.516.485a1.8,1.8,0,0,1-2.273-.97c-.505-1.7-1.263-3.154-1.768-4.852-.505-1.213.505-1.941,1.516-2.183a4.445,4.445,0,0,0,2.779-1.456,1.622,1.622,0,0,0-.505-2.426.244.244,0,0,1-.253-.243c-3.284-1.941-3.284-1.941-1.516-5.094,0-.243.253-.243.253-.485,1.768-3.4,1.516-3.639,5.3-1.941a2.8,2.8,0,0,0,2.779-.243c.758-.485.253-1.455,0-2.183-1.01-3.4-1.01-3.639,2.526-4.609.253,0,.505-.243.758-.243,3.537-1.213,3.537-1.213,5.052,2.183.505.97,1.01,1.7,2.021,1.7s1.263-.728,1.768-1.456c.253-.243.253-.485.505-.97,1.01-2.183,1.516-2.183,3.537-1.213,1.263.485,2.273,1.213,3.536,1.7,1.263.728,1.516,1.456,1.01,2.668-.505.97-1.263,1.941-.758,3.154C98.842,197.309,99.347,197.795,100.1,197.552Zm-23.745,8.976c0,6.307,5.052,11.159,11.62,11.4,6.315,0,11.873-5.094,11.873-11.159a11.411,11.411,0,0,0-11.62-11.4C81.664,195.369,76.359,200.22,76.359,206.527Z" transform="translate(-14.218 -159.466)"/><path class="n" d="M87.976,197.969c0,9.7-8.084,17.223-18.44,17.223-9.852,0-17.935-8.005-17.935-17.466,0-9.7,8.336-17.466,18.44-17.223C79.892,180.5,87.976,188.509,87.976,197.969ZM69.788,184.142a13.9,13.9,0,0,0-14.146,13.827c0,7.52,6.568,13.585,14.146,13.585a14.053,14.053,0,0,0,14.146-13.827A13.851,13.851,0,0,0,69.788,184.142Z" transform="translate(-40.233 -169.587)"/><path class="o" d="M71.705,201.964A11.282,11.282,0,0,1,83.578,190.8a11.411,11.411,0,0,1,11.62,11.4c0,6.065-5.557,11.159-11.873,11.159C76.757,213.365,71.453,208.271,71.705,201.964Zm11.62-8.733c-5.052,0-9.347,3.881-9.347,8.733a9.1,9.1,0,0,0,18.188,0C92.419,197.112,88.377,193.231,83.325,193.231Z" transform="translate(-9.563 -154.903)"/><path class="p" d="M67.2,182c7.831,0,14.146,6.065,14.4,13.342a14.053,14.053,0,0,1-14.146,13.827A13.851,13.851,0,0,1,53.3,195.585C53.052,188.307,59.367,182.243,67.2,182Z" transform="translate(-37.643 -167.445)"/><path class="p" d="M81.8,191.8a8.74,8.74,0,1,1-9.094,8.733C72.454,195.924,76.748,191.8,81.8,191.8Z" transform="translate(-8.038 -153.472)"/></g></g><g transform="translate(818.235 328.944)"><path class="q" d="M57.353,0c31.675,0,57.353,24.659,57.353,55.077s-25.678,55.077-57.353,55.077S0,85.5,0,55.077,25.678,0,57.353,0Z" transform="translate(0 0)"/><g transform="translate(21.136 19.37)"><path class="r" d="M85.181,315.418c-.758,0-1.01,0-.505.728.758.97,1.768,1.7,2.526,2.668v7.763a69.437,69.437,0,0,1-10.1-3.154c-4.042-1.941-8.083-3.881-11.367-6.792-6.82-5.579-12.125-12.129-13.893-20.862C48.3,277.332,57.9,261.807,77.35,256.713a34.933,34.933,0,0,1,10.1-1.213v57.977C87.454,315.175,86.949,315.66,85.181,315.418Z" transform="translate(-51.114 -255.242)"/><path class="s" d="M64.6,315.569c1.768.242,2.021-.485,2.021-2.183V255.409a38.021,38.021,0,0,1,25.261,8.248,4.409,4.409,0,0,1,1.263.97c.253,0,.253.243.505.243h0c.253.243.253.485.758.243h0c.505,1.213,1.768,2.183,2.526,3.154a26.309,26.309,0,0,1,6.568,17.223,26.043,26.043,0,0,1-9.347,20.134c-7.831,7.035-17.43,10.188-28.04,9.946A1.67,1.67,0,0,1,64.6,315.569Z" transform="translate(-30.533 -255.394)"/><path class="t" d="M65.4,289.463V281.7a71.172,71.172,0,0,0,14.651,9.461A44.031,44.031,0,0,1,65.4,289.463Z" transform="translate(-29.312 -217.886)"/></g></g></g></svg>