<svg xmlns="http://www.w3.org/2000/svg" xmlns:xlink="http://www.w3.org/1999/xlink" viewBox="0 0 234.912 234.912"><defs><style>.a{fill:#f8f8f8;}.b{fill:#d8deec;}.c{fill:#288fc9;}.d{fill:#5bd0fc;}.e,.l{fill:#fff;}.f{fill:#af7979;}.g{fill:#ffd2bb;}.h{fill:#f7b36f;}.i{fill:#ed6d66;}.j{fill:#94c668;}.k,.l{stroke:none;}.m{filter:url(#a);}</style><filter id="a" x="0" y="0" width="234.912" height="234.912" filterUnits="userSpaceOnUse"><feOffset dy="3" input="SourceAlpha"/><feGaussianBlur stdDeviation="3" result="b"/><feFlood flood-opacity="0.302"/><feComposite operator="in" in2="b"/><feComposite in="SourceGraphic"/></filter></defs><g transform="translate(-1025 -5120)"><g class="m" transform="matrix(1, 0, 0, 1, 1025, 5120)"><g class="a" transform="translate(9 6)"><path class="k" d="M 108.4557876586914 215.9115600585938 C 101.1643981933594 215.9115600585938 93.87786865234375 215.1770629882812 86.79864501953125 213.7284240722656 C 79.89981842041016 212.3167266845703 73.11392974853516 210.2102661132812 66.62945556640625 207.4675598144531 C 60.26248168945312 204.7745666503906 54.12145614624023 201.4413146972656 48.37692642211914 197.5603942871094 C 42.68675994873047 193.7161712646484 37.3359260559082 189.3013458251953 32.47306442260742 184.4385070800781 C 27.61023139953613 179.5756530761719 23.19539833068848 174.2248229980469 19.35117721557617 168.5346527099609 C 15.47025966644287 162.7901153564453 12.1370096206665 156.6490936279297 9.444009780883789 150.2821197509766 C 6.701315402984619 143.7976531982422 4.59484338760376 137.0117645263672 3.183148860931396 130.1129302978516 C 1.734509825706482 123.0337066650391 1.000009894371033 115.7471771240234 1.000009894371033 108.4557876586914 C 1.000009894371033 101.1643981933594 1.734509825706482 93.87786865234375 3.183148860931396 86.79864501953125 C 4.59484338760376 79.89981842041016 6.701315402984619 73.11392974853516 9.444009780883789 66.62945556640625 C 12.1370096206665 60.26248168945312 15.47025966644287 54.12145614624023 19.35117721557617 48.37692642211914 C 23.19539833068848 42.68675994873047 27.61023139953613 37.3359260559082 32.47306442260742 32.47306442260742 C 37.3359260559082 27.61023139953613 42.68675994873047 23.19539833068848 48.37692642211914 19.35117721557617 C 54.12145614624023 15.47025966644287 60.26248168945312 12.1370096206665 66.62945556640625 9.444009780883789 C 73.11392974853516 6.701315402984619 79.89981842041016 4.59484338760376 86.79864501953125 3.183148860931396 C 93.87786865234375 1.734509825706482 101.1643981933594 1.000009894371033 108.4557876586914 1.000009894371033 C 115.7471771240234 1.000009894371033 123.0337066650391 1.734509825706482 130.1129302978516 3.183148860931396 C 137.0117645263672 4.59484338760376 143.7976531982422 6.701315402984619 150.2821197509766 9.444009780883789 C 156.6490936279297 12.1370096206665 162.7901153564453 15.47025966644287 168.5346527099609 19.35117721557617 C 174.2248229980469 23.19539833068848 179.5756530761719 27.61023139953613 184.4385070800781 32.47306442260742 C 189.3013458251953 37.3359260559082 193.7161712646484 42.68675994873047 197.5603942871094 48.37692642211914 C 201.4413146972656 54.12145614624023 204.7745666503906 60.26248168945312 207.4675598144531 66.62945556640625 C 210.2102661132812 73.11392974853516 212.3167266845703 79.89981842041016 213.7284240722656 86.79864501953125 C 215.1770629882812 93.87786865234375 215.9115600585938 101.1643981933594 215.9115600585938 108.4557876586914 C 215.9115600585938 115.7471771240234 215.1770629882812 123.0337066650391 213.7284240722656 130.1129302978516 C 212.3167266845703 137.0117645263672 210.2102661132812 143.7976531982422 207.4675598144531 150.2821197509766 C 204.7745666503906 156.6490936279297 201.4413146972656 162.7901153564453 197.5603942871094 168.5346527099609 C 193.7161712646484 174.2248229980469 189.3013458251953 179.5756530761719 184.4385070800781 184.4385070800781 C 179.5756530761719 189.3013458251953 174.2248229980469 193.7161712646484 168.5346527099609 197.5603942871094 C 162.7901153564453 201.4413146972656 156.6490936279297 204.7745666503906 150.2821197509766 207.4675598144531 C 143.7976531982422 210.2102661132812 137.0117645263672 212.3167266845703 130.1129302978516 213.7284240722656 C 123.0337066650391 215.1770629882812 115.7471771240234 215.9115600585938 108.4557876586914 215.9115600585938 Z"/><path class="l" d="M 108.4557876586914 2 C 101.2315826416016 2 94.01251983642578 2.727676391601562 86.99911499023438 4.162811279296875 C 80.16496276855469 5.561294555664062 73.44270324707031 7.647994995117188 67.01899719238281 10.364990234375 C 60.71148681640625 13.03285217285156 54.62773132324219 16.33502197265625 48.93672180175781 20.17979431152344 C 43.29928588867188 23.98837280273438 37.99801635742188 28.36235046386719 33.18017578125 33.18017578125 C 28.36235046386719 37.99801635742188 23.98837280273438 43.29928588867188 20.17979431152344 48.93672180175781 C 16.33502197265625 54.62773132324219 13.03285217285156 60.71148681640625 10.364990234375 67.01899719238281 C 7.647994995117188 73.44270324707031 5.561294555664062 80.16496276855469 4.162811279296875 86.99911499023438 C 2.727676391601562 94.01251983642578 2 101.2315826416016 2 108.4557876586914 C 2 115.6799926757812 2.727676391601562 122.899055480957 4.162811279296875 129.9124603271484 C 5.561294555664062 136.7466125488281 7.647994995117188 143.4688720703125 10.364990234375 149.892578125 C 13.03285217285156 156.2000732421875 16.33502197265625 162.2838439941406 20.17979431152344 167.974853515625 C 23.98837280273438 173.6122894287109 28.36235046386719 178.9135437011719 33.18017578125 183.7314147949219 C 37.99801635742188 188.5492248535156 43.29928588867188 192.9232025146484 48.93672180175781 196.7317810058594 C 54.62773132324219 200.5765533447266 60.71148681640625 203.8787231445312 67.01899719238281 206.5465850830078 C 73.44270324707031 209.2635803222656 80.16496276855469 211.3502807617188 86.99911499023438 212.7487640380859 C 94.01251983642578 214.1838989257812 101.2315826416016 214.9115753173828 108.4557876586914 214.9115753173828 C 115.6799926757812 214.9115753173828 122.899055480957 214.1838989257812 129.9124603271484 212.7487640380859 C 136.7466125488281 211.3502807617188 143.4688720703125 209.2635803222656 149.892578125 206.5465850830078 C 156.2000732421875 203.8787231445312 162.2838439941406 200.5765533447266 167.974853515625 196.7317810058594 C 173.6122894287109 192.9232025146484 178.9135437011719 188.5492248535156 183.7314147949219 183.7314147949219 C 188.5492248535156 178.9135437011719 192.9232025146484 173.6122894287109 196.7317810058594 167.974853515625 C 200.5765533447266 162.2838439941406 203.8787231445312 156.2000732421875 206.5465850830078 149.892578125 C 209.2635803222656 143.4688720703125 211.3502807617188 136.7466125488281 212.7487640380859 129.9124603271484 C 214.1838989257812 122.899055480957 214.9115753173828 115.6799926757812 214.9115753173828 108.4557876586914 C 214.9115753173828 101.2315826416016 214.1838989257812 94.01251983642578 212.7487640380859 86.99911499023438 C 211.3502807617188 80.16496276855469 209.2635803222656 73.44270324707031 206.5465850830078 67.01899719238281 C 203.8787231445312 60.71148681640625 200.5765533447266 54.62773132324219 196.7317810058594 48.93672180175781 C 192.9232025146484 43.29928588867188 188.5492248535156 37.99801635742188 183.7314147949219 33.18017578125 C 178.9135437011719 28.36235046386719 173.6122894287109 23.98837280273438 167.974853515625 20.17979431152344 C 162.2838439941406 16.33502197265625 156.2000732421875 13.03285217285156 149.892578125 10.364990234375 C 143.4688720703125 7.647994995117188 136.7466125488281 5.561294555664062 129.9124603271484 4.162811279296875 C 122.899055480957 2.727676391601562 115.6799926757812 2 108.4557876586914 2 M 108.4557876586914 0 C 168.3542633056641 0 216.9115753173828 48.55731201171875 216.9115753173828 108.4557876586914 C 216.9115753173828 168.3542633056641 168.3542633056641 216.9115753173828 108.4557876586914 216.9115753173828 C 48.55731201171875 216.9115753173828 0 168.3542633056641 0 108.4557876586914 C 0 48.55731201171875 48.55731201171875 0 108.4557876586914 0 Z"/></g></g><g transform="translate(1085 5186.201)"><path class="b" d="M156.738,287l.178.3,3.027,6.735,1.977-8.56-3.084-3.158Zm0,0" transform="translate(-121.829 -219.052)"/><path class="b" d="M124.869,286.259l-2.005-4.235-3.434,4.247.1.338c.753,2.492,1.563,5.006,2.406,7.475l.671,1.962,2.756-9.094-.247-.279A1.826,1.826,0,0,1,124.869,286.259Zm0,0" transform="translate(-92.83 -218.821)"/><path class="c" d="M166.843,248.253l5.428-3.212-4.555-14.861L159.5,265.8l1.175.565,10.859-13.731-4.709-4.194a.122.122,0,0,1-.04-.1A.118.118,0,0,1,166.843,248.253Zm0,0" transform="translate(-123.976 -178.524)"/><path class="c" d="M81.643,236.946l-.513-2.161-5.638,15.384,6.034.782A.113.113,0,0,1,81.6,251a.118.118,0,0,1,.023.091.115.115,0,0,1-.1.1l-.146.015-.126.075a9.9,9.9,0,0,0-2.041,2.17c-.139.173-.282.349-.358.434l-3.069,3.363.445.452a124.681,124.681,0,0,0,15.157,13.416l1.916,1.4-.9-2.193A223.313,223.313,0,0,1,81.643,236.946Zm0,0" transform="translate(-58.678 -182.104)"/><path class="d" d="M81.717,259.006c-.043-3.609-.088-7.341-1.286-10.822-1.886-5.471-6.162-9.461-12-13.768l-1.628-1.2,4.352,14.206a.116.116,0,0,1-.053.137l-5.369,3.176,4.672,4.16a.118.118,0,0,1,.014.163l-13.048,16.5a.119.119,0,0,1-.095.047.121.121,0,0,1-.083-.037l-.07-.1-.1-.07a119.461,119.461,0,0,1-17.561-15.29.116.116,0,0,1,0-.161l3.149-3.453c.044-.05.138-.164.248-.3l.1-.12c.435-.536.766-.929,1.043-1.237l.85-.947-5.607-.724a.121.121,0,0,1-.089-.062.116.116,0,0,1-.008-.1l5.785-15.782-1.834,1.42q-2.054,1.589-4,3.086c-1.8,1.38-4.033,3.1-6.308,4.879a10.919,10.919,0,0,0-2.608,2.558c-1.121,1.75-1.147,3.919-1.067,6.367l.94,28.7c.06,1.817.205,3.545,1.309,4.716,1.192,1.264,3.11,1.439,5.006,1.439l.348,0,1.73-.015-.928-22.474a.117.117,0,0,1,.122-.123.119.119,0,0,1,.116.113l.931,22.482,33.685-.29.209-23.372a.119.119,0,0,1,.2-.084.118.118,0,0,1,.035.085L72.6,286.075l3.9-.035c1.973-.017,3.93-.23,4.882-1.657a5.537,5.537,0,0,0,.594-3.19Zm0,0" transform="translate(-22.604 -180.884)"/><path class="e" d="M145.108,363.436c.512,1.309.974,2.466,1.414,3.538l.8,1.943,2.182-9.461-4.576,3.512Zm0,0" transform="translate(-112.648 -279.009)"/><path class="e" d="M134.117,325.489l.157.443c.36,1.012.663,1.846.952,2.625l.3.822,5.984-4.3.386-.069.622-2.7L141.3,319.6Zm0,0" transform="translate(-104.246 -248.027)"/><path class="e" d="M138.888,302.458c-.064.009-.128.017-.19.019l-.017,0h-.536l-1.73,5.706,5.635-4.466-.709-1.575Zm0,0" transform="translate(-106.032 -234.458)"/><path class="e" d="M115.1,245.217l-.5.057h-.807a10.393,10.393,0,0,1-8-4.462l-1.2.538c.922,3.852,1.964,7.735,3.094,11.541l.362,1.216,6.443-7.967,1.634,1.674-.208.275-3.834,3.879,1.062,2.236,4.965-4.358,3.161,3.237,2.909-12.617-1.235-.473A10.565,10.565,0,0,1,115.1,245.217Zm0,0" transform="translate(-81.298 -186.152)"/><path class="f" d="M92.226,55.241a6.35,6.35,0,0,1-1.235-1.785,6.236,6.236,0,0,1-.334-2.058l-.667.033.666-.059c-.011-.232-.023-.465-.044-.7-.321-3.647-3.047-7.126-6.944-8.864A18.537,18.537,0,0,0,76,40.34,32.051,32.051,0,0,0,72,40.608a22.084,22.084,0,0,0-7.493,2.1,11.621,11.621,0,0,0-5.4,5.4c-.218.49-.393.994-.566,1.489a12.206,12.206,0,0,1-.948,2.238,12.452,12.452,0,0,1-1.817,2.219c-.452.469-.826.863-1.175,1.3a9.9,9.9,0,0,0,1.009,13.472.4.4,0,0,1,.023.038l.218.4.449-.054c.325-.039.653-.057.988-.071a5.348,5.348,0,0,0,2.4-.492,6.638,6.638,0,0,0,3.109-5.032c.3-2.688-.64-5.391-1.471-7.774a.122.122,0,0,1,.041-.137.131.131,0,0,1,.074-.023.117.117,0,0,1,.072.025,20.068,20.068,0,0,0,12.259,4.271c.144,0,.291,0,.434-.005A19.641,19.641,0,0,0,80.731,58.7a17.307,17.307,0,0,0,3.483-1.941l.027-.017a24.063,24.063,0,0,1,2.38-1.447.117.117,0,0,1,.054-.013.121.121,0,0,1,.105.062c.289.52-.078,1.108-.55,1.768l-.013.019c-.1.139-.194.271-.261.385a18.2,18.2,0,0,0-1.434,2.948,8.5,8.5,0,0,0-.317,5.345,5.151,5.151,0,0,0,2.246,2.948,1.99,1.99,0,0,0,.845.2,1.954,1.954,0,0,0,.733-.149,8.686,8.686,0,0,1,3.168-.753,3.8,3.8,0,0,1,.751.07l.39.078.255-.3a9.768,9.768,0,0,0,.087-12.125C92.535,55.592,92.384,55.421,92.226,55.241Zm0,0" transform="translate(-40.752 -30.967)"/><path class="g" d="M95.044,124.036a8.372,8.372,0,0,0-3.057.745,2.149,2.149,0,0,1-.82.166,2.228,2.228,0,0,1-.948-.221,5.291,5.291,0,0,1-2.371-3.09,8.724,8.724,0,0,1,.32-5.5,17.664,17.664,0,0,1,1.313-2.745l-.947-.889-.321.211a17.683,17.683,0,0,1-3.528,1.965,19.933,19.933,0,0,1-6.591,1.291c-.137,0-.272,0-.408,0a20.453,20.453,0,0,1-10.519-2.982l-1.5-.918.512,1.683a14.159,14.159,0,0,1,.737,5.644,6.79,6.79,0,0,1-3.23,5.213,5.506,5.506,0,0,1-2.511.521c-1.175.055-2.286.105-3.134,1.255a3.32,3.32,0,0,0,2.737,5.3,3.235,3.235,0,0,0,1.35-.29.108.108,0,0,1,.046-.01.159.159,0,0,1,.037.006.126.126,0,0,1,.07.063A17.467,17.467,0,0,0,78.2,141.652a17.2,17.2,0,0,0,2.142-.133,13.641,13.641,0,0,0,7.995-3.675,9.429,9.429,0,0,0,2.763-8.128.121.121,0,0,1,.03-.105.125.125,0,0,1,.1-.036h.005a14.375,14.375,0,0,0,2.014.171,5.612,5.612,0,0,0,2.607-.552,3.453,3.453,0,0,0,1.7-2.007,2.3,2.3,0,0,0-.121-1.806A2.5,2.5,0,0,0,95.044,124.036Zm0,0" transform="translate(-44.622 -86.724)"/><path class="g" d="M113.628,232.386a17.553,17.553,0,0,1-2.169.135,17.826,17.826,0,0,1-8.652-2.234c-.212-.117-.436-.251-.726-.432l-1.885-1.179.923,2.023a10.775,10.775,0,0,0,9.24,6.215c.1,0,.192.005.289.005a10.825,10.825,0,0,0,9.089-5.214l1.233-2.058-2.119,1.125A15.073,15.073,0,0,1,113.628,232.386Zm0,0" transform="translate(-77.88 -177.356)"/><path class="h" d="M464.514,12.675a.743.743,0,0,0-.115.117l-.137.177-.668,60.664,9.876,5.86L470.959,6.3Zm0,0" transform="translate(-360.34 -4.512)"/><path class="h" d="M308.229,310.437a.212.212,0,0,1-.034.009l-44.371.229.125.772a33.674,33.674,0,0,1,.376,3.792l.03.639,53.138-.191-8.986-5.33Zm0,0" transform="translate(-205.064 -240.843)"/><path class="h" d="M111.482,11.409,118.3,4.672H116.61c-1.135.011-2.779.024-4.811.038-4.062.026-9.681.06-15.9.093-12.441.07-27.291.145-36.923.194l-9.67.051q-1.9.01-3.807.01c-5.675,0-11.415-.064-16.965-.127l-.324,0c-5.147-.061-9.786-.112-14.447-.127h-.073a6.186,6.186,0,0,0-3.11.593l-.733.444,4.942,4.882.229.284.332-.01c13.921-.432,28.1-.651,42.149-.651,17.9,0,35.963.354,53.7,1.054Zm0,0" transform="translate(-7.652 -3.243)"/><path class="h" d="M10.732,70.977l-.18-55.424-.367-.184-.028-.017L5.135,10.391,4.95,11.709a8.919,8.919,0,0,0-.062,1.108c-.109,9.133-.216,18.671-.324,28.291L4.47,49.541C4.347,60.527,4.225,71.5,4.1,81.974l-.02,1.72,4.866-5.2A.149.149,0,0,1,9,78.47l.439-.171-.013-.471c-.057-1.96-.021-4.2,1.126-5.993.023-.037.049-.071.074-.106l.259-.369-.14-.339A.11.11,0,0,1,10.732,70.977Zm0,0" transform="translate(-3.173 -7.688)"/><path class="h" d="M4.926,320.915l5.349-.027-.18-5.49Zm0,0" transform="translate(-3.829 -244.763)"/><path class="i" d="M139.911,345.228c.271.716.54,1.431.818,2.145l.322.833,3.661-2.812.486.031,1.268-5.512-6.736,4.834Zm0,0" transform="translate(-108.609 -263.818)"/><path class="i" d="M138.907,307.367l-4.816,3.817-.339.085-1.143,3.767.075.208s.08.233.1.283l.319.893,7.216-5.914Zm0,0" transform="translate(-103.074 -238.52)"/><path class="i" d="M141.858,290.146a.906.906,0,0,0,.192.1l.034.01a.907.907,0,0,0,.244.031,2.157,2.157,0,0,0,.244-.019l2.434-.312,1.471-3.287-1.051-.774-4.3,3.772Zm0,0" transform="translate(-109.696 -221.827)"/><path class="i" d="M133.473,268.891l1.259,2.654,3.949-4,.63-.445-2.4-2.462Zm0,0" transform="translate(-103.745 -205.31)"/><path class="j" d="M129.616,32.245c-17.519-.686-35.372-1.034-53.065-1.034-4.83,0-9.722.027-14.553.078l-.665.007h0l-.669.007h0c-8.595.1-17.275.278-25.812.54l-.65.02.181,55.419,1.1-.955c.389-.338.788-.653,1.132-.921,2.206-1.727,4.292-3.33,6.309-4.88s3.832-2.947,5.757-4.449l.147-.114.066-.174a.225.225,0,0,1,.017-.036l.284-.486-.432-.362a17.98,17.98,0,0,1-4.44-5.579l-.238-.471-.513.124a3.546,3.546,0,0,1-.83.1A3.556,3.556,0,0,1,39.806,63.4a3.1,3.1,0,0,1,.923-.851l.734-.429-.59-.612a10.128,10.128,0,0,1-.621-13.392c.366-.458.778-.887,1.19-1.316a12.134,12.134,0,0,0,1.783-2.172,12.346,12.346,0,0,0,.933-2.2c.185-.538.356-1.021.569-1.5a11.857,11.857,0,0,1,5.5-5.519A22.234,22.234,0,0,1,57.8,33.277a32.859,32.859,0,0,1,3.549-.264h0q.243-.005.483-.005a18.727,18.727,0,0,1,7.757,1.49c3.975,1.769,6.757,5.324,7.085,9.06.022.249.035.5.044.723l0,.027a6.153,6.153,0,0,0,.315,1.965A6.173,6.173,0,0,0,78.244,48c.152.174.3.347.448.521a10.149,10.149,0,0,1,.146,12.139l-.385.5.485.411a2.81,2.81,0,0,1,.666.842,2.579,2.579,0,0,1,.139,1.991,3.714,3.714,0,0,1-1.82,2.149,5.889,5.889,0,0,1-2.727.572c-.332,0-.679-.017-1.062-.052L73.361,67l.044.775a9.907,9.907,0,0,1-2.723,7.147l-.519.555.617.444c6.271,4.506,11.643,8.758,13.852,15.17a19.182,19.182,0,0,1,.532,1.853l.122.519,44.306-.23.672-60.965Zm0,0" transform="translate(-26.582 -23.871)"/><path d="M65.131,179.787a.857.857,0,0,1,.953-.085.842.842,0,0,1,.357.445,1.708,1.708,0,0,0-1.124.485.45.45,0,0,0,.634.638.808.808,0,0,1,.815-.182.451.451,0,0,0,.592-.335,1.724,1.724,0,0,0-2.813-1.648.45.45,0,1,0,.586.683Zm0,0" transform="translate(-50.048 -138.506)"/><path d="M213.486,173.808a.466.466,0,0,0,.1-.012l2.2-.517a.45.45,0,0,0-.205-.876l-1.087.255a3.389,3.389,0,0,1,1.22-.826.45.45,0,1,0-.327-.838,4.312,4.312,0,0,0-2.316,2.173.45.45,0,0,0,.407.64Zm0,0" transform="translate(-165.588 -132.498)"/><path d="M111.506,1.26A.787.787,0,0,0,110.72.5a.7.7,0,0,0-.075,0c-1.327.05-41.937.257-59.326.345L41.647.9C34.635.94,27.483.858,20.567.778,15.83.724,10.932.668,6.114.652,5.02.648,2.445.639,1.347,2.473A5.1,5.1,0,0,0,.808,5.119C.673,16.555.539,28.624.4,40.693S.135,64.829,0,76.264a.787.787,0,0,0,.787.8h0l5.014-.024.733,22.339c.05,1.509.124,3.792,1.555,5.309,1.447,1.536,3.658,1.723,5.682,1.723l.339,0,39.793-.342c1.389-.012,4.28-.037,5.626-2.063a6.423,6.423,0,0,0,.747-3.7l-.262-22.185c-.009-.721-.017-1.447-.035-2.176l53.266-.192a.786.786,0,0,0,.784-.814Zm.914,72.522-8.495-5.039.661-60.054c.008-.008.017-.013.024-.02L110,3.341ZM58.683,67.006c-2.248-6.527-7.7-10.9-14.094-15.494a10.513,10.513,0,0,0,2.9-7.641,7.535,7.535,0,0,0,4.154-.592A4.4,4.4,0,0,0,53.8,40.736a3.233,3.233,0,0,0-.187-2.506,3.513,3.513,0,0,0-.824-1.038,10.821,10.821,0,0,0-.161-12.967c-.152-.185-.311-.368-.471-.55a5.626,5.626,0,0,1-1.076-1.52,5.646,5.646,0,0,1-.27-1.779c-.012-.251-.024-.5-.047-.747-.351-3.973-3.286-7.746-7.479-9.612C39.977,8.544,36,8.127,31.139,8.743a22.935,22.935,0,0,0-7.794,2.2,12.525,12.525,0,0,0-5.809,5.84c-.23.515-.413,1.041-.591,1.551a11.6,11.6,0,0,1-.878,2.085,11.565,11.565,0,0,1-1.692,2.052c-.412.43-.836.873-1.224,1.357A10.8,10.8,0,0,0,13.811,38.1a3.713,3.713,0,0,0-1.121,1.027,4.24,4.24,0,0,0,4.456,6.631,18.558,18.558,0,0,0,4.606,5.789.747.747,0,0,0-.065.132c-2,1.56-3.906,3.028-5.753,4.447-2.019,1.551-4.108,3.156-6.314,4.884-.377.294-.772.606-1.159.942L8.288,8.641c31.437-.962,63.3-.828,94.72.4l-.657,59.66-43.118.222A19.539,19.539,0,0,0,58.683,67.006ZM42.4,70.418l4.239,3.776L36.174,87.43l7.659-33.2L47.5,66.209l-4.975,2.944a.787.787,0,0,0-.123,1.265Zm-19.47-2.233-5.206-.674L22.315,55A223.953,223.953,0,0,0,33.1,88.467,123.7,123.7,0,0,1,18.027,75.122l2.642-2.9c.084-.093.211-.249.386-.464a11.784,11.784,0,0,1,1.859-2.014.787.787,0,0,0,.02-1.563ZM15.321,37.378a9.229,9.229,0,0,1-.944-12.567c.345-.43.728-.83,1.135-1.254a12.921,12.921,0,0,0,1.911-2.343,12.938,12.938,0,0,0,1.008-2.366c.174-.5.338-.974.541-1.427a10.96,10.96,0,0,1,5.093-5.083,21.428,21.428,0,0,1,7.271-2.034c4.572-.579,8.27-.2,11.308,1.15,3.678,1.637,6.249,4.9,6.551,8.312.02.228.03.457.042.687a6.916,6.916,0,0,0,.379,2.284,6.9,6.9,0,0,0,1.355,1.976c.148.168.295.336.436.508A9.165,9.165,0,0,1,51.327,36.5a7.732,7.732,0,0,0-4.3.718,1.222,1.222,0,0,1-1.041-.036,4.483,4.483,0,0,1-1.891-2.543,7.839,7.839,0,0,1,.306-4.916,17.525,17.525,0,0,1,1.384-2.839c.054-.091.144-.218.24-.353.441-.617,1.107-1.549.589-2.48a.787.787,0,0,0-1.044-.319,24.955,24.955,0,0,0-2.474,1.5,16.859,16.859,0,0,1-3.349,1.872,18.983,18.983,0,0,1-6.293,1.232,19.315,19.315,0,0,1-12.263-4.12.787.787,0,0,0-1.233.876c.808,2.318,1.723,4.944,1.438,7.481A5.958,5.958,0,0,1,18.628,37.1a4.769,4.769,0,0,1-2.116.411c-.337.016-.685.032-1.036.075A.77.77,0,0,0,15.321,37.378Zm-1.365,2.684c.628-.851,1.37-.925,2.628-.983a6.115,6.115,0,0,0,2.8-.6,7.465,7.465,0,0,0,3.572-5.724,14.672,14.672,0,0,0-.761-5.913,21.022,21.022,0,0,0,11.289,3.075A20.559,20.559,0,0,0,40.3,28.58a18.366,18.366,0,0,0,3.663-2.032l.318-.211a18.294,18.294,0,0,0-1.362,2.85,9.382,9.382,0,0,0-.329,5.926,5.934,5.934,0,0,0,2.723,3.5,2.807,2.807,0,0,0,2.306.069c3.274-1.335,4.2-.472,4.6.295a1.673,1.673,0,0,1,.074,1.293,2.832,2.832,0,0,1-1.368,1.613,7.142,7.142,0,0,1-4.224.314.787.787,0,0,0-.887.919,8.755,8.755,0,0,1-2.58,7.539,12.964,12.964,0,0,1-7.6,3.484,16.807,16.807,0,0,1-17.368-9.672.786.786,0,0,0-1.046-.386,2.671,2.671,0,0,1-3.267-4.013ZM36.065,80.9a.451.451,0,0,0-.3.09l-3.024,2.319q-.411-1.068-.813-2.139l4.882-3.5Zm-.278,1.208-1.292,5.6q-.722-1.755-1.411-3.526ZM37.1,76.4a.447.447,0,0,0-.177.076L31.606,80.3q-.482-1.305-.947-2.616l6.148-5.04.769,1.709Zm-6.864.094.969-3.194a.431.431,0,0,0,.18-.081l4.187-3.32.85,1.889-6.088,4.99C30.3,76.687,30.272,76.592,30.239,76.5Zm2.37-7.812h.029a2.352,2.352,0,0,0,.306-.024l1.959-.253.291.647-3.552,2.817Zm2.244-1.177-2.025.261a.878.878,0,0,1-.258.011.144.144,0,0,1-.04-.02l3.642-3.2Zm-2.781-.543-.48-1.014,3.526-3.57a.363.363,0,0,0,.04-.05l1.013,1.037Zm2.406-5.217-3.3,3.337-.67-1.413,2.7-3.337L34.54,61.7A.489.489,0,0,0,34.478,61.749ZM32.5,58.889a10.155,10.155,0,0,1-8.653-5.823c.249.155.5.306.756.449a18.532,18.532,0,0,0,8.977,2.319,18.059,18.059,0,0,0,2.252-.14,15.86,15.86,0,0,0,5.453-1.688A10.174,10.174,0,0,1,32.5,58.889Zm-.029.9h.024l-5.465,6.759q-1.7-5.715-3.084-11.506A11.083,11.083,0,0,0,32.471,59.789ZM29.884,64.45l1.552,3.274a2.349,2.349,0,0,0,.351.569L29.74,75.046q-1.265-3.7-2.4-7.451ZM37.911,72.9l-2.232-4.959a.266.266,0,0,0-.02-.034l1.556-3.47,2.142,2.193ZM39.6,65.589l-5.721-5.859a11.186,11.186,0,0,0,8.356-5.567ZM6.035,2.226h.074c4.81.017,9.706.073,14.44.127,6.923.079,14.08.162,21.107.121l9.67-.05c9.633-.05,24.482-.124,36.923-.194,6.221-.035,11.84-.068,15.9-.095,2.032-.014,3.676-.026,4.811-.037h.056l-5.453,5.39C71.757,6.233,39.5,6.1,7.675,7.084a.744.744,0,0,0-.053-.064l-4.351-4.3A5.662,5.662,0,0,1,6.035,2.226ZM2.646,75.476l3-3.207.1,3.192ZM5.582,70.16a.782.782,0,0,0-.3.2L1.6,74.292c.127-10.841.253-22.211.38-33.582.135-12.069.27-24.138.4-35.573a8.456,8.456,0,0,1,.055-1.025L6.515,8.14a.794.794,0,0,0,.2.137l.179,55.013a.774.774,0,0,0,.06.3c-.048.068-.1.134-.143.2C5.551,65.757,5.524,68.143,5.582,70.16Zm52.64,32.968c-.777,1.168-2.54,1.344-4.329,1.36l-3.219.028.2-22.688a.787.787,0,0,0-.78-.794H50.09a.786.786,0,0,0-.786.78l-.2,22.716-32.384.278-.9-21.835a.788.788,0,0,0-1.574.065l.9,21.783-1.041.009c-1.861.017-3.769-.065-4.862-1.226-.944-1-1.072-2.6-1.127-4.281l-.941-28.7c-.076-2.332-.056-4.392.963-5.984A10.419,10.419,0,0,1,10.59,62.25c2.2-1.724,4.287-3.326,6.3-4.876q1.951-1.5,4.006-3.088L15.911,67.893a.787.787,0,0,0,.639,1.052l4.346.563c-.311.347-.66.766-1.062,1.262-.141.172-.273.336-.328.395l-3.143,3.447a.787.787,0,0,0,.019,1.081A120.447,120.447,0,0,0,34.038,91.063a.765.765,0,0,0,.632.324.786.786,0,0,0,.618-.3l13.05-16.5a.786.786,0,0,0-.094-1.075l-3.988-3.553,4.581-2.712a.788.788,0,0,0,.352-.908L45.429,54.069c5.4,3.984,9.869,7.946,11.766,13.45,1.163,3.377,1.207,7.056,1.248,10.613l.263,22.185A5.042,5.042,0,0,1,58.222,103.129ZM59.545,70.5l43.588-.225a.767.767,0,0,0,.22-.036l6.654,3.947-50.08.181A34.231,34.231,0,0,0,59.545,70.5Zm0,0" transform="translate(0 0)"/></g></g></svg>