<svg xmlns="http://www.w3.org/2000/svg" xmlns:xlink="http://www.w3.org/1999/xlink" viewBox="0 0 166 166"><defs><style>.a{fill:#ff6e8f;}.b{fill:#b7212b;}.c{fill:#ee3834;}.d{filter:url(#a);}</style><filter id="a" x="0" y="0" width="166" height="166" filterUnits="userSpaceOnUse"><feOffset dy="3" input="SourceAlpha"/><feGaussianBlur stdDeviation="3" result="b"/><feFlood flood-opacity="0.302"/><feComposite operator="in" in2="b"/><feComposite in="SourceGraphic"/></filter></defs><g transform="translate(-261 -2115)"><g class="d" transform="matrix(1, 0, 0, 1, 261, 2115)"><circle class="a" cx="74" cy="74" r="74" transform="translate(9 6)"/></g><g transform="translate(-0.09)"><path class="b" d="M133.8,51.372c6.968,12.827,3.955,25.065-2.435,36.968-7.584,14.142-18.2,25.886-29.776,36.819a111.885,111.885,0,0,1-11.493,9.5l-.8.093V60.019a24.888,24.888,0,0,1,9.916-15.243,24.189,24.189,0,0,1,32.127,3.638c.728.793,1.409,1.623,2.108,2.444l.373.532Z" transform="translate(255.059 2107.46)"/><path class="c" d="M85.872,60.018v74.73a16.127,16.127,0,0,1-2.015-1.194C68,120.98,54.248,106.5,44.146,88.843c-4.552-7.966-7.211-16.437-6.465-25.812a24.254,24.254,0,0,1,47.575-5C85.368,58.675,85.228,59.505,85.872,60.018Z" transform="translate(258.534 2107.461)"/></g></g></svg>