<svg xmlns="http://www.w3.org/2000/svg" xmlns:xlink="http://www.w3.org/1999/xlink" viewBox="0 0 234.912 234.912"><defs><style>.a{fill:#f8f8f8;}.b{fill:#5bd0fc;}.c,.h{fill:#fff;}.d{fill:#cbe580;}.e{fill:#f7b36f;}.f{fill:#f9d889;}.g,.h{stroke:none;}.i{filter:url(#a);}</style><filter id="a" x="0" y="0" width="234.912" height="234.912" filterUnits="userSpaceOnUse"><feOffset dy="3" input="SourceAlpha"/><feGaussianBlur stdDeviation="3" result="b"/><feFlood flood-opacity="0.302"/><feComposite operator="in" in2="b"/><feComposite in="SourceGraphic"/></filter></defs><g transform="translate(-181 -5120)"><g class="i" transform="matrix(1, 0, 0, 1, 181, 5120)"><g class="a" transform="translate(9 6)"><path class="g" d="M 108.4557876586914 215.9115600585938 C 101.1643981933594 215.9115600585938 93.87786865234375 215.1770629882812 86.79864501953125 213.7284240722656 C 79.89981842041016 212.3167266845703 73.11392974853516 210.2102661132812 66.62945556640625 207.4675598144531 C 60.26248168945312 204.7745666503906 54.12145614624023 201.4413146972656 48.37692642211914 197.5603942871094 C 42.68675994873047 193.7161712646484 37.3359260559082 189.3013458251953 32.47306442260742 184.4385070800781 C 27.61023139953613 179.5756530761719 23.19539833068848 174.2248229980469 19.35117721557617 168.5346527099609 C 15.47025966644287 162.7901153564453 12.1370096206665 156.6490936279297 9.444009780883789 150.2821197509766 C 6.701315402984619 143.7976531982422 4.59484338760376 137.0117645263672 3.183148860931396 130.1129302978516 C 1.734509825706482 123.0337066650391 1.000009894371033 115.7471771240234 1.000009894371033 108.4557876586914 C 1.000009894371033 101.1643981933594 1.734509825706482 93.87786865234375 3.183148860931396 86.79864501953125 C 4.59484338760376 79.89981842041016 6.701315402984619 73.11392974853516 9.444009780883789 66.62945556640625 C 12.1370096206665 60.26248168945312 15.47025966644287 54.12145614624023 19.35117721557617 48.37692642211914 C 23.19539833068848 42.68675994873047 27.61023139953613 37.3359260559082 32.47306442260742 32.47306442260742 C 37.3359260559082 27.61023139953613 42.68675994873047 23.19539833068848 48.37692642211914 19.35117721557617 C 54.12145614624023 15.47025966644287 60.26248168945312 12.1370096206665 66.62945556640625 9.444009780883789 C 73.11392974853516 6.701315402984619 79.89981842041016 4.59484338760376 86.79864501953125 3.183148860931396 C 93.87786865234375 1.734509825706482 101.1643981933594 1.000009894371033 108.4557876586914 1.000009894371033 C 115.7471771240234 1.000009894371033 123.0337066650391 1.734509825706482 130.1129302978516 3.183148860931396 C 137.0117645263672 4.59484338760376 143.7976531982422 6.701315402984619 150.2821197509766 9.444009780883789 C 156.6490936279297 12.1370096206665 162.7901153564453 15.47025966644287 168.5346527099609 19.35117721557617 C 174.2248229980469 23.19539833068848 179.5756530761719 27.61023139953613 184.4385070800781 32.47306442260742 C 189.3013458251953 37.3359260559082 193.7161712646484 42.68675994873047 197.5603942871094 48.37692642211914 C 201.4413146972656 54.12145614624023 204.7745666503906 60.26248168945312 207.4675598144531 66.62945556640625 C 210.2102661132812 73.11392974853516 212.3167266845703 79.89981842041016 213.7284240722656 86.79864501953125 C 215.1770629882812 93.87786865234375 215.9115600585938 101.1643981933594 215.9115600585938 108.4557876586914 C 215.9115600585938 115.7471771240234 215.1770629882812 123.0337066650391 213.7284240722656 130.1129302978516 C 212.3167266845703 137.0117645263672 210.2102661132812 143.7976531982422 207.4675598144531 150.2821197509766 C 204.7745666503906 156.6490936279297 201.4413146972656 162.7901153564453 197.5603942871094 168.5346527099609 C 193.7161712646484 174.2248229980469 189.3013458251953 179.5756530761719 184.4385070800781 184.4385070800781 C 179.5756530761719 189.3013458251953 174.2248229980469 193.7161712646484 168.5346527099609 197.5603942871094 C 162.7901153564453 201.4413146972656 156.6490936279297 204.7745666503906 150.2821197509766 207.4675598144531 C 143.7976531982422 210.2102661132812 137.0117645263672 212.3167266845703 130.1129302978516 213.7284240722656 C 123.0337066650391 215.1770629882812 115.7471771240234 215.9115600585938 108.4557876586914 215.9115600585938 Z"/><path class="h" d="M 108.4557876586914 2 C 101.2315826416016 2 94.01251983642578 2.727676391601562 86.99911499023438 4.162811279296875 C 80.16496276855469 5.561294555664062 73.44270324707031 7.647994995117188 67.01899719238281 10.364990234375 C 60.71148681640625 13.03285217285156 54.62773132324219 16.33502197265625 48.93672180175781 20.17979431152344 C 43.29928588867188 23.98837280273438 37.99801635742188 28.36235046386719 33.18017578125 33.18017578125 C 28.36235046386719 37.99801635742188 23.98837280273438 43.29928588867188 20.17979431152344 48.93672180175781 C 16.33502197265625 54.62773132324219 13.03285217285156 60.71148681640625 10.364990234375 67.01899719238281 C 7.647994995117188 73.44270324707031 5.561294555664062 80.16496276855469 4.162811279296875 86.99911499023438 C 2.727676391601562 94.01251983642578 2 101.2315826416016 2 108.4557876586914 C 2 115.6799926757812 2.727676391601562 122.899055480957 4.162811279296875 129.9124603271484 C 5.561294555664062 136.7466125488281 7.647994995117188 143.4688720703125 10.364990234375 149.892578125 C 13.03285217285156 156.2000732421875 16.33502197265625 162.2838439941406 20.17979431152344 167.974853515625 C 23.98837280273438 173.6122894287109 28.36235046386719 178.9135437011719 33.18017578125 183.7314147949219 C 37.99801635742188 188.5492248535156 43.29928588867188 192.9232025146484 48.93672180175781 196.7317810058594 C 54.62773132324219 200.5765533447266 60.71148681640625 203.8787231445312 67.01899719238281 206.5465850830078 C 73.44270324707031 209.2635803222656 80.16496276855469 211.3502807617188 86.99911499023438 212.7487640380859 C 94.01251983642578 214.1838989257812 101.2315826416016 214.9115753173828 108.4557876586914 214.9115753173828 C 115.6799926757812 214.9115753173828 122.899055480957 214.1838989257812 129.9124603271484 212.7487640380859 C 136.7466125488281 211.3502807617188 143.4688720703125 209.2635803222656 149.892578125 206.5465850830078 C 156.2000732421875 203.8787231445312 162.2838439941406 200.5765533447266 167.974853515625 196.7317810058594 C 173.6122894287109 192.9232025146484 178.9135437011719 188.5492248535156 183.7314147949219 183.7314147949219 C 188.5492248535156 178.9135437011719 192.9232025146484 173.6122894287109 196.7317810058594 167.974853515625 C 200.5765533447266 162.2838439941406 203.8787231445312 156.2000732421875 206.5465850830078 149.892578125 C 209.2635803222656 143.4688720703125 211.3502807617188 136.7466125488281 212.7487640380859 129.9124603271484 C 214.1838989257812 122.899055480957 214.9115753173828 115.6799926757812 214.9115753173828 108.4557876586914 C 214.9115753173828 101.2315826416016 214.1838989257812 94.01251983642578 212.7487640380859 86.99911499023438 C 211.3502807617188 80.16496276855469 209.2635803222656 73.44270324707031 206.5465850830078 67.01899719238281 C 203.8787231445312 60.71148681640625 200.5765533447266 54.62773132324219 196.7317810058594 48.93672180175781 C 192.9232025146484 43.29928588867188 188.5492248535156 37.99801635742188 183.7314147949219 33.18017578125 C 178.9135437011719 28.36235046386719 173.6122894287109 23.98837280273438 167.974853515625 20.17979431152344 C 162.2838439941406 16.33502197265625 156.2000732421875 13.03285217285156 149.892578125 10.364990234375 C 143.4688720703125 7.647994995117188 136.7466125488281 5.561294555664062 129.9124603271484 4.162811279296875 C 122.899055480957 2.727676391601562 115.6799926757812 2 108.4557876586914 2 M 108.4557876586914 0 C 168.3542633056641 0 216.9115753173828 48.55731201171875 216.9115753173828 108.4557876586914 C 216.9115753173828 168.3542633056641 168.3542633056641 216.9115753173828 108.4557876586914 216.9115753173828 C 48.55731201171875 216.9115753173828 0 168.3542633056641 0 108.4557876586914 C 0 48.55731201171875 48.55731201171875 0 108.4557876586914 0 Z"/></g></g><g transform="translate(254 5171.036)"><path class="b" d="M122.755,73.047l-.26-.208a6.276,6.276,0,0,0-3.6-.952,6.457,6.457,0,0,0-2.856.591,4.927,4.927,0,0,0-2.6,4.628,12.087,12.087,0,0,0,.177,1.224c.216,1.233.421,2.4-.362,3.286a2.638,2.638,0,0,1-2.048.782,4.916,4.916,0,0,1-.657-.046c-.334-.045-.673-.118-1-.19l-.086-.018A8.069,8.069,0,0,0,107.8,81.9c-2.128,0-3.837,1.769-4.525,3.413a12.4,12.4,0,0,0-.551,6.028c.047.47.1.94.159,1.408a23.8,23.8,0,0,1,.241,4.773c-.138,1.627-.827,2.766-1.85,3.048a1.91,1.91,0,0,1-.512.07c-1.195,0-2.252-1.1-2.76-1.633-2.393-2.493-5.106-5.317-6.519-8.768C89.914,86.4,90.378,82.3,92.663,79.8c1.809-1.982,4.718-3.04,8.664-3.145a2.58,2.58,0,0,0,1.991-.6,1.455,1.455,0,0,0-.007-1.664,2.578,2.578,0,0,0-1.523-.985,5.2,5.2,0,0,0-1.362-.166,14.516,14.516,0,0,0-2.289.247L98,73.5a13.635,13.635,0,0,1-2.115.211,5.149,5.149,0,0,1-1.779-.283,2.952,2.952,0,0,1-2.048-3.1C92.3,69.2,93.3,68.565,94.285,67.94a4.975,4.975,0,0,0,2.042-1.9c.734-1.616-.59-3.407-1.944-4.449-.27-.209-.542-.4-.83-.608l-.082-.059a7.642,7.642,0,0,1-2.976-3.109,4.965,4.965,0,0,1,1.628-5.338,11.6,11.6,0,0,1,5.32-2.282,36.205,36.205,0,0,1,7.431-.767,36.746,36.746,0,0,1,6.8.635l2.206.415-1.528-1.643A39.563,39.563,0,0,0,101.7,40.683c-1.079-.566-2.2-1.087-3.34-1.548l-.987-.4L97.348,39.8a3.274,3.274,0,0,1-.592,1.766,3.07,3.07,0,0,1-2.28,1.371c-.065,0-.13.006-.194.006a8.407,8.407,0,0,1-.877-.063,8.477,8.477,0,0,0-.925-.067,3.227,3.227,0,0,0-.688.067,4.887,4.887,0,0,0-1.693.862,7.228,7.228,0,0,1-1.032.622,3.059,3.059,0,0,1-1.276.268,3.565,3.565,0,0,1-2.47-1L84.59,42.9l-.455.925a3.171,3.171,0,0,1-2.725,1.758l-.03,0h-.029a3.141,3.141,0,0,1-2.777-2.066l-.307-.87-.781.489A7.845,7.845,0,0,1,74.2,44.47c-.1.009-.2.012-.3.012a2.815,2.815,0,0,1-2.867-1.924,2.457,2.457,0,0,1,.275-1.64l1.058-2.024-2.042,1.022c-10.659,5.329-18.814,17.116-21.284,30.76a41.309,41.309,0,0,0,.55,17.958,29.667,29.667,0,0,0,9.09,14.9,41.756,41.756,0,0,0,10.68,6.819l.8.355.21-.854A3.143,3.143,0,0,1,71.6,108.1a3.207,3.207,0,0,1,1.871-.646,2.526,2.526,0,0,1,.853.144,6.776,6.776,0,0,1,1.626.968,4.56,4.56,0,0,0,2.6,1.157h.071a4.623,4.623,0,0,0,2.126-.8,4.076,4.076,0,0,1,1.939-.727h.04a3.886,3.886,0,0,1,1.772.676,5.023,5.023,0,0,0,1.711.718,2.726,2.726,0,0,0,.426.033,5.793,5.793,0,0,0,2.905-1.139l.043-.027c.3-.182.6-.37.9-.528a6.866,6.866,0,0,1,3.208-.776A7.368,7.368,0,0,1,99.54,110l.358.481.545-.252A38.36,38.36,0,0,0,122.771,73.38ZM84.313,66.784c-.877,2.623-3.137,5.338-6.2,5.5-.1.006-.209.008-.311.008a13.039,13.039,0,0,1-1.5-.116,12.5,12.5,0,0,0-1.467-.116,5,5,0,0,0-.656.04,2.875,2.875,0,0,0-1.963,1.2,1.45,1.45,0,0,0-.2,1.247c.2.636.775,1.008,1.392,1.406a5.209,5.209,0,0,1,1.17.923c.9,1.049.867,2.723-.1,4.838l-.085.185c-.653,1.419-1.393,3.027-.826,4.457.594,1.5,2.346,2.133,3.888,2.694l.261.1c2.288.838,3.573,2.169,3.524,3.652a4.656,4.656,0,0,1-.334,1.4l-3.542,10.07a.135.135,0,0,1-.135.087h0a13.33,13.33,0,0,1-7.577-3.552,39.135,39.135,0,0,1-5.431-6.468l-5.042-6.968a2.05,2.05,0,0,1,.589-3.468l7.5-5.476-.293-.563a5.964,5.964,0,0,0-3.826-2.555c-.53-.138-1.048-.243-1.692-.369a12.3,12.3,0,0,1-3.732-1.159,4.633,4.633,0,0,1-2.157-2.705,2.761,2.761,0,0,1,.238-2.161,5.115,5.115,0,0,1,1.921-1.658c.182-.11.36-.22.537-.334.633-.415,1.678-1.276,1.548-2.374a3.134,3.134,0,0,0-1.329-1.839,4.692,4.692,0,0,1-1.328-1.532,3.055,3.055,0,0,1,.815-3.263,8.726,8.726,0,0,1,2.986-1.727l6.489-2.677c.514-.21,1.037-.466,1.591-.735l.034-.016a14.211,14.211,0,0,1,3.626-1.385,6.523,6.523,0,0,1,1.108-.092c3.266,0,6.774,2.244,8.552,4.461A11.987,11.987,0,0,1,84.313,66.784Zm5.425,10.088a2.7,2.7,0,0,1-2.278,1.353,2.08,2.08,0,0,1-.239-.012,2.327,2.327,0,0,1-2.006-1.9A2.566,2.566,0,0,1,86.9,73.875a2.979,2.979,0,0,1,1.245-.3,1.814,1.814,0,0,1,1.385.579A2.428,2.428,0,0,1,89.738,76.872Zm-1.061-7.039a2.638,2.638,0,0,1-1.144.593,1.29,1.29,0,0,1-.2.014.967.967,0,0,1-.815-.386.784.784,0,0,1-.122-.435,2.78,2.78,0,0,1,.493-1.288c.261-.424.511-.892.8-1.435a12.372,12.372,0,0,1,1.819-2.8,1.457,1.457,0,0,1,1-.475.9.9,0,0,1,.284.044,1.176,1.176,0,0,1,.691,1.009,3.161,3.161,0,0,1-.184,1.382A7.992,7.992,0,0,1,88.677,69.833Zm23.089,21.1a3.434,3.434,0,0,1-2.95,1.7,3,3,0,0,1-.7-.084,3.309,3.309,0,0,1-.234-6.368,3.316,3.316,0,0,1,1.017-.162,3.21,3.21,0,0,1,2.5,1.214A3.258,3.258,0,0,1,111.766,90.93Zm0,0" transform="translate(-36.429 -29.205)"/><path class="c" d="M135.5,318.776l.549.225a39.385,39.385,0,0,0,7,2.141,37.577,37.577,0,0,0,7.538.766,36.938,36.938,0,0,0,13.217-2.433c.471-.18.951-.375,1.426-.579l.889-.383-.605-.756a7.866,7.866,0,0,0-6.123-2.825,7.281,7.281,0,0,0-3.4.818c-.32.17-.626.358-.949.557l.387.629-.408-.615a5.359,5.359,0,0,1-2.643,1.067,2.386,2.386,0,0,1-.361-.028,4.663,4.663,0,0,1-1.548-.661,4.249,4.249,0,0,0-2-.737h-.057a4.491,4.491,0,0,0-2.179.792,4.185,4.185,0,0,1-1.9.732h-.064a4.149,4.149,0,0,1-2.306-1.067,7.264,7.264,0,0,0-1.748-1.032,3.014,3.014,0,0,0-1.015-.173,3.7,3.7,0,0,0-2.158.741,3.558,3.558,0,0,0-1.443,2.24Zm0,0" transform="translate(-102.164 -237.45)"/><path class="c" d="M141.91,38.082c.111,0,.222-.006.333-.015a8.64,8.64,0,0,0,3.785-1.59,3.608,3.608,0,0,0,3.316,2.7h.064A3.64,3.64,0,0,0,152.72,36.8a3.985,3.985,0,0,0,3.076,1.433,3.522,3.522,0,0,0,1.472-.31,7.3,7.3,0,0,0,1.116-.672,4.529,4.529,0,0,1,1.513-.78,2.787,2.787,0,0,1,.582-.056,8.183,8.183,0,0,1,.873.063,8.58,8.58,0,0,0,.937.068c.071,0,.141,0,.217-.006a3.568,3.568,0,0,0,2.652-1.58,3.641,3.641,0,0,0,.654-2.5l-.055-.445-.42-.157a35.027,35.027,0,0,0-12.258-2.245,33.681,33.681,0,0,0-11.97,2.2l-.078.032-.058.02-.054.03a6.24,6.24,0,0,0-1.233.875,3.354,3.354,0,0,0-1.124,3.017A3.3,3.3,0,0,0,141.91,38.082Zm0,0" transform="translate(-104.431 -22.322)"/><path class="d" d="M250.908,99.343a38.76,38.76,0,0,0-7.363-14.682l-.154-.192-.238-.062a36.179,36.179,0,0,0-16.4-.374,11.2,11.2,0,0,0-5.2,2.223A4.745,4.745,0,0,0,220,91.3a7.365,7.365,0,0,0,2.883,2.988l.063.045c.284.2.579.413.855.626,1.431,1.1,2.821,3.011,2.029,4.768a5.2,5.2,0,0,1-2.156,2.02c-.966.612-1.878,1.191-2.1,2.212a2.693,2.693,0,0,0,1.884,2.8,4.877,4.877,0,0,0,1.685.266,13.366,13.366,0,0,0,2.06-.207l.139-.02a14.92,14.92,0,0,1,2.337-.249,5.443,5.443,0,0,1,1.436.175,2.867,2.867,0,0,1,1.668,1.087,1.684,1.684,0,0,1,0,1.974,2.824,2.824,0,0,1-2.209.7c-3.853.1-6.7,1.131-8.46,3.06-2.522,2.764-2.383,7.1-1.126,10.168,1.389,3.392,3.961,6.077,6.463,8.687a4.1,4.1,0,0,0,2.584,1.547,1.649,1.649,0,0,0,.434-.058c.908-.252,1.525-1.305,1.65-2.816a23.142,23.142,0,0,0-.238-4.721c-.057-.47-.112-.943-.159-1.414a12.632,12.632,0,0,1,.568-6.153,5.519,5.519,0,0,1,4.786-3.575,8.315,8.315,0,0,1,1.728.255l.086.018c.325.07.632.136.955.181a4.381,4.381,0,0,0,.594.041,2.447,2.447,0,0,0,1.875-.694c.7-.795.505-1.9.3-3.064a12.177,12.177,0,0,1-.178-1.251,5.2,5.2,0,0,1,2.742-4.882,7.122,7.122,0,0,1,3.062-.614,7.649,7.649,0,0,1,2.64.436l1.117.424-.12-1.188A38.9,38.9,0,0,0,250.908,99.343Zm0,0" transform="translate(-165.686 -62.783)"/><path class="d" d="M282.9,228.949a3.725,3.725,0,0,0-1.158.188,3.79,3.79,0,0,0,.267,7.3,3.557,3.557,0,0,0,.835.1,3.86,3.86,0,0,0,3.355-1.95,3.745,3.745,0,0,0-.423-4.242A3.79,3.79,0,0,0,282.9,228.949Zm0,0" transform="translate(-210.441 -172.622)"/><path class="d" d="M202.545,145.7a1.709,1.709,0,0,0,.275-.022,3.11,3.11,0,0,0,1.368-.689,8.506,8.506,0,0,0,2.78-4.013,3.478,3.478,0,0,0,.2-1.6,1.613,1.613,0,0,0-1.021-1.4,1.39,1.39,0,0,0-.43-.066,1.941,1.941,0,0,0-1.347.618,12.8,12.8,0,0,0-1.911,2.939c-.25.471-.508.958-.774,1.386-.411.667-.825,1.525-.365,2.235A1.417,1.417,0,0,0,202.545,145.7Zm0,0" transform="translate(-151.638 -103.984)"/><path class="d" d="M199.719,178.422a3.538,3.538,0,0,0-1.457.339,3.029,3.029,0,0,0-1.959,2.932,2.764,2.764,0,0,0,2.729,2.337,3.141,3.141,0,0,0,2.691-1.6,2.883,2.883,0,0,0-.27-3.271A2.264,2.264,0,0,0,199.719,178.422Zm0,0" transform="translate(-147.993 -134.526)"/><path class="d" d="M96.45,90.789a6.257,6.257,0,0,0-1.07.089,14.19,14.19,0,0,0-3.559,1.363c-.513.25-1.094.532-1.639.756l-6.5,2.683A8.384,8.384,0,0,0,80.8,97.345a2.828,2.828,0,0,0-.764,2.971,4.478,4.478,0,0,0,1.261,1.44,3.314,3.314,0,0,1,1.418,2.006c.108.922-.484,1.855-1.666,2.626q-.264.17-.538.335a4.968,4.968,0,0,0-1.836,1.567,2.51,2.51,0,0,0-.212,1.963A4.384,4.384,0,0,0,80.5,112.8a12.1,12.1,0,0,0,3.674,1.134c.6.118,1.148.227,1.684.363,2.308.6,3.868,1.852,4.278,3.434a.133.133,0,0,1-.05.139l-7.52,5.49a2.465,2.465,0,0,0-1.183,1.47,2.427,2.427,0,0,0,.658,1.639l5.045,6.971a38.89,38.89,0,0,0,5.385,6.415,13.512,13.512,0,0,0,6.713,3.407l.6.091,3.517-10a4.452,4.452,0,0,0,.316-1.312c.063-1.924-2.32-3.018-3.353-3.4l-.257-.093c-1.6-.581-3.408-1.239-4.044-2.847-.608-1.532.156-3.193.83-4.66l.087-.185c.935-2.045.983-3.578.141-4.557a5,5,0,0,0-1.115-.875,3.073,3.073,0,0,1-1.5-1.54,1.72,1.72,0,0,1,.229-1.474,3.146,3.146,0,0,1,2.149-1.324,5.107,5.107,0,0,1,.693-.043,12.8,12.8,0,0,1,1.5.119l.025,0a12.533,12.533,0,0,0,1.446.111c.1,0,.2,0,.293-.008,2.941-.153,5.117-2.78,5.971-5.317a11.715,11.715,0,0,0-1.925-10.8C103.049,92.984,99.627,90.789,96.45,90.789Zm0,0" transform="translate(-59.077 -68.453)"/><path class="e" d="M110.828,488.117a13.4,13.4,0,0,0-1.041,2.587l-.263.924,41.257.666.113-.615a10.169,10.169,0,0,0-.06-3.886l-.123-.6-39.679.533Zm0,0" transform="translate(-82.578 -367.334)"/><path class="e" d="M173.16,401.631a5.192,5.192,0,0,0,2.327.53,7.419,7.419,0,0,0,5.649-2.919,12.142,12.142,0,0,0,1.831-8.711,20.719,20.719,0,0,0-2.882-8.3.169.169,0,0,1-.021-.072l-.069-.739-.738.073c-1.74.173-3.472.259-5.145.259h-.465l-.2.419c-1.614,3.365-3.282,6.842-3.774,10.635a11.234,11.234,0,0,0,.357,5.034A6.487,6.487,0,0,0,173.16,401.631Zm0,0" transform="translate(-127.834 -287.58)"/><path class="e" d="M192.413,347.334l.67-.092-.184-3.62-.758.062c-.994.08-2,.12-2.976.12-.551,0-1.128-.013-1.715-.041l-.77-.036-.012,4.034.759-.019A44.8,44.8,0,0,0,192.413,347.334Zm0,0" transform="translate(-140.743 -259.082)"/><path class="e" d="M95.392,49.451a37.678,37.678,0,0,1,3.041-2.626l.533-.414-.364-.568a.2.2,0,0,1-.024-.047,3.5,3.5,0,0,0-1.335-1.816l-.492-.342-.435.411c-.882.832-1.787,1.776-2.93,3.059l-.393.441,1.785,2.5Zm0,0" transform="translate(-70.114 -32.901)"/><path class="e" d="M61.138,11.543l.312.062.259-.184c.68-.481,1.379-.925,2.076-1.321l.391-.221-.017-.449A6.131,6.131,0,0,0,62.34,5.075a4.045,4.045,0,0,0-2.658-1.017,3.147,3.147,0,0,0-1.8.526,3.6,3.6,0,0,0-.931,4.524A4.983,4.983,0,0,0,61.138,11.543Zm0,0" transform="translate(-42.625 -3.06)"/><path class="f" d="M4.886,76.306C7.548,89.591,17.27,101.341,30.26,106.974a48.243,48.243,0,0,0,19.058,3.836,52.51,52.51,0,0,0,21.168-4.48,7.294,7.294,0,0,0,2.978-2.012,2.71,2.71,0,0,0,.17-3.25,2.238,2.238,0,0,0-1.793-.739,8.009,8.009,0,0,0-3.266.943c-.362.173-.751.349-1.223.556l-.79.346,1.19,1.867a.131.131,0,0,1-.037.178.14.14,0,0,1-.075.022.132.132,0,0,1-.111-.061l-1.218-1.9-.566.226c-.94.375-1.917.727-2.905,1.048l-.717.234.678,1.943a.131.131,0,0,1-.006.1.125.125,0,0,1-.073.065.159.159,0,0,1-.045.01.135.135,0,0,1-.125-.09l-.679-1.953-.671.191c-.972.278-1.986.531-3.016.753l-.57.123-.012.583A2.2,2.2,0,0,0,58.141,107a.134.134,0,0,1-.008.184.138.138,0,0,1-.092.036.127.127,0,0,1-.1-.047,2.449,2.449,0,0,1-.587-1.377l-.077-.8-.787.14c-1.215.217-2.453.385-3.677.5l-.8.076.308,1.7a.133.133,0,0,1-.022.1.129.129,0,0,1-.084.054l-.027,0a.13.13,0,0,1-.127-.109l-.313-1.731-.651.035c-.821.045-1.65.068-2.463.068-.507,0-1.02-.01-1.523-.027l-.7-.024-.172,2.04a.131.131,0,1,1-.261-.024l.17-2.031-.742-.056c-1.309-.1-2.623-.26-3.9-.479l-.812-.139-.111,1.854a.133.133,0,0,1-.124.124h-.016a.121.121,0,0,1-.088-.043.129.129,0,0,1-.033-.1l.111-1.887-.617-.135c-.279-.061-.559-.123-.835-.188-.925-.219-1.85-.475-2.749-.76l-.774-.246-.45,2.088a.128.128,0,0,1-.126.1l-.028,0a.129.129,0,0,1-.1-.155l.285-1.341.261-.746-.682-.252c-1.124-.413-2.245-.882-3.329-1.4l-.687-.326-.748,1.711a.131.131,0,0,1-.121.079.14.14,0,0,1-.054-.012.125.125,0,0,1-.068-.07.127.127,0,0,1,0-.1l.754-1.725-.605-.321c-1.116-.59-2.207-1.235-3.247-1.917l-.617-.406-1.026,1.566a.137.137,0,0,1-.112.06.113.113,0,0,1-.072-.022.131.131,0,0,1-.037-.181l1.029-1.569-.572-.413c-.846-.61-1.691-1.274-2.512-1.975l-.5-.429-1.229,1.148a.127.127,0,0,1-.086.034.136.136,0,0,1-.1-.04.133.133,0,0,1,0-.187l1.211-1.126-.577-.54c-.852-.8-1.667-1.638-2.425-2.493l-.461-.521-1.538,1.21a.132.132,0,0,1-.212-.121.127.127,0,0,1,.049-.086l1.532-1.206-.466-.581A33.438,33.438,0,0,1,15.76,88.63l-.413-.642-1.854,1.284a.139.139,0,0,1-.081.026.13.13,0,0,1-.109-.057.125.125,0,0,1-.021-.1.128.128,0,0,1,.053-.085l1.24-.856c.031-.017.061-.036.089-.056l.543-.389-.333-.58c-.5-.877-.983-1.81-1.422-2.771l-.333-.728-1.789,1a.154.154,0,0,1-.072.021.135.135,0,0,1-.116-.068.134.134,0,0,1,.051-.179l1.822-1.02-.24-.6c-.317-.8-.621-1.655-.9-2.552l-.221-.7-2.075.647a.263.263,0,0,1-.056.012.135.135,0,0,1-.127-.093.131.131,0,0,1,.087-.164l2.1-.654-.183-.683c-.226-.845-.429-1.725-.6-2.617l-.155-.787L8.2,75.934a.182.182,0,0,1-.045.006.13.13,0,0,1-.126-.092.131.131,0,0,1,.012-.1.127.127,0,0,1,.078-.062l2.477-.706-.1-.642c-.18-1.2-.309-2.4-.384-3.566l-.046-.726-2.4.118a.134.134,0,0,1-.118-.126.125.125,0,0,1,.035-.093.127.127,0,0,1,.092-.044l2.375-.12-.018-.72c-.037-1.465,0-2.933.1-4.366l.045-.626-2.713-.65a.135.135,0,0,1-.1-.16.131.131,0,0,1,.16-.1l2.67.644.092-.832c.142-1.275.342-2.574.594-3.859l.128-.653-2.282-.7a.136.136,0,0,1-.088-.165.134.134,0,0,1,.166-.086l2.258.69.182-.766c.29-1.225.621-2.416.987-3.555.019-.064.041-.129.062-.192l.256-.767-.682-.241-.083-.027-2.017-.866a.132.132,0,0,1-.069-.172.139.139,0,0,1,.124-.082.129.129,0,0,1,.049.011l2.743,1.179.268-.732c.5-1.353,1.054-2.7,1.66-4.016l.3-.638L12.69,46.215a.131.131,0,0,1-.065-.079.122.122,0,0,1,.011-.1.129.129,0,0,1,.115-.069.126.126,0,0,1,.062.016L14.948,47.1l.335-.673c.138-.277.277-.555.42-.83.38-.728.791-1.48,1.223-2.232l.367-.64-2-1.145a.133.133,0,0,1,.066-.247.127.127,0,0,1,.064.017L17.431,42.5l.375-.611c.741-1.208,1.526-2.4,2.332-3.537l.431-.608-2.357-1.631a.129.129,0,0,1-.034-.182.134.134,0,0,1,.111-.059.122.122,0,0,1,.072.023l2.362,1.636.426-.572c.653-.875,1.344-1.758,2.056-2.625l.435-.531-1.763-1.67a.13.13,0,0,1-.04-.091.133.133,0,0,1,.134-.135.128.128,0,0,1,.089.035L23.812,33.6l.505-.59c.146-.17.293-.341.441-.511l.149-.171a50.252,50.252,0,0,1,5.416-5.579c.842-.7,1.691-1.78,1.553-2.7-.089-.579-.561-1.048-1.4-1.393a3.369,3.369,0,0,0-1.3-.246,7.34,7.34,0,0,0-3,.814C18.38,26.848,12.294,34.715,8.084,46.611,4.208,57.565,3.132,67.557,4.886,76.306Zm0,0" transform="translate(-3.068 -16.899)"/><path class="f" d="M154.161,462.517a10.326,10.326,0,0,0-4.058-5.526,11.972,11.972,0,0,0-6.58-1.91,9.741,9.741,0,0,0-5.921,1.8.12.12,0,0,1-.043.02l-.1.024-.093.054a7.161,7.161,0,0,1-3.539.99,5.432,5.432,0,0,1-2.429-.56,5.58,5.58,0,0,1-.667-.393l-.25-.169-.3.055a.123.123,0,0,1-.027,0,.1.1,0,0,1-.029,0,11.232,11.232,0,0,0-3.36-.505,14.362,14.362,0,0,0-7.294,2.154,13.6,13.6,0,0,0-4.417,4.3L114.3,464l40.153-.542Zm0,0" transform="translate(-86.183 -343.122)"/><path d="M86.194,36.316A40.726,40.726,0,0,0,65.737,10.59a35.559,35.559,0,0,0-29.4-2.048,32.364,32.364,0,0,0-7.033,3.744,4.449,4.449,0,0,0-1.276-1.778c.7-.614,2-1.98,1.769-3.5a2.867,2.867,0,0,0-2.007-2.171c-1.825-.754-3.789-.027-5.108.586l-.217.106A6.853,6.853,0,0,0,20.382,1.27,4.75,4.75,0,0,0,14.693.7a4.579,4.579,0,0,0-1.248,5.819A5.732,5.732,0,0,0,16.8,9.187C11.533,13.6,7.266,20.361,4.074,29.375.136,40.5-.954,50.673.835,59.6,3.561,73.2,13.508,85.232,26.793,90.994a48.6,48.6,0,0,0,17.572,3.877,34.079,34.079,0,0,0-3.519,10.223,12.244,12.244,0,0,0,.4,5.485,8.37,8.37,0,0,0,.849,1.787,15.082,15.082,0,0,0-16.126,11.894.869.869,0,0,0,.839,1.035l41.46.67h.014a.868.868,0,0,0,.84-.647,11.575,11.575,0,0,0-4.646-12.28,12.857,12.857,0,0,0-9.705-1.8,13.882,13.882,0,0,0,1.356-8.4,21.771,21.771,0,0,0-2.836-8.4,53.144,53.144,0,0,0,14.535-4.093,8.285,8.285,0,0,0,3.366-2.317,3.69,3.69,0,0,0,.139-4.506c-1.829-2.148-5.156-.573-6.25-.055A46.714,46.714,0,0,1,53.3,87.248l-.106-2.09a38.035,38.035,0,0,0,8.8-2.2,39.484,39.484,0,0,0,24.2-46.645Zm-.738,5.854a8.748,8.748,0,0,0-6.3.212,5.948,5.948,0,0,0-3.141,5.591A12.9,12.9,0,0,0,76.2,49.3c.21,1.2.308,1.957-.126,2.448a2.094,2.094,0,0,1-1.818.407c-.318-.043-.641-.114-.983-.189A8.83,8.83,0,0,0,71.4,51.7h-.024a6.252,6.252,0,0,0-5.448,4.025,13.3,13.3,0,0,0-.624,6.514c.048.475.1.95.16,1.426a22.776,22.776,0,0,1,.237,4.572c-.078.921-.411,1.973-1.112,2.167-.744.2-1.664-.637-2.289-1.29-2.446-2.55-4.975-5.186-6.314-8.455-1.169-2.853-1.315-6.864.991-9.391,1.617-1.773,4.287-2.723,7.934-2.82a3.447,3.447,0,0,0,2.765-.977,2.429,2.429,0,0,0,.04-2.847,3.6,3.6,0,0,0-2.093-1.392,9.739,9.739,0,0,0-4.081.059l-.121.019a6.962,6.962,0,0,1-3.394-.024c-.819-.3-1.582-1.152-1.411-1.955.151-.714.9-1.191,1.767-1.741a5.825,5.825,0,0,0,2.433-2.34c.971-2.15-.605-4.39-2.25-5.655-.308-.237-.629-.467-.941-.688A6.743,6.743,0,0,1,55,28.248a4.044,4.044,0,0,1,1.359-4.221,10.56,10.56,0,0,1,4.864-2.055,35.473,35.473,0,0,1,16.064.368,37.248,37.248,0,0,1,8.173,19.83ZM60.649,10.219a2.922,2.922,0,0,1-.53,2,2.815,2.815,0,0,1-2.088,1.262A6.359,6.359,0,0,1,57,13.418a4.029,4.029,0,0,0-3.479.906,6.73,6.73,0,0,1-.991.6,3.185,3.185,0,0,1-3.91-1.27.5.5,0,0,0-.923.164,2.746,2.746,0,0,1-5.436-.121.5.5,0,0,0-.764-.358,8.789,8.789,0,0,1-3.755,1.669A2.654,2.654,0,0,1,34.854,13.3a2.616,2.616,0,0,1,.908-2.322,5.393,5.393,0,0,1,1.087-.768l.1-.042A33.393,33.393,0,0,1,60.649,10.219ZM12.195,59.69a30.64,30.64,0,0,0,9.4,15.387,41.817,41.817,0,0,0,19.089,9.595,38.654,38.654,0,0,0,4.252.625l-.009,2.633a40.819,40.819,0,0,1-8.785-1.079A37.266,37.266,0,0,1,12.8,70.008C7.467,60.892,6.461,48.665,10.113,37.3a52.735,52.735,0,0,1,3.413-8.144,65.5,65.5,0,0,1,8.917-12.893l.151-.173c.016-.018.033-.036.048-.054l.885,1.24a47.276,47.276,0,0,0-11.9,24.017A42.282,42.282,0,0,0,12.195,59.69ZM24.768,16.02,23.822,14.7c.929-1.042,1.886-2.068,2.885-3.012a2.738,2.738,0,0,1,1.049,1.427.906.906,0,0,0,.111.23A37.708,37.708,0,0,0,24.768,16.02ZM18.583,7.748A4.245,4.245,0,0,1,14.98,5.7a2.878,2.878,0,0,1,.7-3.568,3.02,3.02,0,0,1,3.547.434A5.381,5.381,0,0,1,20.8,6.4q-1.094.624-2.139,1.361C18.633,7.756,18.609,7.749,18.583,7.748ZM67.588,124.214l-39.67-.642a12.773,12.773,0,0,1,.985-2.444l38.63-.521A9.449,9.449,0,0,1,67.588,124.214Zm-4.078-9.729a9.632,9.632,0,0,1,3.765,5.132l-37.788.51a12.846,12.846,0,0,1,4.177-4.065,12.381,12.381,0,0,1,10.053-1.577.861.861,0,0,0,.412.022,6.33,6.33,0,0,0,.752.444,6.224,6.224,0,0,0,2.775.637,7.9,7.9,0,0,0,3.885-1.089.867.867,0,0,0,.329-.155C54.8,112.1,60.022,112.159,63.511,114.484ZM51.616,95.023A20.008,20.008,0,0,1,54.4,103.04a11.407,11.407,0,0,1-1.689,8.181c-1.481,1.988-4.6,3.383-7.057,2.169a5.745,5.745,0,0,1-2.759-3.368,10.521,10.521,0,0,1-.324-4.705c.473-3.659,2.114-7.09,3.706-10.409q2.6,0,5.219-.263A.848.848,0,0,0,51.616,95.023Zm14.21-9.985c2.133-1.011,3.54-1.143,4.179-.391a1.988,1.988,0,0,1-.194,2.322,6.746,6.746,0,0,1-2.692,1.787c-12.714,5.652-27.53,5.893-39.635.643C14.714,83.859,5.156,72.312,2.54,59.263c-1.727-8.619-.659-18.48,3.173-29.307C9.857,18.254,15.813,10.53,23.418,7a6.633,6.633,0,0,1,2.693-.746,2.623,2.623,0,0,1,1.018.19c.4.166.894.444.951.826.075.489-.457,1.319-1.3,2.018a50.877,50.877,0,0,0-5.5,5.659l-.151.173c-.151.171-.3.343-.446.516L19.5,14.507a.87.87,0,1,0-1.2,1.262l1.263,1.2q-1.078,1.313-2.076,2.651l-1.778-1.229a.869.869,0,0,0-.988,1.431l1.743,1.206Q15.215,22.8,14.109,24.6l-1.385-.793a.87.87,0,1,0-.865,1.509l1.36.779q-.647,1.124-1.238,2.257c-.145.28-.285.56-.426.841l-1.469-.769a.87.87,0,0,0-.805,1.541l1.523.8q-.931,2.022-1.682,4.073L7.1,33.967a.87.87,0,1,0-.686,1.6l2.039.875a.688.688,0,0,0,.107.034c-.033.1-.066.2-.1.293q-.574,1.786-1,3.6L5.953,39.9a.87.87,0,1,0-.507,1.664l1.645.5q-.386,1.956-.6,3.918l-1.857-.447a.87.87,0,0,0-.407,1.691l2.1.506q-.161,2.231-.1,4.439L4.57,52.26A.87.87,0,0,0,4.612,54h.044l1.65-.083q.12,1.835.393,3.631l-1.853.528a.87.87,0,0,0,.237,1.707.9.9,0,0,0,.239-.034L7,59.268q.264,1.351.614,2.666l-1.419.441a.869.869,0,1,0,.516,1.661L8.1,63.6c.279.882.584,1.751.924,2.6l-1.258.7a.87.87,0,1,0,.851,1.517l1.1-.615q.666,1.457,1.455,2.834a.613.613,0,0,0-.055.031L9.85,71.55a.87.87,0,1,0,.99,1.43l1.232-.852a34.786,34.786,0,0,0,2.083,2.887l-.947.744a.87.87,0,0,0,1.074,1.368l.992-.78q1.169,1.323,2.472,2.542l-.631.589A.87.87,0,0,0,18.3,80.749l.747-.7q1.234,1.055,2.558,2.012l-.643.979A.87.87,0,0,0,22.417,84l.623-.949Q24.641,84.1,26.347,85l-.48,1.1a.871.871,0,0,0,.448,1.146.883.883,0,0,0,.348.073.871.871,0,0,0,.8-.522l.444-1.014q1.659.786,3.39,1.421a.988.988,0,0,0-.042.131l-.291,1.36a.87.87,0,0,0,.669,1.032.842.842,0,0,0,.183.019.869.869,0,0,0,.85-.687l.277-1.292q1.385.44,2.8.776c.283.067.565.131.85.191l-.074,1.259a.87.87,0,0,0,.817.92h.052a.869.869,0,0,0,.867-.818l.062-1.031q1.968.336,3.969.487l-.108,1.289a.87.87,0,0,0,.794.94l.074,0a.87.87,0,0,0,.866-.8l.111-1.339q2.02.071,4.054-.042l.2,1.09a.871.871,0,0,0,.855.717.833.833,0,0,0,.154-.014.869.869,0,0,0,.7-1.009l-.163-.914q1.87-.176,3.737-.507a3.188,3.188,0,0,0,.766,1.793.869.869,0,1,0,1.307-1.146,1.466,1.466,0,0,1-.351-.986q1.537-.332,3.061-.766l.453,1.3a.87.87,0,0,0,.821.583.855.855,0,0,0,.286-.049.87.87,0,0,0,.535-1.107L60,87.352q1.486-.484,2.951-1.065l.886,1.39a.87.87,0,0,0,1.467-.935L64.58,85.6Q65.2,85.33,65.826,85.038ZM51.569,87.522a43.969,43.969,0,0,1-4.9.4l.008-2.5c.583.027,1.167.042,1.75.042,1.014,0,2.027-.043,3.035-.124Zm9.8-6.185a36.463,36.463,0,0,1-20.342,1.632,38.532,38.532,0,0,1-6.867-2.1A2.837,2.837,0,0,1,35.319,79.1a2.707,2.707,0,0,1,2.487-.467,6.559,6.559,0,0,1,1.563.933,4.622,4.622,0,0,0,2.825,1.205,4.8,4.8,0,0,0,2.247-.83,3.753,3.753,0,0,1,1.844-.692,3.688,3.688,0,0,1,1.648.64,5.3,5.3,0,0,0,1.8.751,5.2,5.2,0,0,0,3.507-1.143c.321-.2.624-.383.929-.545a7.165,7.165,0,0,1,8.6,1.818C62.31,80.966,61.844,81.157,61.373,81.336ZM82.515,61.192A38.03,38.03,0,0,1,63.706,80.351a8.08,8.08,0,0,0-10-2.281c-.333.178-.664.382-.984.578a4.438,4.438,0,0,1-2.832,1.007,4.478,4.478,0,0,1-1.46-.631,4.486,4.486,0,0,0-2.117-.772,4.546,4.546,0,0,0-2.366.826,4.024,4.024,0,0,1-1.779.7,3.866,3.866,0,0,1-2.214-1.017,7.392,7.392,0,0,0-1.811-1.065,3.7,3.7,0,0,0-3.41.6,3.879,3.879,0,0,0-1.5,2.172,40.986,40.986,0,0,1-10.49-6.7,28.931,28.931,0,0,1-8.865-14.533A40.508,40.508,0,0,1,13.34,41.6c2.444-13.511,10.5-25.037,20.886-30.232a3.191,3.191,0,0,0-.343,2.139c.377,1.75,2.305,2.639,3.953,2.489a8.446,8.446,0,0,0,3.613-1.446,3.876,3.876,0,0,0,3.457,2.559h.075a3.885,3.885,0,0,0,3.389-2.168,4.2,4.2,0,0,0,4.574.885,7.7,7.7,0,0,0,1.14-.685,4.335,4.335,0,0,1,1.438-.75,4.33,4.33,0,0,1,1.371.012,7.178,7.178,0,0,0,1.195.062,3.807,3.807,0,0,0,2.848-1.688,4.021,4.021,0,0,0,.723-2.167q1.653.672,3.273,1.516a39,39,0,0,1,10.451,8.005,37.254,37.254,0,0,0-14.52.134,12.287,12.287,0,0,0-5.655,2.452,5.709,5.709,0,0,0-1.829,6.163,8.215,8.215,0,0,0,3.235,3.439c.311.222.606.432.889.65,1.232.947,2.243,2.415,1.725,3.561a4.448,4.448,0,0,1-1.781,1.588c-1.047.665-2.232,1.419-2.536,2.848a3.662,3.662,0,0,0,2.52,3.951,8.485,8.485,0,0,0,4.261.107l.122-.02a8.2,8.2,0,0,1,3.355-.1,1.889,1.889,0,0,1,1.1.679.738.738,0,0,1,.051.788c-.239.3-.943.316-1.457.33-4.138.111-7.225,1.25-9.173,3.387-2.478,2.716-2.995,7.121-1.315,11.222,1.464,3.575,4.229,6.457,6.669,9,.563.588,1.783,1.86,3.291,1.86a2.682,2.682,0,0,0,.715-.1c1.327-.367,2.218-1.749,2.382-3.7a24.323,24.323,0,0,0-.243-4.922c-.055-.465-.11-.93-.157-1.4a11.758,11.758,0,0,1,.5-5.667,4.573,4.573,0,0,1,3.845-2.959h.014a7.333,7.333,0,0,1,1.514.229c.361.079.734.16,1.123.213a3.661,3.661,0,0,0,3.354-.979c1.02-1.154.762-2.614.535-3.9-.072-.408-.139-.794-.166-1.152a4.171,4.171,0,0,1,2.2-3.917,6.548,6.548,0,0,1,5.659.281A37.922,37.922,0,0,1,82.515,61.192Zm0,0" transform="translate(0 0)"/><path d="M102.5,91.462c-2.191-2.734-6.567-5.287-10.36-4.636a14.853,14.853,0,0,0-3.827,1.45c-.555.27-1.079.525-1.581.731L80.24,91.684a9.32,9.32,0,0,0-3.226,1.891,3.789,3.789,0,0,0-.967,4.084,5.348,5.348,0,0,0,1.52,1.788c.549.476,1.023.886,1.079,1.367.088.752-.912,1.468-1.221,1.669-.168.11-.34.215-.514.321a5.825,5.825,0,0,0-2.178,1.918,3.5,3.5,0,0,0-.312,2.727,5.409,5.409,0,0,0,2.507,3.154A12.918,12.918,0,0,0,80.9,111.85c.566.111,1.1.216,1.625.353.822.213,2.652.827,3.358,2.184l-6.986,5.1a2.75,2.75,0,0,0-.748,4.5l5.038,6.962a39.657,39.657,0,0,0,5.538,6.585,14.043,14.043,0,0,0,8.011,3.738c.022,0,.045,0,.067,0a.869.869,0,0,0,.82-.58l3.542-10.07a5.367,5.367,0,0,0,.377-1.621c.059-1.821-1.4-3.415-4.007-4.371l-.261-.1c-1.467-.534-2.985-1.087-3.456-2.275-.45-1.135.192-2.529.813-3.878l.083-.182c1.389-3.027.762-4.731-.008-5.628a5.908,5.908,0,0,0-1.331-1.063c-.518-.333-.966-.623-1.086-1a.7.7,0,0,1,.116-.631,2.128,2.128,0,0,1,1.438-.87,7.914,7.914,0,0,1,1.94.076,11.386,11.386,0,0,0,1.936.114c3.415-.178,5.908-3.142,6.866-6A12.735,12.735,0,0,0,102.5,91.462Zm.442,11.187c-.771,2.3-2.71,4.681-5.308,4.816a9.777,9.777,0,0,1-1.642-.1,9.392,9.392,0,0,0-2.373-.073,3.883,3.883,0,0,0-2.676,1.661,2.464,2.464,0,0,0-.308,2.088,3.745,3.745,0,0,0,1.8,1.942,4.472,4.472,0,0,1,.954.734c.795.925.3,2.56-.254,3.769l-.082.179c-.7,1.524-1.574,3.42-.85,5.247.758,1.912,2.821,2.664,4.477,3.267l.258.094c.684.252,2.916,1.188,2.868,2.681a3.926,3.926,0,0,1-.28,1.1l-3.312,9.415a12.749,12.749,0,0,1-6.331-3.227,38.4,38.4,0,0,1-5.286-6.305l-5.037-6.963a1.993,1.993,0,0,1-.526-1.11c.042-.327.481-.672.89-.97l7.518-5.49a.87.87,0,0,0,.329-.92c-.479-1.849-2.231-3.293-4.808-3.963-.576-.149-1.161-.264-1.727-.376a11.44,11.44,0,0,1-3.454-1.052A3.659,3.659,0,0,1,76.1,107a1.766,1.766,0,0,1,.136-1.4,4.407,4.407,0,0,1,1.581-1.309c.188-.115.376-.23.557-.348,1.431-.933,2.14-2.116,2-3.33a3.96,3.96,0,0,0-1.668-2.478,3.973,3.973,0,0,1-1.07-1.183A2.107,2.107,0,0,1,78.25,94.8,7.871,7.871,0,0,1,80.9,93.292l6.491-2.676c.552-.228,1.125-.506,1.679-.776a13.659,13.659,0,0,1,3.361-1.3,5.611,5.611,0,0,1,.947-.079c2.828,0,6.05,1.953,7.761,4.088A10.96,10.96,0,0,1,102.941,102.65Zm0,0" transform="translate(-56.006 -65.388)"/><path d="M201.162,181.76a3.149,3.149,0,0,0-.3-3.57,2.905,2.905,0,0,0-3.486-.456,3.281,3.281,0,0,0-2.107,3.2,3.049,3.049,0,0,0,2.656,2.541,2.969,2.969,0,0,0,.32.017A3.433,3.433,0,0,0,201.162,181.76Zm-.867-.486a2.384,2.384,0,0,1-2.264,1.212,2.06,2.06,0,0,1-1.78-1.684,2.346,2.346,0,0,1,1.539-2.166,1.986,1.986,0,0,1,2.331.221A2.132,2.132,0,0,1,200.295,181.274Zm0,0" transform="translate(-147.21 -133.732)"/><path d="M201.774,145.175a2.026,2.026,0,0,0,.321-.026,3.328,3.328,0,0,0,1.482-.742,8.755,8.755,0,0,0,2.866-4.133,3.857,3.857,0,0,0,.209-1.715,1.856,1.856,0,0,0-1.192-1.6,2.025,2.025,0,0,0-2.039.615,12.949,12.949,0,0,0-1.957,3c-.262.494-.51.96-.764,1.371-.264.429-.967,1.566-.362,2.511A1.69,1.69,0,0,0,201.774,145.175Zm-.228-2.715c.271-.438.526-.918.8-1.426a12.256,12.256,0,0,1,1.787-2.768,1.068,1.068,0,0,1,1.023-.367.907.907,0,0,1,.517.805,2.793,2.793,0,0,1-.173,1.265,7.745,7.745,0,0,1-2.537,3.659,2.424,2.424,0,0,1-1.027.541.776.776,0,0,1-.757-.255C200.993,143.628,201.111,143.166,201.547,142.46Zm0,0" transform="translate(-150.871 -103.2)"/><path d="M280.88,228.115a4.047,4.047,0,0,0,.288,7.789,3.744,3.744,0,0,0,.875.1,4.168,4.168,0,0,0,3.6-2.081,3.979,3.979,0,0,0-.45-4.525A3.935,3.935,0,0,0,280.88,228.115Zm3.89,5.332a3.047,3.047,0,1,1-3.586-4.386,2.94,2.94,0,0,1,3.241.972A3.011,3.011,0,0,1,284.77,233.447Zm0,0" transform="translate(-209.657 -171.844)"/></g></g></svg>