<svg xmlns="http://www.w3.org/2000/svg" xmlns:xlink="http://www.w3.org/1999/xlink" viewBox="0 0 306.666 290.95"><defs><style>.a,.b{fill:none;stroke:#0bcdf8;stroke-linecap:round;stroke-linejoin:round;stroke-miterlimit:10;}.a{stroke-width:3px;}.b{stroke-width:2.432px;}.c{fill:#fffefe;}.d{clip-path:url(#a);}.e{fill:#64cdf6;}.f{fill:#fff;}.g{fill:#cbdf82;}.h{fill:#f6b370;}.i{fill:#f9d889;}.j{fill:#010101;}</style><clipPath id="a"><path d="M177.3,205.56a32.182,32.182,0,0,1-3.017,1.161c-14.043,5.223-29.13,5.339-44.218,3.017a84.012,84.012,0,0,1-14.971-4.062L113,204.864A88.358,88.358,0,0,1,90.141,190.7c-9.4-8.008-15.784-18.337-19.265-30.871a83.982,83.982,0,0,1-1.161-37.37c5.339-28.666,22.863-53.154,45.494-64.18l5.687-2.437c.116,0,.116-.116.232-.116a74.256,74.256,0,0,1,51.529.116l2.205.812a55.505,55.505,0,0,1,7.079,3.25,86.827,86.827,0,0,1,22.747,16.944l4.178,4.642a78.931,78.931,0,0,1,15.668,30.523,99.617,99.617,0,0,1,2.089,11.49l.348,4.294a78.039,78.039,0,0,1-6.731,35.978,81.253,81.253,0,0,1-40.968,40.62Z" transform="translate(-68.162 -51.175)"/></clipPath></defs><g transform="translate(0.16 0.254)"><line class="a" x1="28.782" y1="42.129" transform="translate(83.204 29.586)"/><line class="a" y1="19.265" x2="2.553" transform="translate(165.489 37.13)"/><line class="a" y1="13.695" x2="1.857" transform="translate(168.738 16.703)"/><line class="a" x1="4.874" y1="11.838" transform="translate(124.521 47.923)"/><line class="a" x1="12.418" y1="4.062" transform="translate(70.786 104.675)"/><line class="a" x1="36.326" y1="8.24" transform="translate(40.959 113.379)"/><line class="a" x2="31.103" y2="11.025" transform="translate(237.676 170.827)"/><line class="a" x1="10.561" y1="55.475" transform="translate(137.751 1.5)"/><line class="a" y1="24.952" x2="44.798" transform="translate(229.436 71.598)"/><line class="a" y1="18.105" x2="7.196" transform="translate(120.923 217.018)"/><line class="a" y1="14.739" x2="0.232" transform="translate(155.16 221.776)"/><line class="a" y1="8.356" x2="0.232" transform="translate(154.579 244.523)"/><line class="a" x1="6.151" y1="20.542" transform="translate(181.505 218.759)"/><line class="a" x1="14.507" y2="47.351" transform="translate(181.853 11.945)"/><line class="a" x2="27.273" y2="32.96" transform="translate(206.573 206.341)"/><line class="a" x1="30.523" y2="44.914" transform="translate(83.204 210.519)"/><line class="a" x1="55.359" y2="27.738" transform="translate(27.265 179.764)"/><line class="a" x1="32.844" y2="25.997" transform="translate(60.805 194.155)"/><line class="a" x1="68.126" y2="7.776" transform="translate(1.5 149.125)"/><line class="a" x1="63.135" y2="0.696" transform="translate(241.854 139.144)"/><line class="a" x1="48.512" y1="6.267" transform="translate(21.81 129.743)"/><line class="a" x2="43.405" y2="38.067" transform="translate(217.83 195.78)"/><line class="a" x2="12.65" y2="7.196" transform="translate(229.436 182.781)"/><line class="a" y1="3.366" x2="14.043" transform="translate(29.586 172.104)"/><line class="a" y1="8.472" x2="7.544" transform="translate(90.864 209.706)"/><line class="a" y1="7.66" x2="28.086" transform="translate(50.128 162.587)"/><line class="a" x1="10.213" y2="51.761" transform="translate(130.904 221.776)"/><line class="a" x2="27.738" y2="52.342" transform="translate(194.503 214.001)"/><line class="a" x2="4.758" y2="64.412" transform="translate(168.506 224.678)"/><line class="a" x1="14.043" y1="8.124" transform="translate(74.152 89.239)"/><line class="a" x1="28.55" y1="15.436" transform="translate(38.87 70.322)"/><line class="b" x1="29.13" y1="25.068" transform="translate(68.233 57.556)"/><line class="a" y1="55.823" x2="33.889" transform="translate(194.851 11.365)"/><line class="a" x2="47.467" y2="7.66" transform="translate(238.953 155.276)"/><line class="a" y1="12.302" x2="41.2" transform="translate(236.283 96.087)"/><line class="a" x1="11.025" y2="9.865" transform="translate(221.312 75.428)"/><line class="a" x1="24.488" y2="2.321" transform="translate(241.738 121.271)"/><line class="a" x1="27.389" y2="29.014" transform="translate(209.939 43.281)"/><line class="a" x1="6.267" y2="5.455" transform="translate(238.372 64.635)"/><path class="c" d="M64.1,136.468c0-46.655,37.486-88.668,84.257-88.668a84.49,84.49,0,1,1,0,168.979C101.586,216.779,64.1,183.123,64.1,136.468Z" transform="translate(10.052 7.434)"/><g transform="translate(78.866 59.151)"><g class="d"><path class="e" d="M225.384,126.318l-.58-.464c-1.857-1.393-5.107-1.973-7.544-1.973a14.466,14.466,0,0,0-5.919,1.161,10.04,10.04,0,0,0-5.455,9.4l.348,2.437c.464,2.553.928,4.874-.812,6.615A6.836,6.836,0,0,1,199.735,145l-2.089-.348h-.232a17.918,17.918,0,0,0-3.482-.464c-4.41,0-8.008,3.6-9.4,6.963-1.741,3.946-1.509,8.356-1.161,12.186.116.928.232,1.857.348,2.9a44.347,44.347,0,0,1,.464,9.633c-.232,3.25-1.741,5.571-3.83,6.151a3.212,3.212,0,0,1-1.045.116c-2.437,0-4.642-2.205-5.8-3.25-4.99-5.106-10.677-10.793-13.579-17.757-3.25-7.776-2.321-16.132,2.437-21.122,3.83-4.062,9.865-6.151,18.1-6.383,1.393,0,3.25-.116,4.178-1.161a2.966,2.966,0,0,0,0-3.366,5.093,5.093,0,0,0-3.134-1.973,10.156,10.156,0,0,0-2.785-.348,34.7,34.7,0,0,0-4.758.464h-.232a27.016,27.016,0,0,1-4.41.464,11.877,11.877,0,0,1-3.714-.58c-2.553-.928-4.874-3.6-4.294-6.267.464-2.321,2.553-3.6,4.642-4.874,1.741-1.045,3.482-2.205,4.294-3.83,1.509-3.25-1.277-6.847-4.062-9.052-.58-.464-1.161-.812-1.741-1.277l-.116-.116c-2.437-1.625-5.106-3.482-6.151-6.267-1.393-3.482,0-7.892,3.366-10.793,3.25-2.785,7.66-3.946,11.142-4.642A77.636,77.636,0,0,1,188.246,78.5,82.357,82.357,0,0,1,202.4,79.779l4.642.812-3.134-3.366a82.945,82.945,0,0,0-22.167-16.48,75.007,75.007,0,0,0-6.963-3.134l-2.089-.812-.116,2.205a5.918,5.918,0,0,1-1.277,3.6,6.435,6.435,0,0,1-4.758,2.785h-.348c-.58,0-1.277-.116-1.857-.116a10.619,10.619,0,0,0-1.973-.116,4.783,4.783,0,0,0-1.393.116,8.951,8.951,0,0,0-3.482,1.741,13.674,13.674,0,0,1-2.205,1.277,6.884,6.884,0,0,1-2.669.58,7.5,7.5,0,0,1-5.106-2.089L146,65.272l-.928,1.857a6.625,6.625,0,0,1-5.687,3.6h-.232a6.419,6.419,0,0,1-5.8-4.178l-.7-1.741-1.625,1.045a17.61,17.61,0,0,1-6.847,2.669h-.58c-2.553,0-5.455-1.393-6.035-3.946a5.111,5.111,0,0,1,.58-3.366l2.205-4.062-4.294,2.089c-22.283,10.793-39.227,34.7-44.45,62.323-2.321,12.65-1.973,25.184,1.161,36.326a60.084,60.084,0,0,0,18.917,30.175,88.331,88.331,0,0,0,22.283,13.811l1.625.7.464-1.741a6.512,6.512,0,0,1,2.553-3.6,6.948,6.948,0,0,1,3.946-1.277,4.24,4.24,0,0,1,1.741.348,14.194,14.194,0,0,1,3.366,1.973c1.625,1.161,3.366,2.321,5.455,2.321h.116a8.9,8.9,0,0,0,4.41-1.625,9.154,9.154,0,0,1,4.062-1.509h.116a8.149,8.149,0,0,1,3.714,1.393,12.422,12.422,0,0,0,3.6,1.509c.348,0,.58.116.928.116,2.205,0,4.178-1.161,6.035-2.321h.116c.58-.348,1.277-.7,1.857-1.045a14.421,14.421,0,0,1,6.731-1.625,15.25,15.25,0,0,1,12.186,5.8l.7.928,1.161-.464a79.223,79.223,0,0,0,40.04-39.575,77.107,77.107,0,0,0,6.615-35.049Zm-80.2-12.766c-1.857,5.339-6.5,10.793-13,11.141h-.7a26.481,26.481,0,0,1-3.134-.232,28.577,28.577,0,0,0-3.017-.232,5.65,5.65,0,0,0-1.393.116,5.937,5.937,0,0,0-4.062,2.437,3.042,3.042,0,0,0-.464,2.553,6.374,6.374,0,0,0,2.9,2.9,9.069,9.069,0,0,1,2.437,1.857c1.857,2.089,1.857,5.571-.232,9.749l-.232.348c-1.393,2.9-2.9,6.151-1.741,9.052,1.277,3.018,4.874,4.294,8.124,5.455l.58.232c4.758,1.741,7.428,4.41,7.312,7.428a7.038,7.038,0,0,1-.7,2.785l-7.428,20.426a.25.25,0,0,1-.232.232h0c-6.731-.464-12.3-4.178-15.784-7.2-4.41-3.83-7.892-8.588-11.374-13.114L92.5,155.332a5.688,5.688,0,0,1-1.509-3.714c.232-1.625,1.741-2.669,2.669-3.366l15.668-11.141-.58-1.161c-1.741-3.25-5.687-4.642-8.008-5.223-1.161-.232-2.205-.464-3.482-.7a26.14,26.14,0,0,1-7.776-2.321,9.089,9.089,0,0,1-4.526-5.455,5.721,5.721,0,0,1,.464-4.41,10.571,10.571,0,0,1,4.062-3.366,10.206,10.206,0,0,1,1.161-.7c1.277-.812,3.482-2.553,3.25-4.758-.232-1.509-1.393-2.553-2.785-3.714a10.24,10.24,0,0,1-2.785-3.134c-1.045-2.321.116-4.99,1.741-6.615,1.741-1.741,4.178-2.669,6.267-3.482l13.579-5.455c1.045-.464,2.205-.928,3.366-1.509h.116c2.437-1.161,4.99-2.437,7.544-2.785a14.287,14.287,0,0,1,2.321-.232c6.847,0,14.159,4.526,17.873,9.052A24.013,24.013,0,0,1,145.188,113.552Zm11.258,20.426a5.766,5.766,0,0,1-4.758,2.785h-.464a4.822,4.822,0,0,1-4.178-3.83c-.348-2.205,1.509-4.062,3.482-4.874a7.321,7.321,0,0,1,2.553-.58,4.122,4.122,0,0,1,2.9,1.161A4.337,4.337,0,0,1,156.446,133.978Zm-2.205-14.159a5.311,5.311,0,0,1-2.437,1.161h-.464a2.268,2.268,0,0,1-1.741-.812,2.186,2.186,0,0,1-.232-.928,4.728,4.728,0,0,1,1.044-2.553,32.443,32.443,0,0,0,1.625-2.9,25.655,25.655,0,0,1,3.83-5.687,3.12,3.12,0,0,1,2.089-.928,1.046,1.046,0,0,1,.58.116,2.165,2.165,0,0,1,1.393,2.089,6.788,6.788,0,0,1-.348,2.785A15.2,15.2,0,0,1,154.241,119.819ZM202.4,162.528a7.118,7.118,0,0,1-6.151,3.482,6.617,6.617,0,0,1-1.509-.116,6.775,6.775,0,0,1-5.223-6.267,6.861,6.861,0,0,1,4.758-6.615,6.572,6.572,0,0,1,2.089-.348,7.167,7.167,0,0,1,5.223,2.437A6.135,6.135,0,0,1,202.4,162.528Z" transform="translate(-67.85 -50.271)"/><path class="f" d="M108.6,183.176l1.161.464a84,84,0,0,0,14.623,4.294,81.195,81.195,0,0,0,43.289-3.366c.928-.348,1.973-.812,3.018-1.161l1.857-.812-1.277-1.509A16.507,16.507,0,0,0,158.5,175.4a15.878,15.878,0,0,0-7.079,1.625,17.475,17.475,0,0,0-1.973,1.161l.812,1.277-.812-1.277c-1.857,1.161-3.6,2.205-5.455,2.205h-.7a7.3,7.3,0,0,1-3.25-1.393,9.1,9.1,0,0,0-4.178-1.509h-.116a8.533,8.533,0,0,0-4.526,1.625,10.3,10.3,0,0,1-3.946,1.509h-.116c-1.741,0-3.25-1.044-4.758-2.205a16.118,16.118,0,0,0-3.6-2.089,6.572,6.572,0,0,0-2.089-.348,8.435,8.435,0,0,0-4.526,1.509,7.38,7.38,0,0,0-3.017,4.526Z" transform="translate(-61.669 -31.228)"/><path class="f" d="M117.066,70.109h.7c3.017-.232,5.571-1.741,7.892-3.25a7.343,7.343,0,0,0,6.963,5.455h.116a7.7,7.7,0,0,0,6.963-4.874,8.372,8.372,0,0,0,9.4,2.321,9.487,9.487,0,0,0,2.321-1.393,9,9,0,0,1,3.134-1.625,3.948,3.948,0,0,1,1.161-.116c.58,0,1.161.116,1.857.116a10.619,10.619,0,0,0,1.973.116h.464a7.761,7.761,0,0,0,6.963-8.356l-.116-.928-.928-.348A74.981,74.981,0,0,0,140.393,52.7a73.4,73.4,0,0,0-24.952,4.41l-.116.116h-.116l-.116.116a16.187,16.187,0,0,0-2.553,1.741c-1.509,1.393-2.9,3.714-2.321,6.151C110.8,68.484,114.049,70.109,117.066,70.109Z" transform="translate(-61.43 -50.93)"/><path class="g" d="M210.882,108.4a76.555,76.555,0,0,0-15.32-29.711l-.348-.348-.464-.116a78.686,78.686,0,0,0-18.8-2.321,76.5,76.5,0,0,0-15.436,1.509c-3.6.7-7.776,1.857-10.793,4.526-2.669,2.205-4.758,6.383-3.25,10.213,1.045,2.669,3.6,4.41,6.035,6.035l.116.116c.58.464,1.161.812,1.741,1.277,3.018,2.205,5.919,6.151,4.178,9.633-.812,1.857-2.669,3.017-4.526,4.062-1.973,1.277-3.946,2.437-4.41,4.526-.58,2.437,1.625,4.874,3.946,5.687a10.941,10.941,0,0,0,3.482.58,24.334,24.334,0,0,0,4.294-.464h.348a33.052,33.052,0,0,1,4.874-.464,11.976,11.976,0,0,1,3.017.348,6.132,6.132,0,0,1,3.482,2.205,3.139,3.139,0,0,1,0,3.946c-1.045,1.277-3.134,1.393-4.642,1.393-8.008.232-13.927,2.321-17.641,6.151-5.223,5.571-4.99,14.391-2.321,20.542,2.9,6.847,8.24,12.3,13.463,17.641,1.393,1.509,3.366,3.134,5.339,3.134a2.556,2.556,0,0,0,.928-.116c1.857-.464,3.134-2.669,3.482-5.687a52.829,52.829,0,0,0-.464-9.517c-.116-.928-.232-1.857-.348-2.9-.348-3.83-.58-8.356,1.161-12.418,1.509-3.6,5.223-7.2,9.981-7.2a19.1,19.1,0,0,1,3.6.464h.232c.7.116,1.277.232,1.973.348.464,0,.812.116,1.277.116a5.1,5.1,0,0,0,3.946-1.393c1.509-1.625,1.045-3.83.58-6.151a19.269,19.269,0,0,1-.348-2.553,10.522,10.522,0,0,1,5.687-9.865,14.51,14.51,0,0,1,6.383-1.277,15.786,15.786,0,0,1,5.455.928l2.321.812-.232-2.437A73.716,73.716,0,0,0,210.882,108.4Z" transform="translate(-55.669 -47.204)"/><path class="g" d="M180.092,138.4a8.834,8.834,0,0,0-2.437.348,7.939,7.939,0,0,0-5.455,7.544,8.032,8.032,0,0,0,6.035,7.2,8.957,8.957,0,0,0,1.741.232,7.854,7.854,0,0,0,6.963-3.946,7.333,7.333,0,0,0-.928-8.588A8.4,8.4,0,0,0,180.092,138.4Z" transform="translate(-51.457 -37.169)"/><path class="g" d="M140.591,115.168h.58a7.508,7.508,0,0,0,2.9-1.393,17.582,17.582,0,0,0,5.8-8.124,6.874,6.874,0,0,0,.464-3.25,3.389,3.389,0,0,0-2.089-2.785,2.263,2.263,0,0,0-.928-.116,4.113,4.113,0,0,0-2.785,1.277,26.319,26.319,0,0,0-3.946,5.919,21.863,21.863,0,0,1-1.625,2.785c-.812,1.393-1.741,3.134-.812,4.526A2.772,2.772,0,0,0,140.591,115.168Z" transform="translate(-56.985 -43.415)"/><path class="g" d="M142.685,116.8a6.8,6.8,0,0,0-3.018.7c-2.321,1.045-4.41,3.25-4.062,5.919a5.923,5.923,0,0,0,5.107,4.758h.58a6.345,6.345,0,0,0,5.571-3.25,5.544,5.544,0,0,0-.58-6.615A4.654,4.654,0,0,0,142.685,116.8Z" transform="translate(-57.338 -40.637)"/><path class="g" d="M121.129,79.1a12.855,12.855,0,0,0-2.205.232c-2.437.348-4.99,1.625-7.428,2.785-1.045.464-2.321,1.045-3.366,1.509L94.552,89.081a17.186,17.186,0,0,0-6.035,3.366c-1.393,1.393-2.553,3.946-1.625,6.035a9.081,9.081,0,0,0,2.669,2.9c1.393,1.161,2.785,2.321,2.9,4.062.232,1.857-1.045,3.714-3.482,5.339a10.209,10.209,0,0,1-1.161.7,9.331,9.331,0,0,0-3.83,3.134,5.141,5.141,0,0,0-.464,3.946,8.462,8.462,0,0,0,4.294,5.107,26.794,26.794,0,0,0,7.66,2.321q1.915.348,3.482.7c4.758,1.161,8.124,3.714,8.936,6.963,0,.116,0,.232-.116.232L92.115,145.136c-1.161.812-2.321,1.741-2.437,3.018-.116,1.161.58,2.205,1.393,3.366l10.561,14.159c3.366,4.526,6.847,9.169,11.258,13,3.134,2.669,8.008,6.035,14.043,6.847l1.277.232,7.312-20.31a10.038,10.038,0,0,0,.7-2.669c.116-3.946-4.874-6.151-6.963-6.847l-.58-.232c-3.366-1.161-7.079-2.553-8.472-5.8-1.277-3.134.348-6.5,1.741-9.4l.232-.348c1.973-4.178,2.089-7.2.348-9.285a8.7,8.7,0,0,0-2.321-1.741c-1.393-.812-2.669-1.625-3.134-3.134a3.554,3.554,0,0,1,.464-3.017,6.526,6.526,0,0,1,4.526-2.669,5.651,5.651,0,0,1,1.393-.116,28.455,28.455,0,0,1,3.134.232h0a26.405,26.405,0,0,0,3.017.232h.58c6.151-.348,10.677-5.687,12.418-10.793a22.841,22.841,0,0,0-4.062-21.819C134.94,83.626,127.744,79.1,121.129,79.1Z" transform="translate(-65.725 -46.691)"/><path class="h" d="M99.885,251.157a33.446,33.446,0,0,0-2.205,5.223l-.58,1.857,86.114,1.393.232-1.277a20.107,20.107,0,0,0-.116-7.892L183.1,249.3l-82.749,1.044Z" transform="translate(-63.515 -19.362)"/><path class="h" d="M131.212,244.868a11.49,11.49,0,0,0,4.874,1.044,15.727,15.727,0,0,0,11.838-5.919c3.366-4.294,4.642-10.561,3.83-17.641a40.289,40.289,0,0,0-6.035-16.828v-.116L145.6,203.9l-1.509.116c-3.6.348-7.2.58-10.677.58h-.928l-.464.812c-3.366,6.847-6.847,13.811-7.892,21.587a24.232,24.232,0,0,0,.7,10.213A12.819,12.819,0,0,0,131.212,244.868Z" transform="translate(-59.212 -26.651)"/><path class="h" d="M143.254,195.244l1.393-.232L144.3,187.7l-1.625.116c-2.089.116-4.178.232-6.151.232-1.161,0-2.321,0-3.6-.116l-1.625-.116v8.124h1.625A78.522,78.522,0,0,0,143.254,195.244Z" transform="translate(-58.024 -29.253)"/><path class="h" d="M94.89,70.638a70.652,70.652,0,0,1,6.383-5.339l1.161-.812-.812-1.161V63.21A7.384,7.384,0,0,0,98.836,59.5l-1.045-.7-.928.812c-1.857,1.741-3.714,3.6-6.151,6.151l-.812.928L93.614,71.8Z" transform="translate(-64.671 -49.95)"/><path class="h" d="M83.326,57.1l.7.116.58-.348C86,55.943,87.5,55.014,88.9,54.2l.812-.464v-.928a12.021,12.021,0,0,0-3.83-8.82A8.7,8.7,0,0,0,80.309,41.9,6.627,6.627,0,0,0,76.6,42.945a7.124,7.124,0,0,0-1.973,9.169C76.131,55.014,79.612,56.871,83.326,57.1Z" transform="translate(-67.266 -52.664)"/><path class="i" d="M52.233,158.878c5.571,26.925,25.881,50.717,52.922,62.091a102.717,102.717,0,0,0,39.808,7.776,112.3,112.3,0,0,0,44.1-9.052c2.321-1.045,4.642-2.089,6.267-4.062,1.393-1.857,1.973-4.758.348-6.615a4.646,4.646,0,0,0-3.714-1.509,17.334,17.334,0,0,0-6.847,1.857c-.812.348-1.509.7-2.553,1.161l-1.625.7,2.437,3.83v.232a.114.114,0,0,1-.116.116h-.116a.359.359,0,0,1-.232-.116l-2.553-3.83-1.161.464A52.878,52.878,0,0,1,173.164,214l-1.509.464,1.393,3.946v.232l-.116.116h-.116a.25.25,0,0,1-.232-.232l-1.393-3.946-1.393.348c-1.973.58-4.178,1.045-6.267,1.509l-1.161.232v1.161a4.11,4.11,0,0,0,1.161,3.017.218.218,0,0,1,0,.348c-.116,0-.116.116-.232.116a.359.359,0,0,1-.232-.116,5.13,5.13,0,0,1-1.277-2.785l-.116-1.625-1.625.232q-3.83.7-7.66,1.045l-1.625.116.7,3.482v.232a.405.405,0,0,1-.232.116h0a.25.25,0,0,1-.232-.232l-.7-3.482-1.393.116c-1.741.116-3.482.116-5.106.116h-4.642l-.348,4.178a.232.232,0,1,1-.464,0l.348-4.062-1.509-.116c-2.785-.232-5.455-.58-8.124-.928l-1.741-.232-.232,3.714a.25.25,0,0,1-.232.232h0c-.116,0-.116,0-.232-.116a.405.405,0,0,1-.116-.232l.232-3.83-1.277-.232-1.741-.348c-1.973-.464-3.83-.928-5.687-1.509l-1.625-.464-.928,4.178a.25.25,0,0,1-.232.232h-.116c-.116,0-.232-.116-.232-.348l.58-2.669.58-1.509L114.671,214q-3.482-1.219-6.963-2.785l-1.393-.7L104.807,214c0,.116-.116.116-.232.116h-.116a.114.114,0,0,1-.116-.116v-.232l1.625-3.482-1.277-.7c-2.321-1.161-4.642-2.553-6.731-3.83l-1.277-.812-2.089,3.134a.359.359,0,0,1-.232.116h-.116a.426.426,0,0,1-.116-.348l2.089-3.134-1.161-.812c-1.741-1.277-3.482-2.553-5.223-3.946l-1.045-.812-2.553,2.321c-.116,0-.116.116-.232.116a.359.359,0,0,1-.232-.116.218.218,0,0,1,0-.348l2.553-2.321-1.161-1.045c-1.741-1.625-3.482-3.366-5.107-5.107l-.928-1.045-3.25,2.437h-.116a.359.359,0,0,1-.232-.116c-.116-.116-.116-.116,0-.232a.359.359,0,0,1,.116-.232l3.25-2.437-.928-1.161c-1.509-1.857-3.017-3.83-4.294-5.687l-.812-1.277-3.83,2.553h-.116a.359.359,0,0,1-.232-.116v-.232a.114.114,0,0,1,.116-.116l2.553-1.741c.116,0,.116-.116.232-.116l1.161-.812-.7-1.161c-1.045-1.741-2.089-3.714-3.017-5.571l-.7-1.509-3.714,1.973h-.116a.36.36,0,0,1-.232-.116v-.232a.114.114,0,0,1,.116-.116l3.83-2.089-.464-1.161a54.738,54.738,0,0,1-1.857-5.223l-.464-1.393L63.142,167h-.116a.25.25,0,0,1-.232-.232v-.232l.116-.116,4.41-1.277-.348-1.393c-.464-1.741-.928-3.482-1.277-5.339l-.348-1.625-5.107,1.393h-.116a.25.25,0,0,1-.232-.232v-.232l.116-.116,5.223-1.393L65,154.932c-.348-2.437-.7-4.874-.812-7.2l-.116-1.509-4.99.232a.25.25,0,0,1-.232-.232c0-.116,0-.116.116-.232a.405.405,0,0,1,.232-.116l4.99-.232v-1.509a73.974,73.974,0,0,1,.232-8.82l.116-1.277-5.687-1.277c-.116,0-.232-.232-.232-.348a.25.25,0,0,1,.232-.232h.116l5.571,1.277.232-1.741c.348-2.553.7-5.223,1.277-7.776l.232-1.277-4.758-1.393c-.116,0-.232-.232-.232-.348a.25.25,0,0,1,.232-.232h.116l4.758,1.393.348-1.509a73.35,73.35,0,0,1,2.089-7.2c0-.116.116-.232.116-.348l.58-1.509-1.393-.464h-.116l-4.178-1.741c-.116-.116-.232-.232-.116-.348,0-.116.116-.116.232-.116h.116l5.687,2.437.58-1.509c1.045-2.785,2.205-5.455,3.482-8.124l.58-1.277-4.526-2.321a.114.114,0,0,1-.116-.116v-.232c0-.116.116-.116.232-.116h.116l4.41,2.205.7-1.393a7.4,7.4,0,0,1,.928-1.625c.812-1.509,1.625-3.018,2.553-4.526l.812-1.277-4.178-2.321c-.116-.116-.232-.232-.116-.348a.359.359,0,0,1,.232-.116h.116l4.178,2.321.812-1.277c1.509-2.437,3.134-4.874,4.874-7.2l.928-1.277-4.874-3.25a.426.426,0,0,1-.116-.348.359.359,0,0,1,.232-.116h.116l4.874,3.366.928-1.161c1.393-1.741,2.785-3.6,4.294-5.339l.928-1.045-3.714-3.366c-.116-.116-.116-.116-.116-.232a.359.359,0,0,1,.116-.232c.116-.116.116-.116.232-.116a.359.359,0,0,1,.232.116l3.6,3.366,1.045-1.161c.348-.348.58-.7.928-1.045l.348-.348A93.761,93.761,0,0,1,106.664,58.6c1.741-1.393,3.482-3.6,3.25-5.455-.232-1.161-1.161-2.089-2.9-2.785a6.809,6.809,0,0,0-2.669-.464,16.67,16.67,0,0,0-6.267,1.625c-16.248,7.312-28.9,23.211-37.719,47.351C50.84,120.927,48.519,141.237,52.233,158.878Z" transform="translate(-70.99 -51.379)"/><path class="i" d="M182.381,250.571a20.978,20.978,0,0,0-8.472-11.141,25.827,25.827,0,0,0-13.695-3.83,20.852,20.852,0,0,0-12.3,3.6h-.348l-.232.116a15.462,15.462,0,0,1-7.428,1.973,11.328,11.328,0,0,1-5.107-1.161,8.653,8.653,0,0,1-1.393-.812l-.464-.348-.58.116h-.116a23.546,23.546,0,0,0-6.963-1.045,30.13,30.13,0,0,0-15.2,4.41,27.369,27.369,0,0,0-9.169,8.7L99.4,253.473l83.793-1.045Z" transform="translate(-63.146 -21.561)"/><path class="j" d="M228.473,113.679c-5.687-21.935-21.587-41.432-42.709-52.11-19.614-9.981-41.432-11.49-61.278-4.178a64.7,64.7,0,0,0-14.623,7.544,9.147,9.147,0,0,0-2.669-3.6c1.509-1.277,4.178-4.062,3.714-7.079-.232-1.277-1.045-3.134-4.178-4.41-3.83-1.509-7.892,0-10.677,1.161-.116.116-.348.116-.464.232a13.576,13.576,0,0,0-4.294-8.588c-3.366-2.9-8.472-3.366-11.838-1.161a9.183,9.183,0,0,0-2.669,11.838,11.856,11.856,0,0,0,6.963,5.455C72.84,67.72,63.9,81.415,57.173,99.636c-8.24,22.515-10.445,43.173-6.731,61.278,5.687,27.506,26.461,51.878,54.2,63.6a105.285,105.285,0,0,0,36.674,7.892c-3.25,6.5-6.383,13.23-7.312,20.658a24.889,24.889,0,0,0,.812,11.141,17.226,17.226,0,0,0,1.741,3.6,32.55,32.55,0,0,0-19.5,4.41A29.748,29.748,0,0,0,102.9,291.827a1.525,1.525,0,0,0,.348,1.393,2.023,2.023,0,0,0,1.393.7l86.463,1.393h0a1.886,1.886,0,0,0,1.741-1.277c2.553-9.168-1.625-19.614-9.633-24.836a27.181,27.181,0,0,0-20.194-3.6c3.366-5.687,3.366-12.3,2.785-17.06a43.423,43.423,0,0,0-5.919-17.06,114.971,114.971,0,0,0,30.291-8.24c2.437-1.045,5.223-2.321,6.963-4.642,1.857-2.437,2.669-6.383.348-9.168-3.83-4.294-10.793-1.161-13-.116a99.081,99.081,0,0,1-24.6,7.66l-.232-4.178a82.864,82.864,0,0,0,18.337-4.41,81.018,81.018,0,0,0,46.075-42.709A78.6,78.6,0,0,0,228.473,113.679Zm-1.509,11.838c-4.062-1.509-9.865-1.161-13.114.464a11.981,11.981,0,0,0-6.5,11.374c.116.928.232,1.857.348,2.669.464,2.437.7,3.946-.232,4.99a4.648,4.648,0,0,1-3.83.812l-2.089-.348a21.549,21.549,0,0,0-3.946-.58h0c-5.455,0-9.633,4.062-11.374,8.124-1.857,4.41-1.741,9.169-1.277,13.23.116.928.232,1.973.348,2.9a42.23,42.23,0,0,1,.464,9.285c-.116,1.857-.812,3.946-2.321,4.41s-3.482-1.277-4.758-2.669c-5.107-5.107-10.329-10.445-13.114-17.176-2.437-5.8-2.785-13.927,2.089-19.033,3.366-3.6,8.936-5.571,16.6-5.687,1.625,0,4.178-.116,5.8-1.973a4.868,4.868,0,0,0,.116-5.8,7.173,7.173,0,0,0-4.41-2.785c-2.9-.812-5.919-.232-8.472.116h-.232c-2.553.348-4.99.7-7.079,0-1.741-.58-3.25-2.321-2.9-3.946.348-1.393,1.857-2.437,3.714-3.482,1.857-1.161,4.062-2.437,5.107-4.758,1.973-4.41-1.277-8.936-4.642-11.49-.7-.464-1.277-.928-1.973-1.393-2.321-1.625-4.526-3.134-5.455-5.339-1.161-3.017.464-6.615,2.785-8.588,2.785-2.437,6.731-3.482,10.1-4.178a77.856,77.856,0,0,1,33.54.7,76.879,76.879,0,0,1,15.087,29.13C225.92,118.205,226.616,121.919,226.964,125.517ZM175.2,60.873a5.93,5.93,0,0,1-1.161,4.062,5.86,5.86,0,0,1-4.41,2.553,12.615,12.615,0,0,1-2.089-.116,11.671,11.671,0,0,0-3.482,0,11.17,11.17,0,0,0-3.714,1.857,9.407,9.407,0,0,1-2.089,1.161,6.745,6.745,0,0,1-8.124-2.553,1.01,1.01,0,0,0-1.044-.464.978.978,0,0,0-.812.812,5.966,5.966,0,0,1-5.8,4.642,6.061,6.061,0,0,1-5.571-4.874.873.873,0,0,0-.58-.812,1.128,1.128,0,0,0-1.045.116c-2.321,1.509-4.99,3.134-7.776,3.366-2.437.232-5.455-1.045-6.035-3.482a5.553,5.553,0,0,1,1.857-4.758,8.013,8.013,0,0,1,2.321-1.509c.116,0,.116-.116.232-.116A70.729,70.729,0,0,1,175.2,60.873ZM74.117,161.03a62.161,62.161,0,0,0,19.614,31.219,87.006,87.006,0,0,0,39.808,19.382,76.9,76.9,0,0,0,8.82,1.277v5.339a88.978,88.978,0,0,1-18.337-2.205C103.6,211.4,85.374,198.633,75.394,181.92c-11.141-18.453-13.231-43.173-5.571-66.269A102.192,102.192,0,0,1,76.9,99.172,131.708,131.708,0,0,1,95.471,73.059l.348-.348.116-.116,1.857,2.553c-12.3,12.534-21.238,29.711-24.836,48.628A83.528,83.528,0,0,0,74.117,161.03Zm26.229-88.436-1.973-2.669c1.973-2.089,3.946-4.178,6.035-6.151a5.456,5.456,0,0,1,2.205,2.9.88.88,0,0,0,.232.464C104.64,68.881,102.435,70.622,100.346,72.595ZM87.464,55.882A8.995,8.995,0,0,1,79.92,51.7a5.521,5.521,0,0,1,1.509-7.2c1.973-1.393,5.223-.928,7.428.928a10.711,10.711,0,0,1,3.25,7.776A35.169,35.169,0,0,0,87.7,56C87.58,55.882,87.58,55.882,87.464,55.882ZM189.71,291.71l-82.749-1.277a20.711,20.711,0,0,1,2.089-4.99l80.544-1.044A19.374,19.374,0,0,1,189.71,291.71Zm-8.472-19.73a20.233,20.233,0,0,1,7.892,10.445l-78.8,1.044a26.872,26.872,0,0,1,8.7-8.24c6.963-4.062,14.391-5.223,21.006-3.25a.991.991,0,0,0,.812,0,7.4,7.4,0,0,0,1.625.928,12.8,12.8,0,0,0,5.8,1.277,16.726,16.726,0,0,0,8.124-2.205,1,1,0,0,0,.7-.348C163.017,267.222,173.926,267.338,181.238,271.981ZM156.4,232.637a39.113,39.113,0,0,1,5.8,16.248c.812,6.615-.464,12.534-3.482,16.6-3.134,4.062-9.633,6.847-14.739,4.41a12.27,12.27,0,0,1-5.8-6.847,21.022,21.022,0,0,1-.7-9.517c.928-7.428,4.41-14.391,7.776-21.122,3.6,0,7.312-.232,10.909-.58A2.151,2.151,0,0,0,156.4,232.637ZM186,212.327c4.41-2.089,7.428-2.321,8.7-.812,1.044,1.277.58,3.366-.348,4.758-1.277,1.625-3.482,2.669-5.571,3.6-26.577,11.49-57.448,11.954-82.633,1.277C79.456,209.89,59.61,186.563,54.155,160.1c-3.6-17.409-1.393-37.37,6.615-59.305,8.472-23.676,20.89-39.343,36.79-46.423a13.4,13.4,0,0,1,5.571-1.509,5.622,5.622,0,0,1,2.089.348c.812.348,1.857.928,1.973,1.625.116,1.045-.928,2.669-2.669,4.062a107.4,107.4,0,0,0-11.49,11.49l-.348.348c-.348.348-.58.7-.928,1.045L89.32,69.461a1.727,1.727,0,0,0-2.553.116,1.6,1.6,0,0,0,.116,2.437l2.669,2.437c-1.509,1.741-2.9,3.6-4.294,5.339l-3.714-2.437a1.855,1.855,0,0,0-2.553.464,1.718,1.718,0,0,0,.464,2.437l3.6,2.437c-1.741,2.437-3.366,4.758-4.874,7.2l-2.9-1.625a1.761,1.761,0,0,0-2.437.7,1.7,1.7,0,0,0,.58,2.437l2.785,1.625c-.928,1.509-1.741,3.017-2.553,4.526-.348.58-.58,1.161-.928,1.741l-3.017-1.509a1.834,1.834,0,0,0-2.437.7,1.649,1.649,0,0,0,.812,2.321l3.134,1.625c-1.277,2.785-2.437,5.455-3.482,8.24l-4.178-1.741a1.924,1.924,0,0,0-2.437.928,1.749,1.749,0,0,0,.928,2.321l4.294,1.741c.116,0,.116,0,.232.116-.116.232-.116.348-.232.58q-1.219,3.656-2.089,7.312l-3.134-.928a1.973,1.973,0,0,0-2.321,1.161,1.7,1.7,0,0,0,1.161,2.205L63.44,125.4c-.58,2.669-.928,5.339-1.277,7.892l-3.83-.928a1.853,1.853,0,0,0-2.205,1.277,1.721,1.721,0,0,0,1.393,2.089l4.41,1.045a77.26,77.26,0,0,0-.232,8.936l-3.482.116a1.808,1.808,0,0,0-1.741,1.857,1.721,1.721,0,0,0,1.857,1.625h.116l3.482-.116c.116,2.437.464,4.874.812,7.312l-3.83,1.045a1.853,1.853,0,0,0-1.277,2.205,1.743,1.743,0,0,0,1.741,1.277.7.7,0,0,0,.464-.116l3.482-.928c.348,1.857.812,3.6,1.277,5.455l-3.017.928a1.7,1.7,0,0,0-1.161,2.205,1.743,1.743,0,0,0,1.741,1.277,1.046,1.046,0,0,0,.58-.116l2.9-.928c.58,1.741,1.277,3.6,1.973,5.223l-2.669,1.393a1.735,1.735,0,0,0-.7,2.437,1.852,1.852,0,0,0,1.625.928,2.731,2.731,0,0,0,.928-.232l2.321-1.277c.928,1.973,1.973,3.83,3.017,5.687a.114.114,0,0,0-.116.116l-2.669,1.741a1.718,1.718,0,0,0-.464,2.437,1.984,1.984,0,0,0,1.509.812,1.872,1.872,0,0,0,1.045-.348L74,185.982c1.393,1.973,2.785,3.946,4.294,5.8l-1.973,1.509a1.709,1.709,0,0,0-.348,2.437,1.814,1.814,0,0,0,1.393.7,2.239,2.239,0,0,0,1.161-.348l2.089-1.625c1.625,1.741,3.366,3.482,5.107,5.106l-1.277,1.161a1.687,1.687,0,0,0-.116,2.437,1.864,1.864,0,0,0,1.277.58,1.745,1.745,0,0,0,1.277-.464l1.509-1.393c1.741,1.393,3.482,2.785,5.339,4.062l-1.393,1.973a1.669,1.669,0,0,0,1.509,2.669,1.691,1.691,0,0,0,1.509-.812l1.277-1.973c2.205,1.393,4.526,2.785,6.847,3.946l-1.045,2.205a1.749,1.749,0,0,0,.928,2.321,1.472,1.472,0,0,0,.7.116,1.643,1.643,0,0,0,1.625-1.045l.928-2.089c2.321,1.044,4.642,1.973,7.079,2.9,0,.116-.116.116-.116.232l-.58,2.785a1.807,1.807,0,0,0,1.393,2.089h.348a1.75,1.75,0,0,0,1.741-1.393l.58-2.669c1.973.58,3.83,1.161,5.8,1.625l1.741.348-.116,2.553a1.734,1.734,0,0,0,1.741,1.857h.116a1.876,1.876,0,0,0,1.857-1.625l.116-2.089c2.785.464,5.455.812,8.24,1.045l-.232,2.553a1.714,1.714,0,0,0,1.625,1.857h.116a1.876,1.876,0,0,0,1.857-1.625l.232-2.669a68.8,68.8,0,0,0,8.472-.116l.464,2.205a1.854,1.854,0,0,0,1.741,1.509h.348a1.851,1.851,0,0,0,1.509-2.089l-.348-1.857c2.553-.232,5.223-.58,7.776-1.045a6.044,6.044,0,0,0,1.625,3.6,1.922,1.922,0,0,0,1.393.58,1.49,1.49,0,0,0,1.161-.464,1.687,1.687,0,0,0,.116-2.437,3.152,3.152,0,0,1-.7-1.973c2.089-.464,4.294-.928,6.383-1.509l.928,2.669a1.786,1.786,0,0,0,1.741,1.161,1.046,1.046,0,0,0,.58-.116,1.839,1.839,0,0,0,1.161-2.205l-.928-2.437c2.089-.7,4.062-1.393,6.151-2.205l1.857,2.785a1.691,1.691,0,0,0,1.509.812,2.186,2.186,0,0,0,.928-.232,1.857,1.857,0,0,0,.58-2.437l-1.509-2.321A4.016,4.016,0,0,0,186,212.327Zm-29.711,5.107a100.876,100.876,0,0,1-10.213.812V213.14c1.161,0,2.437.116,3.6.116,2.089,0,4.178-.116,6.383-.232ZM176.711,204.9a78.776,78.776,0,0,1-56.752-1.045,5.373,5.373,0,0,1,2.437-3.6,5.784,5.784,0,0,1,5.223-.928,13.04,13.04,0,0,1,3.25,1.857c1.741,1.277,3.6,2.553,5.919,2.437,1.741,0,3.25-.928,4.642-1.625a8.566,8.566,0,0,1,3.83-1.393,8.5,8.5,0,0,1,3.482,1.277,10.447,10.447,0,0,0,3.714,1.509c2.785.464,5.107-.928,7.312-2.321.7-.348,1.277-.812,1.973-1.161,5.8-3.017,13.811-1.277,17.989,3.714C178.684,204.087,177.756,204.552,176.711,204.9Zm44.1-40.852a77.859,77.859,0,0,1-39.227,38.763,17.113,17.113,0,0,0-20.89-4.642c-.7.348-1.393.812-2.089,1.161-1.973,1.161-3.946,2.321-5.919,2.089a8.436,8.436,0,0,1-3.017-1.277,10,10,0,0,0-4.41-1.509,10.594,10.594,0,0,0-4.99,1.625,8.149,8.149,0,0,1-3.714,1.393c-1.625,0-3.134-.928-4.642-2.089a17.42,17.42,0,0,0-3.83-2.205A7.525,7.525,0,0,0,121,198.633a7.844,7.844,0,0,0-3.134,4.41,86.316,86.316,0,0,1-21.935-13.579,58.116,58.116,0,0,1-18.453-29.478,80.129,80.129,0,0,1-1.161-35.746c5.107-27.389,21.935-50.717,43.521-61.278a5.716,5.716,0,0,0-.7,4.294c.812,3.6,4.758,5.339,8.24,4.99,2.785-.232,5.339-1.625,7.544-2.9a8.222,8.222,0,0,0,7.2,5.223h.116a8.089,8.089,0,0,0,7.079-4.41,8.965,8.965,0,0,0,9.517,1.741,15.367,15.367,0,0,0,2.321-1.393A9.2,9.2,0,0,1,164.177,69a8.118,8.118,0,0,1,2.9,0,17.14,17.14,0,0,0,2.437.116,7.842,7.842,0,0,0,5.919-3.366,8.07,8.07,0,0,0,1.509-4.41c2.321.928,4.526,1.973,6.847,3.017A81.713,81.713,0,0,1,205.61,80.6a80.583,80.583,0,0,0-30.291.232c-3.714.7-8.356,1.973-11.838,4.99-3.83,3.366-5.455,8.472-3.83,12.534,1.277,3.25,4.178,5.223,6.731,6.963.7.464,1.277.928,1.857,1.277,2.553,1.973,4.642,4.874,3.6,7.2-.58,1.277-2.089,2.205-3.714,3.25-2.205,1.393-4.642,2.9-5.339,5.8-.812,3.6,2.089,6.847,5.223,8.008,2.9,1.045,6.035.7,8.936.232h.232c2.553-.348,4.874-.7,6.963-.232a4.172,4.172,0,0,1,2.321,1.393,1.65,1.65,0,0,1,.116,1.625c-.464.58-1.973.7-3.017.7-8.588.232-15.087,2.553-19.149,6.847-5.223,5.455-6.267,14.391-2.785,22.747,3.018,7.2,8.82,13.114,13.927,18.221,1.161,1.161,3.714,3.714,6.847,3.714a7.99,7.99,0,0,0,1.509-.232c2.785-.7,4.642-3.6,4.99-7.544a47.6,47.6,0,0,0-.464-9.981l-.348-2.785c-.348-3.6-.58-7.776,1.045-11.49,1.277-2.9,4.294-6.035,8.008-6.035h0a14.609,14.609,0,0,1,3.134.464c.7.116,1.509.348,2.321.464,3.017.348,5.455-.348,6.963-1.973,2.089-2.321,1.625-5.339,1.161-7.892a18.808,18.808,0,0,1-.348-2.321,8.168,8.168,0,0,1,4.642-7.892c3.482-1.741,9.633-1.161,11.838.58A68.817,68.817,0,0,1,220.813,164.048Z" transform="translate(-71.287 -52.952)"/><path class="j" d="M140.441,87.028c-4.526-5.571-13.695-10.677-21.587-9.4a37.043,37.043,0,0,0-8.008,2.9c-1.161.58-2.205,1.045-3.25,1.509L94.018,87.376c-2.205.928-4.758,1.857-6.731,3.83s-3.366,5.223-1.973,8.24a10.51,10.51,0,0,0,3.134,3.6c1.161.928,2.089,1.741,2.205,2.785.232,1.509-1.857,3.017-2.553,3.366l-1.045.7a11.962,11.962,0,0,0-4.526,3.83,7.636,7.636,0,0,0-.7,5.571,10.84,10.84,0,0,0,5.223,6.383,30.759,30.759,0,0,0,8.24,2.553c1.161.232,2.321.464,3.366.7,1.741.464,5.571,1.625,6.963,4.41L91,143.664c-1.161.812-3.017,2.089-3.366,4.41-.232,2.089,1.045,3.714,1.741,4.758l10.561,14.043c3.482,4.642,6.963,9.4,11.606,13.347,3.6,3.134,9.517,7.079,16.712,7.544h.116a1.786,1.786,0,0,0,1.741-1.161l7.428-20.426a13.32,13.32,0,0,0,.812-3.25c.116-3.714-2.9-6.963-8.356-8.82l-.58-.232c-3.017-1.045-6.267-2.205-7.2-4.642-.928-2.321.348-5.107,1.741-7.892l.116-.348c2.9-6.151,1.625-9.633,0-11.374a12.249,12.249,0,0,0-2.785-2.205,5.928,5.928,0,0,1-2.321-2.089,1.45,1.45,0,0,1,.232-1.277,4.256,4.256,0,0,1,3.017-1.741,24.1,24.1,0,0,1,4.062.116,23.187,23.187,0,0,0,4.062.232c7.079-.348,12.3-6.383,14.275-12.186C147.52,102.812,145.78,93.527,140.441,87.028Zm.928,22.631c-1.625,4.642-5.687,9.517-11.025,9.749-1.045,0-2.205-.116-3.482-.232a17.877,17.877,0,0,0-4.99-.116,8.052,8.052,0,0,0-5.571,3.366,5.356,5.356,0,0,0-.7,4.178c.7,1.973,2.321,3.017,3.714,3.946a6.8,6.8,0,0,1,1.973,1.509c1.625,1.857.58,5.223-.58,7.66l-.116.348c-1.509,3.134-3.25,6.963-1.741,10.677,1.625,3.83,5.919,5.339,9.285,6.615l.58.232c1.393.464,6.035,2.437,6.035,5.455a8.9,8.9,0,0,1-.58,2.205l-6.963,19.033c-5.571-.812-10.213-3.946-13.231-6.5-4.294-3.714-7.66-8.356-11.025-12.766L92.393,150.859c-.58-.812-1.161-1.625-1.045-2.205.116-.7,1.045-1.393,1.857-1.973l15.668-11.141a1.714,1.714,0,0,0,.7-1.857c-1.045-3.714-4.642-6.615-9.981-8.008-1.161-.348-2.437-.58-3.6-.812a22.658,22.658,0,0,1-7.2-2.089,7.473,7.473,0,0,1-3.482-4.294,3.292,3.292,0,0,1,.232-2.785,10.835,10.835,0,0,1,3.25-2.669c.348-.232.812-.464,1.161-.7,3.017-1.857,4.41-4.294,4.178-6.731-.232-2.321-1.973-3.714-3.482-4.99a7.148,7.148,0,0,1-2.205-2.437c-.7-1.393.116-3.25,1.277-4.41,1.393-1.393,3.482-2.205,5.571-3.017l13.579-5.455c1.161-.464,2.321-1.045,3.482-1.625a25.948,25.948,0,0,1,6.963-2.669,11.26,11.26,0,0,1,1.973-.116c5.919,0,12.65,3.946,16.132,8.24A21.682,21.682,0,0,1,141.369,109.659Z" transform="translate(-66.004 -46.959)"/><path class="j" d="M147.407,125.229a6.273,6.273,0,0,0-.58-7.2c-1.741-1.857-4.526-2.205-7.312-.928-2.437,1.161-4.758,3.6-4.41,6.5a6.173,6.173,0,0,0,5.571,5.107h.7A7.376,7.376,0,0,0,147.407,125.229Zm-1.857-1.045a4.978,4.978,0,0,1-4.758,2.437,4.337,4.337,0,0,1-3.714-3.366c-.232-1.857,1.509-3.6,3.25-4.41,1.509-.7,3.6-.928,4.874.464A4.168,4.168,0,0,1,145.55,124.185Z" transform="translate(-57.418 -40.71)"/><path class="j" d="M140.663,115.721h.7a7.9,7.9,0,0,0,3.134-1.509,18.111,18.111,0,0,0,6.035-8.356,7.928,7.928,0,0,0,.464-3.482,3.868,3.868,0,0,0-2.437-3.25,4.236,4.236,0,0,0-4.294,1.277,25,25,0,0,0-4.062,6.035,29.591,29.591,0,0,1-1.625,2.785c-.58.812-1.973,3.134-.812,5.107A3.522,3.522,0,0,0,140.663,115.721Zm-.464-5.455c.58-.928,1.045-1.857,1.625-2.9a25.832,25.832,0,0,1,3.714-5.571,2.042,2.042,0,0,1,2.089-.7,1.885,1.885,0,0,1,1.044,1.625,5.364,5.364,0,0,1-.348,2.553,14.819,14.819,0,0,1-5.339,7.428,5.072,5.072,0,0,1-2.089,1.045,1.959,1.959,0,0,1-1.625-.464C139.039,112.587,139.271,111.659,140.2,110.266Z" transform="translate(-57.058 -43.504)"/><path class="j" d="M177.5,138.348a8.218,8.218,0,0,0-5.8,8.124,8.382,8.382,0,0,0,6.5,7.66,9.019,9.019,0,0,0,1.857.232,8.917,8.917,0,0,0,7.544-4.178,7.889,7.889,0,0,0-.928-9.169A8.88,8.88,0,0,0,177.5,138.348Zm8.124,10.909a6.663,6.663,0,0,1-7.079,3.018,6.174,6.174,0,0,1-.464-11.954,5.965,5.965,0,0,1,6.731,1.973A5.788,5.788,0,0,1,185.629,149.258Z" transform="translate(-51.539 -37.233)"/></g></g></g></svg>