<svg xmlns="http://www.w3.org/2000/svg" xmlns:xlink="http://www.w3.org/1999/xlink" viewBox="0 0 166 166"><defs><style>.a{fill:#9ecc50;}.b{fill:#7fa53f;}.c{fill:#f7f6d0;}.d{fill:#ede83e;}.e{fill:#000a15;}.f{fill:#001013;}.g{fill:#7da43f;}.h{filter:url(#a);}</style><filter id="a" x="0" y="0" width="166" height="166" filterUnits="userSpaceOnUse"><feOffset dy="3" input="SourceAlpha"/><feGaussianBlur stdDeviation="3" result="b"/><feFlood flood-opacity="0.302"/><feComposite operator="in" in2="b"/><feComposite in="SourceGraphic"/></filter></defs><g transform="translate(9 6.673)"><g class="h" transform="matrix(1, 0, 0, 1, -9, -6.67)"><path class="a" d="M74,0A74,74,0,1,1,0,74,74,74,0,0,1,74,0Z" transform="translate(9 6)"/></g><path class="b" d="M93.243,52.755c-.569.364-.672-.159-.933-.466A.8.8,0,0,1,93.243,52.755Z" transform="translate(-15.91 -14.853)"/><path class="c" d="M88.529,52.1c.541,1.493,1.866,2.285,2.929,3.34,3.5,3.591,3.591,4.244,0,7.677a5.6,5.6,0,0,0-1.922,5.009c.215,2.2,1.157,3.246,3.414,3.414,1.362.1,2.743,0,4.1.065,2.22.1,3.284,1.175,3.312,3.414.047,3.321,0,6.642,0,9.963,0,2.743-1.045,3.881-3.815,3.731-2.584-.14-4.664.457-6.194,2.659a3.507,3.507,0,0,0,.093,4.72c.774.933,1.716,1.754,2.537,2.668a3.013,3.013,0,0,1-.056,4.59c-2.36,2.444-4.767,4.832-7.192,7.2-1.866,1.866-3.358,1.866-5.177-.1-1.67-1.866-3.461-2.9-6.045-2.565-2.267.3-3.4,1.259-3.61,3.526v.868c-.093,5.8-.28,5.989-6.2,5.989H57.773c-3,0-4.011-1.007-4.03-4.049,0-2.1.149-4.132-1.632-5.8-2.2-2.043-3.535-2.211-5.709-.177-.793.737-1.549,1.511-2.3,2.295a3.9,3.9,0,0,1-2.621,1.353,3.871,3.871,0,0,1-2.425-1.287c-2.351-2.351-4.748-4.664-7.062-7.024-1.866-1.95-1.866-3.2.065-5.2,1.716-1.791,3.937-3.228,3.806-6.213-.093-2.276-.746-3.2-3.013-3.368-1.651-.121-3.321,0-4.972-.075-2.425-.075-3.554-1.007-3.61-3.377-.084-3.461-.093-6.922,0-10.392.065-2.313,1.213-3.3,3.619-3.368h4.543a4.664,4.664,0,0,0,4.123-2.8c.746-1.53-.448-2.715-1.455-3.731s-2.257-2.229-3.349-3.386c-1.521-1.623-1.614-2.976-.1-4.562,2.481-2.621,5.047-5.159,7.649-7.659a2.937,2.937,0,0,1,4.44.056c1.11,1.035,2.164,2.127,3.228,3.209a4.72,4.72,0,0,0,5.177,1.222c1.688-.625,1.549-2.425,1.576-3.946s-.047-3.032,0-4.543c.14-2.257,1.194-3.284,3.433-3.312q5.093-.084,10.177,0c2.341,0,3.433,1.138,3.526,3.452v3.9a4.913,4.913,0,0,0,2.985,4.422c1.688.914,2.854-.364,3.993-1.353.933-.8,1.744-1.726,2.621-2.584C82.465,48,83.8,48,85.8,49.973c.466.448.933.858,1.446,1.278l.513.438h-.047c.224.308.326.83.933.466ZM86.262,81.018a22.816,22.816,0,1,1,0-.028Z" transform="translate(-11.336 -14.17)"/><path class="d" d="M140.1,96.911a9.4,9.4,0,0,0,3.4-.849c1.866-.681,2.9,0,3.47,1.754s1.175,3.731,1.866,5.541c.578,1.614.121,2.649-1.53,3.172a12.452,12.452,0,0,0-2.015.765,3.274,3.274,0,0,0-1.707,2.8,2.369,2.369,0,0,0,1.642,2.313l1.744.877a2.071,2.071,0,0,1,1.082,3.05c-.933,1.94-1.866,3.89-2.9,5.8a2.192,2.192,0,0,1-3.414,1.026,4.431,4.431,0,0,0-2.211-.793c-2.565,0-3.8,1.623-3.125,4.151.933,3.461.933,3.479-2.416,4.6-1.511.5-3,1.054-4.515,1.511s-2.8.112-3.312-1.726a3.666,3.666,0,0,0-1.772-2.575c-2.1-1.129-3.069-.933-4.244,1.129-1.866,3.274-1.866,3.274-5.289,1.567-1.231-.606-2.463-1.213-3.731-1.866-2.127-1.091-2.323-1.7-1.334-3.955a11.82,11.82,0,0,0,.672-1.6,3.563,3.563,0,0,0-1-3.386c-.718-.8-1.726-.485-2.631-.168-.616.215-1.241.392-1.866.6a2,2,0,0,1-2.8-1.278c-.8-2.164-1.567-4.338-2.248-6.53-.55-1.772.625-2.5,2.043-2.957s2.64-.737,3.414-2.08.616-2.313-.69-3.125c-.121-.075-.261-.131-.382-.205-4.31-2.509-4.31-2.509-2.09-6.95l.28-.578c2.248-4.422,1.922-4.991,6.81-2.463a2.957,2.957,0,0,0,3.433-.354c.933-.774.42-1.866.131-2.8-1.418-4.664-1.409-4.664,3.284-6.259.271-.093.541-.205.812-.289,4.543-1.521,4.562-1.53,6.437,2.966a3.386,3.386,0,0,0,2.621,2.332c1.269.159,1.716-1.11,2.248-2.034.215-.382.382-.784.578-1.166,1.409-2.8,1.866-2.966,4.664-1.6,1.483.737,2.948,1.521,4.459,2.211,1.772.821,2.034,2.015,1.222,3.731-.644,1.315-1.754,2.528-.933,4.226C138.753,96.417,139.239,97.1,140.1,96.911Zm-30.429,12a6.258,6.258,0,1,1,.028,0Z" transform="translate(-16.412 -16.976)"/><path class="e" d="M87.383,82.111A23.244,23.244,0,1,1,64.218,58.785,23.24,23.24,0,0,1,87.383,82.111ZM64.062,63.855a18.373,18.373,0,1,0,.009,0Z" transform="translate(-12.457 -15.291)"/><path class="f" d="M110.41,109.64a15,15,0,1,1,14.8,15.14A15,15,0,0,1,110.41,109.64Zm15.037-11.67a11.735,11.735,0,1,0,11.661,11.81A11.735,11.735,0,0,0,125.447,97.97Z" transform="translate(-17.126 -17.709)"/><path class="g" d="M64.439,64.22a18.06,18.06,0,1,1-12.9,5.4A18.2,18.2,0,0,1,64.439,64.22Z" transform="translate(-12.825 -15.656)"/><path class="g" d="M125.68,98.2a11.735,11.735,0,1,1-11.81,11.66A11.735,11.735,0,0,1,125.68,98.2Z" transform="translate(-17.358 -17.938)"/></g></svg>