<svg xmlns="http://www.w3.org/2000/svg" viewBox="0 0 483.71 619.76"><defs><style>.a{fill:#fff;}</style></defs><title>earphone-background</title><path class="a" d="M446.31,241.57c4.61,7.82,9.13,15.71,13.86,23.46,7.67,12.59,15.47,25.09,23.55,38.15l-10.26,6.63c.88,10.29,2.42,20.32,2.45,30.35.1,30.81-10.42,58.27-28.27,83-14.52,20.09-32.17,37-55.56,46.18-37.41,14.62-74.51,12-110.84-4.58-.44-.2-.89-.37-1-.43-7.92,8.25-15.51,16.54-23.51,24.41-20.79,20.44-45,34.68-73.71,41.27-20,4.59-40,9.64-58.58,18.8-5.09,2.51-9.7,6-14.92,9.32l7.63,8.77-40.47,37.5L61.9,589.26,102.64,551l5.49,5.41c11.39-10.33,25.29-16,39.81-20.28,13.67-4,27.35-8.13,41.22-11.35,25.3-5.87,45.77-19.92,64.36-37.11,8.25-7.63,15.7-16.14,23.43-24.17-7-5.4-13.39-10.28-19.73-15.22-7.34-5.72-11.95-13.41-14.7-22.08-4.26-13.38,3.08-28.32,16.71-34.44a77.08,77.08,0,0,1,13.11-4.61c17.06-4.19,28.81,5,29.28,22.69.4,14.92-5.72,27.75-12.94,40.2-2.07,3.57-4.44,7-6.85,10.7a132.7,132.7,0,0,0,51.59,13.89c22.89,1.61,45.27-.94,65.74-12C429.48,446.29,450,421,462.93,389.45c9.81-24,12.71-48.77,7.18-74.31-.17-.78-.4-1.55-.72-2.78l-6.55,3.79-38.52-62.65,8.34-5.78c-6.87-4.65-13-9.71-19.82-13.24-20.48-10.52-42.1-9.61-63.79-4.7-27,6.11-51.8,18-76.43,30.25-22,11-43.87,22.46-66.42,32.29-21.82,9.51-44.81,13.1-68.62,7.48-17.2-4.06-30.18-13.87-40.49-27.87-6-8.15-12.4-16-18.71-24.14L73,250.66,64.62,241l13.9-10.42,7,10.62-4.64,4c11.92,14.39,21.18,30.82,36,42.11,15.07,11.49,33,14.13,51.63,12.65,22.09-1.75,42-10.25,61.43-20.08,29.36-14.84,57.89-31.49,89-42.58a279.77,279.77,0,0,1,41.64-11.24c20.37-3.87,40.37-1.83,59.42,7.85q-3.65-2.88-7.31-5.75c-2.48-1.94-5-3.85-7.45-5.79-12.1-9.51-24.41-18.75-36.22-28.61-12.71-10.6-21.44-24.45-29-38.94-9.83-18.93-18.73-38.34-28.68-57.2-15.2-28.8-39-47.23-70.26-56.09-.94-.27-1.9-.46-3.17-.76L235,46.67c-2-.59-4-1.17-6-1.78s-3.73-1.2-5.87-1.9l6.1-15.62,11.4,5.2-2.25,6.58a116.16,116.16,0,0,1,44.45,20.47c17.19,12.67,28.6,29.75,37.83,48.62,8.64,17.67,17.35,35.3,26.42,52.75,10,19.28,25.35,33.91,42.39,46.94,15.91,12.17,31.76,24.4,48.17,37l7.33-4.9ZM279.17,459.26c8.17-11.23,15.13-22.74,17.72-36.05a56.93,56.93,0,0,0,0-20.1c-1.22-7.11-6.23-11.88-13.7-13.38-9.66-1.94-17.68,2.09-25.84,6.51-13.72,7.43-15.51,19.23-10.62,31.31,6.11,15.08,18.78,23.83,32.46,31.72"/><path class="a" d="M202.43,15.83c-8.23-3.5-16.67-6.57-24.65-10.56-11.95-6-23.76-7.53-36-1.19L135,10a21.45,21.45,0,0,1-1.42,2.53c-9.49,12.68-7.43,29.66,5,41.25,10.17,9.45,27.75,9.37,38.91.2,7.24-5.94,10.54-13.69,11.55-23L221,42.28l6.18-15.93ZM175.86,36a14.08,14.08,0,0,1-3.53,17.16c-5.1,4.26-11.08,5-17.33,3.94-9.54-1.55-17.25-6-21.3-15.16-3.65-8.24-.49-15.59,7.76-19.14C153.48,17.65,170.35,24.12,175.86,36Z"/><path class="a" d="M45,618.25l5.44-8.41,4.62,4.65-8.75,5.27Z"/><path class="a" d="M51.89,156.87c-10.88-8.91-28-9.34-38.93-1-11.75,9-16.12,24.63-10.55,37.88,5.64,13.42,20.06,21.6,34.32,18.87,4.05-.78,5.77.68,8.05,3.49,6.12,7.56,12.68,14.76,19.26,22.33l13.25-9.78c-6-8.51-11.63-16.69-17.52-24.66-1.8-2.43-2.2-4-.57-7A31.76,31.76,0,0,0,51.89,156.87ZM47.05,199.2a23.22,23.22,0,0,1-33.32-2.53c-8.8-10.24-7.48-24.55,3.1-33.63A23.56,23.56,0,0,1,47.05,199.2Z"/><path class="a" d="M71.3,601.82l-13.2,13L50.64,607,65,594.57Z"/><circle class="a" cx="31.42" cy="181.09" r="3.72" transform="translate(-111.1 65.03) rotate(-41)"/><ellipse class="a" cx="153.79" cy="40.34" rx="2.18" ry="3.72" transform="translate(65.58 172.62) rotate(-71)"/></svg>