<svg xmlns="http://www.w3.org/2000/svg" viewBox="0 0 742 507.87"><defs><style>.a{fill:#fff;}</style></defs><title>laptop-outline</title><path class="a" d="M718.49,507.87h-697l-.11,0a15,15,0,0,1-4.92-2.06A47.62,47.62,0,0,1,.05,483.06L0,482.91V477.2L.15,477a120.37,120.37,0,0,1,10.22-14c17.74-18.42,35.68-36.44,53-53.86a8.48,8.48,0,0,0,2.68-5.52L63,29.57A29.6,29.6,0,0,1,92.54,0H646.65a29.15,29.15,0,0,1,29.11,29.12v373.4a8.54,8.54,0,0,0,2.59,6.24c17.23,17.3,35,35.19,52.71,53.53l0,0a131.91,131.91,0,0,1,10.75,14.61l.16.25v5.72l-.06.16a49.33,49.33,0,0,1-15.11,21.59A12.4,12.4,0,0,1,718.49,507.87Zm-696.73-2H718.13a10.48,10.48,0,0,0,7.39-2.71A47.38,47.38,0,0,0,740,482.57v-4.79a129.89,129.89,0,0,0-10.41-14.12c-17.64-18.32-35.44-36.19-52.65-53.47a10.54,10.54,0,0,1-3.18-7.68V29.12A27.15,27.15,0,0,0,646.65,2H92.54A27.6,27.6,0,0,0,65,29.56l3.12,374.05a10.49,10.49,0,0,1-3.28,6.89c-17.32,17.39-35.25,35.4-52.94,53.76A118.43,118.43,0,0,0,2,477.77v4.8a45.58,45.58,0,0,0,15.65,21.57A13,13,0,0,0,21.76,505.86Z"/><path class="a" d="M432.08,450.18a22.51,22.51,0,0,1,14.27,6l18,18.17.07.07.08.06a4.69,4.69,0,0,1-3.53,8.31h-.25L281,484.07h-.19l-.18,0a4.37,4.37,0,0,1-3.1-8l.18-.11.15-.15L299,455.88a24,24,0,0,1,14.33-5.7H432.08m0-2H313.28a25.85,25.85,0,0,0-15.61,6.22l-21.16,20a6.37,6.37,0,0,0,4.51,11.7l179.75-1.34a6.56,6.56,0,0,0,5-11.84l-18.06-18.2a24.49,24.49,0,0,0-15.61-6.51Z"/></svg>