<svg xmlns="http://www.w3.org/2000/svg" xmlns:xlink="http://www.w3.org/1999/xlink" viewBox="0 0 234.912 234.912"><defs><style>.a{fill:#f8f8f8;}.b{fill:#f0f2fa;}.c{fill:#d8deec;}.d{fill:#939baa;}.e,.k{fill:#fff;}.f{fill:#af7979;}.g{fill:#ed6d66;}.h{fill:#f9d889;}.i{fill:#bfc7d8;}.j,.k{stroke:none;}.l{filter:url(#a);}</style><filter id="a" x="0" y="0" width="234.912" height="234.912" filterUnits="userSpaceOnUse"><feOffset dy="3" input="SourceAlpha"/><feGaussianBlur stdDeviation="3" result="b"/><feFlood flood-opacity="0.302"/><feComposite operator="in" in2="b"/><feComposite in="SourceGraphic"/></filter></defs><g transform="translate(-612 -5120)"><g class="l" transform="matrix(1, 0, 0, 1, 612, 5120)"><g class="a" transform="translate(9 6)"><path class="j" d="M 108.4557876586914 215.9115600585938 C 101.1643981933594 215.9115600585938 93.87786865234375 215.1770629882812 86.79864501953125 213.7284240722656 C 79.89981842041016 212.3167266845703 73.11392974853516 210.2102661132812 66.62945556640625 207.4675598144531 C 60.26248168945312 204.7745666503906 54.12145614624023 201.4413146972656 48.37692642211914 197.5603942871094 C 42.68675994873047 193.7161712646484 37.3359260559082 189.3013458251953 32.47306442260742 184.4385070800781 C 27.61023139953613 179.5756530761719 23.19539833068848 174.2248229980469 19.35117721557617 168.5346527099609 C 15.47025966644287 162.7901153564453 12.1370096206665 156.6490936279297 9.444009780883789 150.2821197509766 C 6.701315402984619 143.7976531982422 4.59484338760376 137.0117645263672 3.183148860931396 130.1129302978516 C 1.734509825706482 123.0337066650391 1.000009894371033 115.7471771240234 1.000009894371033 108.4557876586914 C 1.000009894371033 101.1643981933594 1.734509825706482 93.87786865234375 3.183148860931396 86.79864501953125 C 4.59484338760376 79.89981842041016 6.701315402984619 73.11392974853516 9.444009780883789 66.62945556640625 C 12.1370096206665 60.26248168945312 15.47025966644287 54.12145614624023 19.35117721557617 48.37692642211914 C 23.19539833068848 42.68675994873047 27.61023139953613 37.3359260559082 32.47306442260742 32.47306442260742 C 37.3359260559082 27.61023139953613 42.68675994873047 23.19539833068848 48.37692642211914 19.35117721557617 C 54.12145614624023 15.47025966644287 60.26248168945312 12.1370096206665 66.62945556640625 9.444009780883789 C 73.11392974853516 6.701315402984619 79.89981842041016 4.59484338760376 86.79864501953125 3.183148860931396 C 93.87786865234375 1.734509825706482 101.1643981933594 1.000009894371033 108.4557876586914 1.000009894371033 C 115.7471771240234 1.000009894371033 123.0337066650391 1.734509825706482 130.1129302978516 3.183148860931396 C 137.0117645263672 4.59484338760376 143.7976531982422 6.701315402984619 150.2821197509766 9.444009780883789 C 156.6490936279297 12.1370096206665 162.7901153564453 15.47025966644287 168.5346527099609 19.35117721557617 C 174.2248229980469 23.19539833068848 179.5756530761719 27.61023139953613 184.4385070800781 32.47306442260742 C 189.3013458251953 37.3359260559082 193.7161712646484 42.68675994873047 197.5603942871094 48.37692642211914 C 201.4413146972656 54.12145614624023 204.7745666503906 60.26248168945312 207.4675598144531 66.62945556640625 C 210.2102661132812 73.11392974853516 212.3167266845703 79.89981842041016 213.7284240722656 86.79864501953125 C 215.1770629882812 93.87786865234375 215.9115600585938 101.1643981933594 215.9115600585938 108.4557876586914 C 215.9115600585938 115.7471771240234 215.1770629882812 123.0337066650391 213.7284240722656 130.1129302978516 C 212.3167266845703 137.0117645263672 210.2102661132812 143.7976531982422 207.4675598144531 150.2821197509766 C 204.7745666503906 156.6490936279297 201.4413146972656 162.7901153564453 197.5603942871094 168.5346527099609 C 193.7161712646484 174.2248229980469 189.3013458251953 179.5756530761719 184.4385070800781 184.4385070800781 C 179.5756530761719 189.3013458251953 174.2248229980469 193.7161712646484 168.5346527099609 197.5603942871094 C 162.7901153564453 201.4413146972656 156.6490936279297 204.7745666503906 150.2821197509766 207.4675598144531 C 143.7976531982422 210.2102661132812 137.0117645263672 212.3167266845703 130.1129302978516 213.7284240722656 C 123.0337066650391 215.1770629882812 115.7471771240234 215.9115600585938 108.4557876586914 215.9115600585938 Z"/><path class="k" d="M 108.4557876586914 2 C 101.2315826416016 2 94.01251983642578 2.727676391601562 86.99911499023438 4.162811279296875 C 80.16496276855469 5.561294555664062 73.44270324707031 7.647994995117188 67.01899719238281 10.364990234375 C 60.71148681640625 13.03285217285156 54.62773132324219 16.33502197265625 48.93672180175781 20.17979431152344 C 43.29928588867188 23.98837280273438 37.99801635742188 28.36235046386719 33.18017578125 33.18017578125 C 28.36235046386719 37.99801635742188 23.98837280273438 43.29928588867188 20.17979431152344 48.93672180175781 C 16.33502197265625 54.62773132324219 13.03285217285156 60.71148681640625 10.364990234375 67.01899719238281 C 7.647994995117188 73.44270324707031 5.561294555664062 80.16496276855469 4.162811279296875 86.99911499023438 C 2.727676391601562 94.01251983642578 2 101.2315826416016 2 108.4557876586914 C 2 115.6799926757812 2.727676391601562 122.899055480957 4.162811279296875 129.9124603271484 C 5.561294555664062 136.7466125488281 7.647994995117188 143.4688720703125 10.364990234375 149.892578125 C 13.03285217285156 156.2000732421875 16.33502197265625 162.2838439941406 20.17979431152344 167.974853515625 C 23.98837280273438 173.6122894287109 28.36235046386719 178.9135437011719 33.18017578125 183.7314147949219 C 37.99801635742188 188.5492248535156 43.29928588867188 192.9232025146484 48.93672180175781 196.7317810058594 C 54.62773132324219 200.5765533447266 60.71148681640625 203.8787231445312 67.01899719238281 206.5465850830078 C 73.44270324707031 209.2635803222656 80.16496276855469 211.3502807617188 86.99911499023438 212.7487640380859 C 94.01251983642578 214.1838989257812 101.2315826416016 214.9115753173828 108.4557876586914 214.9115753173828 C 115.6799926757812 214.9115753173828 122.899055480957 214.1838989257812 129.9124603271484 212.7487640380859 C 136.7466125488281 211.3502807617188 143.4688720703125 209.2635803222656 149.892578125 206.5465850830078 C 156.2000732421875 203.8787231445312 162.2838439941406 200.5765533447266 167.974853515625 196.7317810058594 C 173.6122894287109 192.9232025146484 178.9135437011719 188.5492248535156 183.7314147949219 183.7314147949219 C 188.5492248535156 178.9135437011719 192.9232025146484 173.6122894287109 196.7317810058594 167.974853515625 C 200.5765533447266 162.2838439941406 203.8787231445312 156.2000732421875 206.5465850830078 149.892578125 C 209.2635803222656 143.4688720703125 211.3502807617188 136.7466125488281 212.7487640380859 129.9124603271484 C 214.1838989257812 122.899055480957 214.9115753173828 115.6799926757812 214.9115753173828 108.4557876586914 C 214.9115753173828 101.2315826416016 214.1838989257812 94.01251983642578 212.7487640380859 86.99911499023438 C 211.3502807617188 80.16496276855469 209.2635803222656 73.44270324707031 206.5465850830078 67.01899719238281 C 203.8787231445312 60.71148681640625 200.5765533447266 54.62773132324219 196.7317810058594 48.93672180175781 C 192.9232025146484 43.29928588867188 188.5492248535156 37.99801635742188 183.7314147949219 33.18017578125 C 178.9135437011719 28.36235046386719 173.6122894287109 23.98837280273438 167.974853515625 20.17979431152344 C 162.2838439941406 16.33502197265625 156.2000732421875 13.03285217285156 149.892578125 10.364990234375 C 143.4688720703125 7.647994995117188 136.7466125488281 5.561294555664062 129.9124603271484 4.162811279296875 C 122.899055480957 2.727676391601562 115.6799926757812 2 108.4557876586914 2 M 108.4557876586914 0 C 168.3542633056641 0 216.9115753173828 48.55731201171875 216.9115753173828 108.4557876586914 C 216.9115753173828 168.3542633056641 168.3542633056641 216.9115753173828 108.4557876586914 216.9115753173828 C 48.55731201171875 216.9115753173828 0 168.3542633056641 0 108.4557876586914 C 0 48.55731201171875 48.55731201171875 0 108.4557876586914 0 Z"/></g></g><g transform="translate(677 5186.7)"><path class="b" d="M307.442,16.794c-.019-2.346-.041-5-1.294-7.186-1.575-2.75-4.815-4.412-9.905-5.084a47.664,47.664,0,0,0-6.205-.4,50.548,50.548,0,0,0-14.258,2.07l-.485.142,1.82,19.493L272.75,21.69l-3.8,6.277-.461-19.023-.861.424A48.447,48.447,0,0,0,262.8,12.1c-.142.091-.277.18-.4.26a8.566,8.566,0,0,1-.936.566l-.348.167.031,64.635,1.027-.94a37.293,37.293,0,0,1,20.885-9.427,35.134,35.134,0,0,1,3.612-.186,37.074,37.074,0,0,1,20.106,5.955l.559.366-.441-.047a.128.128,0,0,1-.052-.015,36.777,36.777,0,0,0-20.164-6.04,35.106,35.106,0,0,0-3.6.185,36.842,36.842,0,0,0-19.114,7.954l.661,1.026c.427-.215.859-.423,1.29-.627l.315.758q1.014-.364,2.041-.688l.116.4q-2.2.564-4.351,1.316l.209,1.193L298.5,78.6l.124-.8c.545.181,1.087.368,1.625.566l.153.209.324-.01a8.889,8.889,0,0,0,4.257-.941l1.106-.65-.173-.065a5.318,5.318,0,0,0,1.046-1.472l.1-.2.026.013.07-.21.071-.145-.019-.01.1-.3c.04-.121.08-.24.113-.363l.157-.568.019.013.125-.972a24.241,24.241,0,0,0,.146-3.237ZM284.4,26.343a2.913,2.913,0,0,1-1.726-.37,2.953,2.953,0,0,1-.8-2.012L280.237,11A50.083,50.083,0,0,1,288.652,9.7c1.109-.074,2.239-.112,3.359-.112,1.48,0,2.973.066,4.434.194.177.018.359.03.543.042,1.592.111,2.755.281,3.215,1.475a17.09,17.09,0,0,1,.72,5.155l.614-.026-.612.047c.034.826.068,1.605.145,2.323l.823,7.635Zm0,0" transform="translate(-207.715 -3.278)"/><path class="b" d="M74.1,319.8l.154-1.206q-1.825-.491-3.7-.871l.117-.408q1.17.439,2.314.93l.4-.717.065.045.763-.958a36.987,36.987,0,0,0-20.1-9.4,39.414,39.414,0,0,0-24.871,4.95l-.3.183.05,2.35s0,.078,0,.1l.031.441-.026.01.03.46a6.1,6.1,0,0,0,.442,2.1l.082.188-.092.039.222.256.032.073.023-.01.276.319c1.125,1.3,3.014,1.475,4.889,1.475l.328,0,.558,0,.086-.026q1.388-.43,2.783-.8l.109.8Zm0,0" transform="translate(-23.016 -244.111)"/><path class="c" d="M361.249,29.024a50.563,50.563,0,0,0-8.3,1.258l-.535.128.983,7.811,3.74-4.336c.085-.1.285-.33.467-.33l.026,0c.145.016.282.185.373.3l1.861,2.291.482-.472a3.306,3.306,0,0,1,2.268-.928q.105,0,.208.007a3.24,3.24,0,0,1,2.339,1.3l.41.555,1.562-1.463a.938.938,0,0,1,.459-.29.254.254,0,0,1,.034,0c.271,0,.533.337.644.48l3.8,4.913.387-.1a4.933,4.933,0,0,1,1.12-.153l.673-.01-.161-1.51c-.073-.685-.107-1.419-.144-2.308a17.348,17.348,0,0,0-.746-5.291c-.586-1.525-2.167-1.635-3.563-1.732-.179-.012-.356-.023-.528-.039-1.48-.132-2.988-.2-4.48-.2C363.5,28.91,362.365,28.949,361.249,29.024Zm0,0" transform="translate(-280.34 -22.997)"/><path class="d" d="M357.437,58.467l.82-.53a6.064,6.064,0,0,1,3.305-.866c.2,0,.406.007.611.022a20.339,20.339,0,0,1,3.487.665l.28.07c.267.066.534.132.8.195l1.918.435-.075-.093a10.511,10.511,0,0,0,1.322.089,7.538,7.538,0,0,0,1.571-.158,13.336,13.336,0,0,0,2.416-.858c.478-.205.908-.388,1.345-.544l.8-.285-3.894-5.03a1.269,1.269,0,0,0-.945-.622h-.045l-.031,0a1.23,1.23,0,0,0-.693.4l-4.282,4-4.262-5.25a1.067,1.067,0,0,0-.57-.433l-.058-.017h-.088a1.062,1.062,0,0,0-.765.469l-3.5,4.064Zm0,0" transform="translate(-283.904 -39.5)"/><path class="e" d="M393.885,57.483l-.3-.435a3.624,3.624,0,0,0-2.7-1.558c-.085-.006-.169-.01-.253-.01a3.631,3.631,0,0,0-2.6,1.115l-.376.391,2.914,3.59Zm0,0" transform="translate(-308.374 -44.133)"/><path class="e" d="M70.884,23.854a3.615,3.615,0,0,1-1-.267,22.565,22.565,0,0,1-2.091-1.022c-.6-.321-1.172-.625-1.77-.886A48.223,48.223,0,0,0,58.073,19a50.278,50.278,0,0,0-11.846-1.417,51.123,51.123,0,0,0-5.144.261,48.46,48.46,0,0,0-17.807,5.369l-.332.177,1.219,58.559.9-.515a39.1,39.1,0,0,1,19.18-4.9,38.688,38.688,0,0,1,5.132.339A37.615,37.615,0,0,1,70.429,87.115l1.043,1.012L71.44,23.906Zm0,0" transform="translate(-18.253 -13.989)"/><path class="f" d="M491.756,77.811l-.713.169a2.2,2.2,0,0,1-.511.062,2.122,2.122,0,0,1-.891-.194l-.88-.41.413,50.341c.006.546,0,1.091-.03,1.621l-.034.71,3.185-.315.019-.535c.62-16.825.446-33.889-.518-50.717Zm0,0" transform="translate(-388.797 -61.599)"/><path class="f" d="M150.109,369.4l-74.124.675.173.745a5.677,5.677,0,0,1-.046,2.737l-.205.771,73.538.056-.474-.9a2.913,2.913,0,0,1,.338-3.077Zm0,0" transform="translate(-60.382 -293.85)"/><path class="f" d="M6.981,101.457a2.859,2.859,0,0,1-1.78.634,2.632,2.632,0,0,1-.4-.033l-.711-.114.036,46.609.869-.4a6.369,6.369,0,0,1,2.637-.577,6.129,6.129,0,0,1,.618.031l.689.07L7.957,100.66Zm0,0" transform="translate(-3.25 -80.072)"/><path class="g" d="M295.215,17.278l.49,20.206,4.253-7.023,4.778,4.528-1.929-20.638-.723.226a50.765,50.765,0,0,0-6.507,2.53Zm0,0" transform="translate(-234.836 -11.416)"/><path class="h" d="M442.134,332.267c-.295,3.5-1.313,4.74-2.368,5.56-1.7,1.321-4.121,1.342-5.887,1.358l-2.557.025-.15.1c-.019.013-.038.026-.056.04a3.292,3.292,0,0,0-1.019,4.182l-.126.661,4.254,0c3.177,0,6.455-.174,8.574-2.263,2.048-2.014,2.342-5.149,2.467-8.19l.087-2.3-3.177.317Zm0,0" transform="translate(-341.84 -263.653)"/><path class="h" d="M486.913,44.881l.022,2.755.347.133a2.47,2.47,0,0,0,1.42.438,2.6,2.6,0,0,0,.793-.123l.452-.145-.027-.475c-.1-1.643-.192-3.157-.291-4.631a4.77,4.77,0,0,0-.739-2.714,1.892,1.892,0,0,0-1.424-.689,1.293,1.293,0,0,0-.582.13l-.423.212.1.463A23.721,23.721,0,0,1,486.913,44.881Zm0,0" transform="translate(-386.967 -31.365)"/><path class="h" d="M19.309,341.469l.134-.432a6.053,6.053,0,0,0,.068-3.366l-.124-.459-3.79.033c-.136,0-.281,0-.436,0-1.734,0-3.876-.191-5.045-1.678a6.685,6.685,0,0,1-.97-4.019l-.07-3.355-.53-.062a6.67,6.67,0,0,0-3.954.759l-.321.174v1.761c0,2.873.123,5.412,1.59,7.38,2.124,2.855,6.189,3.252,10.264,3.256Zm0,0" transform="translate(-3.397 -260.987)"/><path class="h" d="M5.2,64.135a3.178,3.178,0,0,0,2.386-1.071l.37-.134L7.741,52.5,7.2,52.45c-.06-.006-.119-.009-.18-.009a2.9,2.9,0,0,0-2.39,1.651,8.1,8.1,0,0,0-.555,3.62l0,6.248.482.105A3.028,3.028,0,0,0,5.2,64.135Zm0,0" transform="translate(-3.238 -41.716)"/><path class="i" d="M379.742,81.708l-.066-.548h-.55a8.867,8.867,0,0,0-3.5.973,12.919,12.919,0,0,1-2.329.83,7.217,7.217,0,0,1-1.495.15,13.815,13.815,0,0,1-3.07-.424c-.358-.083-.716-.172-1.075-.263a21.2,21.2,0,0,0-3.551-.674c-.218-.016-.436-.024-.649-.024a6.153,6.153,0,0,0-3.9,1.206l-.268.214.27,2.144a2.468,2.468,0,0,0,2.927,2.735l17.943.1Zm0,0" transform="translate(-285.808 -64.561)"/><path d="M103.491,11.411a5.579,5.579,0,0,0-.915-3.173,2.715,2.715,0,0,0-2.068-1.007h-.018a2.2,2.2,0,0,0-.689.108,8.6,8.6,0,0,0-.647-1.424C97.442,2.927,94,1.13,88.637.422a49.955,49.955,0,0,0-17.68.856A50.948,50.948,0,0,0,54.634,8.123c-.144.093-.277.181-.4.264-1.036.684-1.282.846-2.291.439a21.428,21.428,0,0,1-2.011-.984c-.59-.314-1.2-.639-1.827-.914a49.06,49.06,0,0,0-8.084-2.722A51.121,51.121,0,0,0,22.745,3.031,49.108,49.108,0,0,0,4.234,8.71a.72.72,0,0,0-.375.649l.01.533A3.693,3.693,0,0,0,.642,12,8.861,8.861,0,0,0,0,16L.041,69.843c0,2.332,0,5.526,1.754,7.877,2.344,3.149,6.638,3.587,10.93,3.59l79.592.062h.068c3.358,0,6.824-.2,9.158-2.5,2.262-2.226,2.581-5.541,2.714-8.747A540.932,540.932,0,0,0,103.491,11.411ZM1.451,22.592a3.175,3.175,0,0,0,.5.041A3.475,3.475,0,0,0,4.12,21.86l.939,45.066a6.925,6.925,0,0,0-3.574.6ZM99.009,71.13a43.4,43.4,0,0,0-23.47-4.058,54.571,54.571,0,0,0-18.895,5.659A35.524,35.524,0,0,1,98.8,70.667a.72.72,0,0,0,.324.113C99.085,70.9,99.048,71.015,99.009,71.13Zm-92,2.325a5.655,5.655,0,0,1-.391-1.9.377.377,0,0,0,.067-.029,41.686,41.686,0,0,1,23.4-5.115,41.747,41.747,0,0,1,20.127,7.151A55.276,55.276,0,0,0,7.01,73.455Zm23.137-7.864A42.546,42.546,0,0,0,6.582,70.645c0-.033,0-.065,0-.1l-.042-1.972a38.577,38.577,0,0,1,24.47-4.865,36.63,36.63,0,0,1,19.766,9.242A42.58,42.58,0,0,0,30.147,65.591Zm-.234,4.389a54.7,54.7,0,0,1,17.632,3.413,71.009,71.009,0,0,0-34.872,2.029l-.469,0c-1.763.016-3.716-.073-4.749-1.263A54.133,54.133,0,0,1,29.913,69.979Zm21.161,5.093-35.333.321A68.735,68.735,0,0,1,51.075,75.072Zm37.372,1.106a3.537,3.537,0,0,0-.4,3.745l-71.724-.056a6.286,6.286,0,0,0,.052-3.034ZM56.534,75.022a53.742,53.742,0,0,1,34.248-.312Zm36.459-.341a.413.413,0,0,0-.187-.14A54.549,54.549,0,0,0,60.639,72.92a56.043,56.043,0,0,1,36.318.9A8.308,8.308,0,0,1,92.993,74.681Zm4.746-1.446a56.853,56.853,0,0,0-39.422-.4,53.232,53.232,0,0,1,17.3-4.939,42.541,42.541,0,0,1,23.074,4A4.67,4.67,0,0,1,97.738,73.235Zm3.252-7.062-.405-49.37a2.724,2.724,0,0,0,1.15.252,2.8,2.8,0,0,0,.651-.077c.964,16.827,1.138,33.831.518,50.659l-1.945.193C100.985,67.317,101,66.768,100.991,66.173ZM100.5,8.678a1.29,1.29,0,0,1,.943.456,4.31,4.31,0,0,1,.608,2.374q.156,2.309.29,4.624a1.909,1.909,0,0,1-1.687-.244.39.39,0,0,0-.074-.043l-.019-2.334a24.216,24.216,0,0,0-.368-4.769A.679.679,0,0,1,100.5,8.678ZM67.431,3.747l1.7,18.258-3.772-3.577a.413.413,0,0,0-.638.086l-3.295,5.44L61,6.247A50.2,50.2,0,0,1,67.431,3.747Zm-12.4,5.847c.122-.081.252-.166.39-.256a48.213,48.213,0,0,1,4.769-2.7l.454,18.747a.413.413,0,0,0,.307.389.405.405,0,0,0,.106.014.415.415,0,0,0,.354-.2l3.761-6.212,4.2,3.981a.413.413,0,0,0,.7-.339L68.237,3.5A49.229,49.229,0,0,1,88.448,1.855c4.887.645,7.98,2.208,9.453,4.779,1.173,2.044,1.194,4.618,1.212,6.888l.432,52.661a23.339,23.339,0,0,1-.141,3.153A36.989,36.989,0,0,0,54.05,73.057L54.019,10.2A8.9,8.9,0,0,0,55.027,9.594ZM22.892,4.469A49.649,49.649,0,0,1,39.676,5.61a47.589,47.589,0,0,1,7.845,2.642c.577.252,1.136.55,1.728.865A22.939,22.939,0,0,0,51.4,10.166a4.18,4.18,0,0,0,1.176.309l.03,62.212a38.082,38.082,0,0,0-21.4-10.41,40.245,40.245,0,0,0-24.7,4.64L5.313,9.769A47.757,47.757,0,0,1,22.892,4.469ZM1.936,12.65A2.235,2.235,0,0,1,3.9,11.344l.2,9.444a.407.407,0,0,0-.184.125,2.566,2.566,0,0,1-2.464.839l0-5.755A7.655,7.655,0,0,1,1.936,12.65ZM2.955,76.856C1.6,75.038,1.489,72.6,1.487,69.842V68.447a6.082,6.082,0,0,1,3.59-.689l.058,2.819a7.167,7.167,0,0,0,1.1,4.386c1.393,1.772,3.913,1.911,5.528,1.911l.454,0,3.3-.03a5.447,5.447,0,0,1-.062,3.025l-2.733,0C8.812,79.861,4.918,79.495,2.955,76.856Zm97.574.985c-1.946,1.915-5.085,2.086-8.144,2.086h-.066l-3.447,0a.41.41,0,0,0-.047-.292,2.68,2.68,0,0,1,.809-3.439.4.4,0,0,0,.034-.027l2.378-.022c1.854-.018,4.394-.041,6.256-1.486,1.187-.921,2.295-2.322,2.605-5.994l1.967-.195c-.02.531-.038,1.063-.061,1.594C102.691,72.981,102.415,75.984,100.529,77.842Zm0,0" transform="translate(0 0)"/><path d="M38.307,62.55h.027l4.607-.3a.414.414,0,0,0-.054-.825l-2.516.165,1.471-4.2a.409.409,0,0,0,.117.018.509.509,0,0,0,.069-.006l4.519-.759a38.961,38.961,0,0,1,1.814,4.132L46.5,61.08a.413.413,0,0,0,.067.82.4.4,0,0,0,.068-.006l3.753-.622a.413.413,0,1,0-.135-.815l-1.065.177a.43.43,0,0,0-.016-.063,39.719,39.719,0,0,0-5.223-9.741.413.413,0,0,0-.723.107l-3.7,10.557a.406.406,0,0,0-.022.15l-1.227.08a.413.413,0,0,0,.027.825Zm5.434-10.587a38.863,38.863,0,0,1,2.4,3.907l-4.005.672Zm0,0" transform="translate(-30.144 -40.3)"/><path d="M98.642,64.056a56.827,56.827,0,0,1,25.222.786.433.433,0,0,0,.1.014.413.413,0,0,0,.1-.813,57.646,57.646,0,0,0-25.591-.8.413.413,0,1,0,.159.811Zm0,0" transform="translate(-78.076 -49.461)"/><path d="M128.632,79.508a64.358,64.358,0,0,0-24.291-1.555.413.413,0,1,0,.105.82,63.543,63.543,0,0,1,23.978,1.534.423.423,0,0,0,.1.014.413.413,0,0,0,.1-.813Zm0,0" transform="translate(-82.713 -61.601)"/><path d="M104.833,93.891a.413.413,0,0,0,.084.822,71.966,71.966,0,0,1,23.858,1.53.391.391,0,0,0,.1.011.413.413,0,0,0,.094-.816A72.775,72.775,0,0,0,104.833,93.891Zm0,0" transform="translate(-83.097 -74.382)"/><path d="M51.624,137.589a111.821,111.821,0,0,1,35.512.116.775.775,0,0,0,.149.011.585.585,0,0,0,.556-.32c.077-.222-.113-.444-.425-.5a113.462,113.462,0,0,0-36.031-.118c-.314.05-.515.272-.449.494A.605.605,0,0,0,51.624,137.589Zm0,0" transform="translate(-40.508 -107.708)"/><path d="M94.082,152.537a126.6,126.6,0,0,0-34.217-.908c-.318.034-.539.246-.494.471a.573.573,0,0,0,.658.344,124.989,124.989,0,0,1,33.774.9.765.765,0,0,0,.148.011.585.585,0,0,0,.556-.32C94.583,152.811,94.393,152.588,94.082,152.537Zm0,0" transform="translate(-47.224 -120.018)"/><path d="M60.85,167.6c-.32.03-.548.236-.511.463a.562.562,0,0,0,.645.357,141.638,141.638,0,0,1,33.607.9.838.838,0,0,0,.133.009.578.578,0,0,0,.559-.33c.069-.223-.129-.442-.443-.488A143.308,143.308,0,0,0,60.85,167.6Zm0,0" transform="translate(-47.996 -132.837)"/><path d="M51.624,189.861a111.822,111.822,0,0,1,35.512.116.776.776,0,0,0,.149.01.584.584,0,0,0,.556-.319c.077-.222-.113-.444-.425-.5a113.439,113.439,0,0,0-36.031-.118c-.314.05-.515.271-.449.494A.605.605,0,0,0,51.624,189.861Zm0,0" transform="translate(-40.508 -149.289)"/><path d="M94.082,204.807a126.566,126.566,0,0,0-34.217-.909c-.318.035-.539.247-.494.472a.575.575,0,0,0,.658.344,124.956,124.956,0,0,1,33.774.9.766.766,0,0,0,.148.01.583.583,0,0,0,.556-.319C94.583,205.081,94.393,204.859,94.082,204.807Zm0,0" transform="translate(-47.224 -161.598)"/><path d="M60.85,219.87c-.32.03-.548.236-.511.463a.562.562,0,0,0,.645.356,141.679,141.679,0,0,1,33.607.9.838.838,0,0,0,.133.009.577.577,0,0,0,.559-.329c.069-.224-.129-.443-.443-.489A143.222,143.222,0,0,0,60.85,219.87Zm0,0" transform="translate(-47.996 -174.417)"/><path d="M51.624,242.135a111.8,111.8,0,0,1,35.512.116.776.776,0,0,0,.149.01.583.583,0,0,0,.556-.319c.077-.222-.113-.444-.425-.5a113.439,113.439,0,0,0-36.031-.118c-.314.05-.515.271-.449.494A.605.605,0,0,0,51.624,242.135Zm0,0" transform="translate(-40.508 -190.871)"/><path d="M94.082,257.08a126.567,126.567,0,0,0-34.217-.909c-.318.035-.539.247-.494.472a.575.575,0,0,0,.658.344,124.957,124.957,0,0,1,33.774.9.836.836,0,0,0,.148.01.583.583,0,0,0,.556-.319C94.583,257.355,94.393,257.132,94.082,257.08Zm0,0" transform="translate(-47.224 -203.18)"/><path d="M60.85,272.144c-.32.029-.548.236-.511.463a.562.562,0,0,0,.645.357,141.64,141.64,0,0,1,33.607.9.832.832,0,0,0,.133.008.576.576,0,0,0,.559-.329c.069-.223-.129-.442-.443-.488A143.221,143.221,0,0,0,60.85,272.144Zm0,0" transform="translate(-47.996 -215.999)"/><path d="M279.995,136.88a111.827,111.827,0,0,1,35.512-.242.764.764,0,0,0,.148.01.583.583,0,0,0,.553-.325c.075-.223-.117-.443-.429-.491a113.442,113.442,0,0,0-36.031.245c-.313.053-.513.276-.444.5A.6.6,0,0,0,279.995,136.88Zm0,0" transform="translate(-222.168 -107)"/><path d="M322.575,151.545a126.588,126.588,0,0,0-34.225-.564c-.317.038-.536.252-.489.477a.576.576,0,0,0,.661.338,124.942,124.942,0,0,1,33.781.557.83.83,0,0,0,.147.009.584.584,0,0,0,.554-.324C323.08,151.815,322.888,151.594,322.575,151.545Zm0,0" transform="translate(-228.982 -119.388)"/><path d="M289.492,166.96c-.319.032-.546.242-.506.467a.562.562,0,0,0,.648.351,141.69,141.69,0,0,1,33.614.558.845.845,0,0,0,.134.007.577.577,0,0,0,.556-.336c.066-.224-.133-.44-.447-.483A143.238,143.238,0,0,0,289.492,166.96Zm0,0" transform="translate(-229.878 -132.216)"/><path d="M280.522,189.15a111.819,111.819,0,0,1,35.511-.242.783.783,0,0,0,.149.01.584.584,0,0,0,.553-.324c.075-.223-.117-.443-.43-.492a113.438,113.438,0,0,0-36.03.245c-.314.053-.513.276-.444.5A.6.6,0,0,0,280.522,189.15Zm0,0" transform="translate(-222.587 -148.579)"/><path d="M323.1,203.815a126.583,126.583,0,0,0-34.224-.564c-.317.038-.537.252-.489.477a.575.575,0,0,0,.662.338,124.937,124.937,0,0,1,33.78.557.844.844,0,0,0,.148.009.584.584,0,0,0,.554-.324C323.606,204.084,323.414,203.864,323.1,203.815Zm0,0" transform="translate(-229.401 -160.967)"/><path d="M290.02,219.231c-.319.033-.545.242-.506.468a.562.562,0,0,0,.648.35,141.688,141.688,0,0,1,33.614.558.76.76,0,0,0,.134.007.578.578,0,0,0,.556-.335c.067-.224-.133-.441-.447-.484A143.279,143.279,0,0,0,290.02,219.231Zm0,0" transform="translate(-230.298 -173.796)"/><path d="M281.049,241.421a111.819,111.819,0,0,1,35.511-.242.781.781,0,0,0,.149.01.584.584,0,0,0,.553-.324c.075-.223-.117-.443-.43-.492a113.462,113.462,0,0,0-36.03.245c-.314.053-.513.276-.444.5A.6.6,0,0,0,281.049,241.421Zm0,0" transform="translate(-223.006 -190.159)"/><path d="M323.629,256.084a126.585,126.585,0,0,0-34.224-.564c-.317.038-.537.252-.489.477a.575.575,0,0,0,.661.338,124.936,124.936,0,0,1,33.78.557.848.848,0,0,0,.148.01.583.583,0,0,0,.553-.325C324.134,256.354,323.942,256.133,323.629,256.084Zm0,0" transform="translate(-229.82 -202.546)"/><path d="M290.544,271.5c-.32.033-.546.242-.507.468a.564.564,0,0,0,.649.35,141.687,141.687,0,0,1,33.614.558.754.754,0,0,0,.133.007.577.577,0,0,0,.556-.335c.067-.225-.133-.441-.447-.484A143.27,143.27,0,0,0,290.544,271.5Zm0,0" transform="translate(-230.714 -215.375)"/><path d="M353.144,42.93a3.465,3.465,0,0,0,1.04,2.424,3.406,3.406,0,0,0,2.1.5l17.717.1h0a.412.412,0,0,0,.411-.457l-.847-7.859c-.075-.7-.108-1.474-.143-2.294a17.559,17.559,0,0,0-.759-5.36c-.637-1.649-2.361-1.77-3.746-1.866-.179-.012-.356-.025-.527-.04A50.589,50.589,0,0,0,351.8,29.34a.412.412,0,0,0-.311.452Zm10.871-2.551a.369.369,0,0,0-.031-.047l-1.6-1.972,4.157-3.885c.1-.089.24-.224.339-.234.169-.018.405.3.485.4l3.365,4.348c-.47.166-.929.363-1.382.558a12.861,12.861,0,0,1-2.3.821A8.418,8.418,0,0,1,364.015,40.379Zm-2.153-2.662L359.7,35.059a2.959,2.959,0,0,1,4.6.375Zm.9,2.419-.186-.042c-.358-.083-.715-.173-1.073-.262a21.023,21.023,0,0,0-3.59-.68,6.983,6.983,0,0,0-4.293.94l-.383-3.037,3.325-3.856c.212-.245.291-.26.306-.256.039,0,.118.079.234.221Zm10.778,4.982-17.254-.094a2.676,2.676,0,0,1-1.6-.328,2.727,2.727,0,0,1-.72-1.869l-.227-1.8a5.887,5.887,0,0,1,4.118-1.047,20.374,20.374,0,0,1,3.447.657c.362.09.724.181,1.087.266a14.228,14.228,0,0,0,3.208.439,7.678,7.678,0,0,0,1.623-.165,13.466,13.466,0,0,0,2.455-.87,8.383,8.383,0,0,1,3.242-.919h.006ZM360.551,28.811a50.089,50.089,0,0,1,7.765.083c.177.016.358.029.542.042,1.329.093,2.585.181,3.033,1.339a17,17,0,0,1,.7,5.1c.035.832.069,1.619.147,2.346l.09.841a5.643,5.643,0,0,0-1.258.169l-3.558-4.6a1.487,1.487,0,0,0-1.222-.714,1.435,1.435,0,0,0-.819.453l-1.06.991a3.792,3.792,0,0,0-5.739-.451l-1.435-1.768a1.231,1.231,0,0,0-.784-.523,1.251,1.251,0,0,0-1.023.538L353.1,35.951l-.742-5.9A49.709,49.709,0,0,1,360.551,28.811Zm0,0" transform="translate(-279.6 -22.171)"/></g></g></svg>