<svg xmlns="http://www.w3.org/2000/svg" xmlns:xlink="http://www.w3.org/1999/xlink" viewBox="0 0 166 166"><defs><style>.a{fill:#f8dc00;}.b{fill:#ebc030;}.c{fill:#f89f2e;}.d{fill:#3c1909;}.e{fill:#fffff9;}.f{fill:#1b0502;}.g{filter:url(#a);}</style><filter id="a" x="0" y="0" width="166" height="166" filterUnits="userSpaceOnUse"><feOffset dy="3" input="SourceAlpha"/><feGaussianBlur stdDeviation="3" result="b"/><feFlood flood-opacity="0.302"/><feComposite operator="in" in2="b"/><feComposite in="SourceGraphic"/></filter></defs><g transform="translate(-513 -2115)"><g class="g" transform="matrix(1, 0, 0, 1, 513, 2115)"><path class="a" d="M74,0A74,74,0,1,1,0,74,74,74,0,0,1,74,0Z" transform="translate(9 6)"/></g><g transform="translate(523.429 2122.673)"><path class="b" d="M66.192,110.186c.606-7.09-3.274-12.341-7.332-17.435a26.959,26.959,0,0,1-5.644-15.578c-.4-6.6-.326-13.237,1.651-19.683,3.918-13.022,13.563-21.539,27.649-21.95,1.063,0,2.127-.177,3.2-.271,0,.5-.075,1.007-.075,1.511v71.148c0,.653.075,1.3.1,1.94l-.112.224C79.121,110.018,72.675,109.832,66.192,110.186Z" transform="translate(-12.451 -13.712)"/><path class="c" d="M119.166,68.339a66.885,66.885,0,0,1-.709,11.81c-.849,5.327-3.424,9.72-6.53,13.937-3.461,4.748-6.726,9.562-6.744,15.774H88.093c0-.644-.1-1.287-.1-1.94V36.781c0-.5.047-1.007.075-1.511,7.994.131,15.308,2.155,21.371,7.668C109.455,42.938,118.783,51.66,119.166,68.339Z" transform="translate(-14.799 -13.712)"/><path class="d" d="M67.14,115.565c6.53-.354,12.957-.168,19.44-.093V142.4l-7.332.2C75.125,139.222,71.6,135.22,67.7,131.61c-.616-.578-.466-1.315-.466-2.024Q67.177,122.571,67.14,115.565Z" transform="translate(-13.399 -19.091)"/><path class="e" d="M80.1,144.546l7.332-.2c1.791.709,3.675,0,5.494.336-1.549,3.573-4.384,4.776-8.088,4.4C82.619,148.249,80.753,147.027,80.1,144.546Z" transform="translate(-14.27 -21.038)"/><path class="f" d="M93.454,142.731c-1.819-.317-3.731.373-5.494-.336V115.464l.112-.224h17.136c.737,1.586.289,3.265.317,4.9.056,3.162,0,6.343-.056,9.515a2.6,2.6,0,0,1-.634,2.183C101,135.4,97.475,139.335,93.454,142.731Z" transform="translate(-14.797 -19.083)"/></g></g></svg>